<svg xmlns="http://www.w3.org/2000/svg" width="1100" height="860" viewBox="0 0 1100 860">
<rect x="0" y="0" width="100%" height="100%" fill="white"/>
<text x="550" y="36" text-anchor="middle" font-size="24" font-family="Arial">Graph Diameter vs Node Count (10000 Random Molecules)</text>
<rect x="100" y="214" width="786" height="556" fill="white" stroke="#222" stroke-width="2"/>
<rect x="100" y="70" width="786" height="120" fill="white" stroke="#222" stroke-width="1.5"/>
<rect x="910" y="214" width="150" height="556" fill="white" stroke="#222" stroke-width="1.5"/>
<line x1="100.00" y1="214" x2="100.00" y2="770" stroke="#e0e0e0" stroke-width="1"/>
<text x="100.00" y="792" text-anchor="middle" font-size="11" font-family="Arial">0</text>
<line x1="212.29" y1="214" x2="212.29" y2="770" stroke="#e0e0e0" stroke-width="1"/>
<text x="212.29" y="792" text-anchor="middle" font-size="11" font-family="Arial">5</text>
<line x1="324.57" y1="214" x2="324.57" y2="770" stroke="#e0e0e0" stroke-width="1"/>
<text x="324.57" y="792" text-anchor="middle" font-size="11" font-family="Arial">10</text>
<line x1="436.86" y1="214" x2="436.86" y2="770" stroke="#e0e0e0" stroke-width="1"/>
<text x="436.86" y="792" text-anchor="middle" font-size="11" font-family="Arial">15</text>
<line x1="549.14" y1="214" x2="549.14" y2="770" stroke="#e0e0e0" stroke-width="1"/>
<text x="549.14" y="792" text-anchor="middle" font-size="11" font-family="Arial">20</text>
<line x1="661.43" y1="214" x2="661.43" y2="770" stroke="#e0e0e0" stroke-width="1"/>
<text x="661.43" y="792" text-anchor="middle" font-size="11" font-family="Arial">25</text>
<line x1="773.71" y1="214" x2="773.71" y2="770" stroke="#e0e0e0" stroke-width="1"/>
<text x="773.71" y="792" text-anchor="middle" font-size="11" font-family="Arial">30</text>
<line x1="886.00" y1="214" x2="886.00" y2="770" stroke="#e0e0e0" stroke-width="1"/>
<text x="886.00" y="792" text-anchor="middle" font-size="11" font-family="Arial">35</text>
<line x1="100" y1="770.00" x2="886" y2="770.00" stroke="#e0e0e0" stroke-width="1"/>
<text x="88" y="774.00" text-anchor="end" font-size="11" font-family="Arial">0</text>
<line x1="100" y1="687.63" x2="886" y2="687.63" stroke="#e0e0e0" stroke-width="1"/>
<text x="88" y="691.63" text-anchor="end" font-size="11" font-family="Arial">4</text>
<line x1="100" y1="605.26" x2="886" y2="605.26" stroke="#e0e0e0" stroke-width="1"/>
<text x="88" y="609.26" text-anchor="end" font-size="11" font-family="Arial">8</text>
<line x1="100" y1="522.89" x2="886" y2="522.89" stroke="#e0e0e0" stroke-width="1"/>
<text x="88" y="526.89" text-anchor="end" font-size="11" font-family="Arial">12</text>
<line x1="100" y1="440.52" x2="886" y2="440.52" stroke="#e0e0e0" stroke-width="1"/>
<text x="88" y="444.52" text-anchor="end" font-size="11" font-family="Arial">16</text>
<line x1="100" y1="358.15" x2="886" y2="358.15" stroke="#e0e0e0" stroke-width="1"/>
<text x="88" y="362.15" text-anchor="end" font-size="11" font-family="Arial">20</text>
<line x1="100" y1="275.78" x2="886" y2="275.78" stroke="#e0e0e0" stroke-width="1"/>
<text x="88" y="279.78" text-anchor="end" font-size="11" font-family="Arial">24</text>
<line x1="100" y1="214.00" x2="886" y2="214.00" stroke="#e0e0e0" stroke-width="1"/>
<text x="88" y="218.00" text-anchor="end" font-size="11" font-family="Arial">27</text>
<line x1="447.93" y1="214" x2="447.93" y2="770" stroke="#555" stroke-width="1.5" stroke-dasharray="6,5"/>
<line x1="100" y1="596.42" x2="886" y2="596.42" stroke="#555" stroke-width="1.5" stroke-dasharray="6,5"/>
<rect x="101.50" y="190.00" width="18.83" height="0.00" fill="#4c78a8"/>
<rect x="123.33" y="190.00" width="18.83" height="0.00" fill="#4c78a8"/>
<rect x="145.17" y="190.00" width="18.83" height="0.00" fill="#4c78a8"/>
<rect x="167.00" y="189.78" width="18.83" height="0.22" fill="#4c78a8"/>
<rect x="188.83" y="189.93" width="18.83" height="0.07" fill="#4c78a8"/>
<rect x="210.67" y="189.49" width="18.83" height="0.51" fill="#4c78a8"/>
<rect x="232.50" y="188.48" width="18.83" height="1.52" fill="#4c78a8"/>
<rect x="254.33" y="186.31" width="18.83" height="3.69" fill="#4c78a8"/>
<rect x="276.17" y="183.27" width="18.83" height="6.73" fill="#4c78a8"/>
<rect x="298.00" y="177.49" width="18.83" height="12.51" fill="#4c78a8"/>
<rect x="319.83" y="171.34" width="18.83" height="18.66" fill="#4c78a8"/>
<rect x="341.67" y="164.11" width="18.83" height="25.89" fill="#4c78a8"/>
<rect x="363.50" y="144.94" width="18.83" height="45.06" fill="#4c78a8"/>
<rect x="385.33" y="136.05" width="18.83" height="53.95" fill="#4c78a8"/>
<rect x="407.17" y="119.05" width="18.83" height="70.95" fill="#4c78a8"/>
<rect x="429.00" y="103.72" width="18.83" height="86.28" fill="#4c78a8"/>
<rect x="450.83" y="89.84" width="18.83" height="100.16" fill="#4c78a8"/>
<rect x="472.67" y="80.00" width="18.83" height="110.00" fill="#4c78a8"/>
<rect x="494.50" y="92.87" width="18.83" height="97.13" fill="#4c78a8"/>
<rect x="516.33" y="135.98" width="18.83" height="54.02" fill="#4c78a8"/>
<rect x="538.17" y="168.38" width="18.83" height="21.62" fill="#4c78a8"/>
<rect x="560.00" y="183.20" width="18.83" height="6.80" fill="#4c78a8"/>
<rect x="581.83" y="186.96" width="18.83" height="3.04" fill="#4c78a8"/>
<rect x="603.67" y="188.34" width="18.83" height="1.66" fill="#4c78a8"/>
<rect x="625.50" y="188.99" width="18.83" height="1.01" fill="#4c78a8"/>
<rect x="647.33" y="189.35" width="18.83" height="0.65" fill="#4c78a8"/>
<rect x="669.17" y="189.64" width="18.83" height="0.36" fill="#4c78a8"/>
<rect x="691.00" y="189.78" width="18.83" height="0.22" fill="#4c78a8"/>
<rect x="712.83" y="189.86" width="18.83" height="0.14" fill="#4c78a8"/>
<rect x="734.67" y="189.93" width="18.83" height="0.07" fill="#4c78a8"/>
<rect x="756.50" y="190.00" width="18.83" height="0.00" fill="#4c78a8"/>
<rect x="778.33" y="189.86" width="18.83" height="0.14" fill="#4c78a8"/>
<rect x="800.17" y="189.93" width="18.83" height="0.07" fill="#4c78a8"/>
<rect x="822.00" y="190.00" width="18.83" height="0.00" fill="#4c78a8"/>
<rect x="843.83" y="190.00" width="18.83" height="0.00" fill="#4c78a8"/>
<rect x="865.67" y="189.93" width="18.83" height="0.07" fill="#4c78a8"/>
<rect x="910" y="751.64" width="0.00" height="16.86" fill="#e4572e"/>
<rect x="910" y="731.79" width="0.00" height="16.86" fill="#e4572e"/>
<rect x="910" y="711.93" width="0.54" height="16.86" fill="#e4572e"/>
<rect x="910" y="692.07" width="1.08" height="16.86" fill="#e4572e"/>
<rect x="910" y="672.21" width="9.33" height="16.86" fill="#e4572e"/>
<rect x="910" y="652.36" width="29.08" height="16.86" fill="#e4572e"/>
<rect x="910" y="632.50" width="61.34" height="16.86" fill="#e4572e"/>
<rect x="910" y="612.64" width="108.35" height="16.86" fill="#e4572e"/>
<rect x="910" y="592.79" width="138.99" height="16.86" fill="#e4572e"/>
<rect x="910" y="572.93" width="140.00" height="16.86" fill="#e4572e"/>
<rect x="910" y="553.07" width="101.86" height="16.86" fill="#e4572e"/>
<rect x="910" y="533.21" width="53.23" height="16.86" fill="#e4572e"/>
<rect x="910" y="513.36" width="21.17" height="16.86" fill="#e4572e"/>
<rect x="910" y="493.50" width="7.17" height="16.86" fill="#e4572e"/>
<rect x="910" y="473.64" width="2.50" height="16.86" fill="#e4572e"/>
<rect x="910" y="453.79" width="0.54" height="16.86" fill="#e4572e"/>
<rect x="910" y="433.93" width="0.54" height="16.86" fill="#e4572e"/>
<rect x="910" y="414.07" width="0.20" height="16.86" fill="#e4572e"/>
<rect x="910" y="394.21" width="0.07" height="16.86" fill="#e4572e"/>
<rect x="910" y="374.36" width="0.07" height="16.86" fill="#e4572e"/>
<rect x="910" y="354.50" width="0.07" height="16.86" fill="#e4572e"/>
<rect x="910" y="334.64" width="0.00" height="16.86" fill="#e4572e"/>
<rect x="910" y="314.79" width="0.00" height="16.86" fill="#e4572e"/>
<rect x="910" y="294.93" width="0.07" height="16.86" fill="#e4572e"/>
<rect x="910" y="275.07" width="0.00" height="16.86" fill="#e4572e"/>
<rect x="910" y="255.21" width="0.07" height="16.86" fill="#e4572e"/>
<rect x="910" y="235.36" width="0.00" height="16.86" fill="#e4572e"/>
<rect x="910" y="215.50" width="0.07" height="16.86" fill="#e4572e"/>
<circle cx="886.00" cy="461.11" r="3.22" fill="rgb(129,179,226)" fill-opacity="0.36" stroke="#1e4f7d" stroke-width="0.6"/>
<circle cx="638.97" cy="564.07" r="3.22" fill="rgb(129,179,226)" fill-opacity="0.36" stroke="#1e4f7d" stroke-width="0.6"/>
<circle cx="616.51" cy="378.74" r="3.22" fill="rgb(129,179,226)" fill-opacity="0.36" stroke="#1e4f7d" stroke-width="0.6"/>
<circle cx="616.51" cy="440.52" r="3.22" fill="rgb(129,179,226)" fill-opacity="0.36" stroke="#1e4f7d" stroke-width="0.6"/>
<circle cx="616.51" cy="502.30" r="3.22" fill="rgb(129,179,226)" fill-opacity="0.36" stroke="#1e4f7d" stroke-width="0.6"/>
<circle cx="616.51" cy="584.67" r="3.22" fill="rgb(129,179,226)" fill-opacity="0.36" stroke="#1e4f7d" stroke-width="0.6"/>
<circle cx="594.06" cy="399.33" r="3.22" fill="rgb(129,179,226)" fill-opacity="0.36" stroke="#1e4f7d" stroke-width="0.6"/>
<circle cx="594.06" cy="440.52" r="3.22" fill="rgb(129,179,226)" fill-opacity="0.36" stroke="#1e4f7d" stroke-width="0.6"/>
<circle cx="594.06" cy="481.70" r="3.22" fill="rgb(129,179,226)" fill-opacity="0.36" stroke="#1e4f7d" stroke-width="0.6"/>
<circle cx="571.60" cy="625.85" r="3.22" fill="rgb(129,179,226)" fill-opacity="0.36" stroke="#1e4f7d" stroke-width="0.6"/>
<circle cx="638.97" cy="481.70" r="3.22" fill="rgb(129,179,226)" fill-opacity="0.36" stroke="#1e4f7d" stroke-width="0.6"/>
<circle cx="549.14" cy="419.93" r="3.22" fill="rgb(129,179,226)" fill-opacity="0.36" stroke="#1e4f7d" stroke-width="0.6"/>
<circle cx="391.94" cy="687.63" r="3.22" fill="rgb(129,179,226)" fill-opacity="0.36" stroke="#1e4f7d" stroke-width="0.6"/>
<circle cx="549.14" cy="625.85" r="3.22" fill="rgb(129,179,226)" fill-opacity="0.36" stroke="#1e4f7d" stroke-width="0.6"/>
<circle cx="504.23" cy="419.93" r="3.22" fill="rgb(129,179,226)" fill-opacity="0.36" stroke="#1e4f7d" stroke-width="0.6"/>
<circle cx="504.23" cy="461.11" r="3.22" fill="rgb(129,179,226)" fill-opacity="0.36" stroke="#1e4f7d" stroke-width="0.6"/>
<circle cx="818.63" cy="440.52" r="3.22" fill="rgb(129,179,226)" fill-opacity="0.36" stroke="#1e4f7d" stroke-width="0.6"/>
<circle cx="459.31" cy="481.70" r="3.22" fill="rgb(129,179,226)" fill-opacity="0.36" stroke="#1e4f7d" stroke-width="0.6"/>
<circle cx="414.40" cy="687.63" r="3.22" fill="rgb(129,179,226)" fill-opacity="0.36" stroke="#1e4f7d" stroke-width="0.6"/>
<circle cx="459.31" cy="667.04" r="3.22" fill="rgb(129,179,226)" fill-opacity="0.36" stroke="#1e4f7d" stroke-width="0.6"/>
<circle cx="436.86" cy="481.70" r="3.22" fill="rgb(129,179,226)" fill-opacity="0.36" stroke="#1e4f7d" stroke-width="0.6"/>
<circle cx="549.14" cy="440.52" r="3.22" fill="rgb(129,179,226)" fill-opacity="0.36" stroke="#1e4f7d" stroke-width="0.6"/>
<circle cx="638.97" cy="461.11" r="3.22" fill="rgb(129,179,226)" fill-opacity="0.36" stroke="#1e4f7d" stroke-width="0.6"/>
<circle cx="638.97" cy="584.67" r="3.22" fill="rgb(129,179,226)" fill-opacity="0.36" stroke="#1e4f7d" stroke-width="0.6"/>
<circle cx="302.11" cy="605.26" r="3.22" fill="rgb(129,179,226)" fill-opacity="0.36" stroke="#1e4f7d" stroke-width="0.6"/>
<circle cx="189.83" cy="728.81" r="3.22" fill="rgb(129,179,226)" fill-opacity="0.36" stroke="#1e4f7d" stroke-width="0.6"/>
<circle cx="796.17" cy="440.52" r="3.22" fill="rgb(129,179,226)" fill-opacity="0.36" stroke="#1e4f7d" stroke-width="0.6"/>
<circle cx="796.17" cy="502.30" r="3.22" fill="rgb(129,179,226)" fill-opacity="0.36" stroke="#1e4f7d" stroke-width="0.6"/>
<circle cx="751.26" cy="296.37" r="3.22" fill="rgb(129,179,226)" fill-opacity="0.36" stroke="#1e4f7d" stroke-width="0.6"/>
<circle cx="728.80" cy="214.00" r="3.22" fill="rgb(129,179,226)" fill-opacity="0.36" stroke="#1e4f7d" stroke-width="0.6"/>
<circle cx="728.80" cy="255.19" r="3.22" fill="rgb(129,179,226)" fill-opacity="0.36" stroke="#1e4f7d" stroke-width="0.6"/>
<circle cx="257.20" cy="728.81" r="3.22" fill="rgb(129,179,226)" fill-opacity="0.36" stroke="#1e4f7d" stroke-width="0.6"/>
<circle cx="706.34" cy="481.70" r="3.22" fill="rgb(129,179,226)" fill-opacity="0.36" stroke="#1e4f7d" stroke-width="0.6"/>
<circle cx="706.34" cy="502.30" r="3.22" fill="rgb(129,179,226)" fill-opacity="0.36" stroke="#1e4f7d" stroke-width="0.6"/>
<circle cx="706.34" cy="564.07" r="3.22" fill="rgb(129,179,226)" fill-opacity="0.36" stroke="#1e4f7d" stroke-width="0.6"/>
<circle cx="661.43" cy="564.07" r="3.22" fill="rgb(129,179,226)" fill-opacity="0.36" stroke="#1e4f7d" stroke-width="0.6"/>
<circle cx="683.89" cy="358.15" r="3.22" fill="rgb(129,179,226)" fill-opacity="0.36" stroke="#1e4f7d" stroke-width="0.6"/>
<circle cx="661.43" cy="419.93" r="3.22" fill="rgb(129,179,226)" fill-opacity="0.36" stroke="#1e4f7d" stroke-width="0.6"/>
<circle cx="661.43" cy="440.52" r="3.22" fill="rgb(129,179,226)" fill-opacity="0.36" stroke="#1e4f7d" stroke-width="0.6"/>
<circle cx="661.43" cy="543.48" r="3.22" fill="rgb(129,179,226)" fill-opacity="0.36" stroke="#1e4f7d" stroke-width="0.6"/>
<circle cx="683.89" cy="605.26" r="3.22" fill="rgb(129,179,226)" fill-opacity="0.36" stroke="#1e4f7d" stroke-width="0.6"/>
<circle cx="661.43" cy="502.30" r="3.22" fill="rgb(129,179,226)" fill-opacity="0.36" stroke="#1e4f7d" stroke-width="0.6"/>
<circle cx="594.06" cy="502.30" r="3.82" fill="rgb(123,172,221)" fill-opacity="0.40" stroke="#1e4f7d" stroke-width="0.6"/>
<circle cx="436.86" cy="502.30" r="3.82" fill="rgb(123,172,221)" fill-opacity="0.40" stroke="#1e4f7d" stroke-width="0.6"/>
<circle cx="638.97" cy="502.30" r="3.82" fill="rgb(123,172,221)" fill-opacity="0.40" stroke="#1e4f7d" stroke-width="0.6"/>
<circle cx="414.40" cy="502.30" r="3.82" fill="rgb(123,172,221)" fill-opacity="0.40" stroke="#1e4f7d" stroke-width="0.6"/>
<circle cx="661.43" cy="522.89" r="3.82" fill="rgb(123,172,221)" fill-opacity="0.40" stroke="#1e4f7d" stroke-width="0.6"/>
<circle cx="481.77" cy="440.52" r="3.82" fill="rgb(123,172,221)" fill-opacity="0.40" stroke="#1e4f7d" stroke-width="0.6"/>
<circle cx="616.51" cy="481.70" r="3.82" fill="rgb(123,172,221)" fill-opacity="0.40" stroke="#1e4f7d" stroke-width="0.6"/>
<circle cx="549.14" cy="481.70" r="3.82" fill="rgb(123,172,221)" fill-opacity="0.40" stroke="#1e4f7d" stroke-width="0.6"/>
<circle cx="302.11" cy="708.22" r="3.82" fill="rgb(123,172,221)" fill-opacity="0.40" stroke="#1e4f7d" stroke-width="0.6"/>
<circle cx="571.60" cy="461.11" r="3.82" fill="rgb(123,172,221)" fill-opacity="0.40" stroke="#1e4f7d" stroke-width="0.6"/>
<circle cx="661.43" cy="481.70" r="3.82" fill="rgb(123,172,221)" fill-opacity="0.40" stroke="#1e4f7d" stroke-width="0.6"/>
<circle cx="549.14" cy="461.11" r="4.24" fill="rgb(119,168,217)" fill-opacity="0.42" stroke="#1e4f7d" stroke-width="0.6"/>
<circle cx="638.97" cy="522.89" r="4.24" fill="rgb(119,168,217)" fill-opacity="0.42" stroke="#1e4f7d" stroke-width="0.6"/>
<circle cx="683.89" cy="481.70" r="4.24" fill="rgb(119,168,217)" fill-opacity="0.42" stroke="#1e4f7d" stroke-width="0.6"/>
<circle cx="414.40" cy="522.89" r="4.24" fill="rgb(119,168,217)" fill-opacity="0.42" stroke="#1e4f7d" stroke-width="0.6"/>
<circle cx="167.37" cy="728.81" r="4.24" fill="rgb(119,168,217)" fill-opacity="0.42" stroke="#1e4f7d" stroke-width="0.6"/>
<circle cx="324.57" cy="584.67" r="4.24" fill="rgb(119,168,217)" fill-opacity="0.42" stroke="#1e4f7d" stroke-width="0.6"/>
<circle cx="212.29" cy="728.81" r="4.24" fill="rgb(119,168,217)" fill-opacity="0.42" stroke="#1e4f7d" stroke-width="0.6"/>
<circle cx="369.49" cy="687.63" r="4.24" fill="rgb(119,168,217)" fill-opacity="0.42" stroke="#1e4f7d" stroke-width="0.6"/>
<circle cx="212.29" cy="708.22" r="4.57" fill="rgb(116,164,215)" fill-opacity="0.44" stroke="#1e4f7d" stroke-width="0.6"/>
<circle cx="436.86" cy="667.04" r="4.57" fill="rgb(116,164,215)" fill-opacity="0.44" stroke="#1e4f7d" stroke-width="0.6"/>
<circle cx="594.06" cy="605.26" r="4.57" fill="rgb(116,164,215)" fill-opacity="0.44" stroke="#1e4f7d" stroke-width="0.6"/>
<circle cx="257.20" cy="708.22" r="4.57" fill="rgb(116,164,215)" fill-opacity="0.44" stroke="#1e4f7d" stroke-width="0.6"/>
<circle cx="347.03" cy="564.07" r="4.57" fill="rgb(116,164,215)" fill-opacity="0.44" stroke="#1e4f7d" stroke-width="0.6"/>
<circle cx="616.51" cy="522.89" r="4.57" fill="rgb(116,164,215)" fill-opacity="0.44" stroke="#1e4f7d" stroke-width="0.6"/>
<circle cx="571.60" cy="605.26" r="4.57" fill="rgb(116,164,215)" fill-opacity="0.44" stroke="#1e4f7d" stroke-width="0.6"/>
<circle cx="594.06" cy="584.67" r="4.84" fill="rgb(113,162,212)" fill-opacity="0.46" stroke="#1e4f7d" stroke-width="0.6"/>
<circle cx="616.51" cy="564.07" r="4.84" fill="rgb(113,162,212)" fill-opacity="0.46" stroke="#1e4f7d" stroke-width="0.6"/>
<circle cx="257.20" cy="646.44" r="4.84" fill="rgb(113,162,212)" fill-opacity="0.46" stroke="#1e4f7d" stroke-width="0.6"/>
<circle cx="638.97" cy="543.48" r="4.84" fill="rgb(113,162,212)" fill-opacity="0.46" stroke="#1e4f7d" stroke-width="0.6"/>
<circle cx="234.74" cy="667.04" r="4.84" fill="rgb(113,162,212)" fill-opacity="0.46" stroke="#1e4f7d" stroke-width="0.6"/>
<circle cx="504.23" cy="646.44" r="4.84" fill="rgb(113,162,212)" fill-opacity="0.46" stroke="#1e4f7d" stroke-width="0.6"/>
<circle cx="369.49" cy="564.07" r="5.07" fill="rgb(111,159,211)" fill-opacity="0.48" stroke="#1e4f7d" stroke-width="0.6"/>
<circle cx="347.03" cy="584.67" r="5.07" fill="rgb(111,159,211)" fill-opacity="0.48" stroke="#1e4f7d" stroke-width="0.6"/>
<circle cx="347.03" cy="687.63" r="5.07" fill="rgb(111,159,211)" fill-opacity="0.48" stroke="#1e4f7d" stroke-width="0.6"/>
<circle cx="391.94" cy="543.48" r="5.07" fill="rgb(111,159,211)" fill-opacity="0.48" stroke="#1e4f7d" stroke-width="0.6"/>
<circle cx="234.74" cy="708.22" r="5.07" fill="rgb(111,159,211)" fill-opacity="0.48" stroke="#1e4f7d" stroke-width="0.6"/>
<circle cx="279.66" cy="625.85" r="5.07" fill="rgb(111,159,211)" fill-opacity="0.48" stroke="#1e4f7d" stroke-width="0.6"/>
<circle cx="369.49" cy="543.48" r="5.26" fill="rgb(109,157,209)" fill-opacity="0.49" stroke="#1e4f7d" stroke-width="0.6"/>
<circle cx="504.23" cy="481.70" r="5.26" fill="rgb(109,157,209)" fill-opacity="0.49" stroke="#1e4f7d" stroke-width="0.6"/>
<circle cx="571.60" cy="502.30" r="5.26" fill="rgb(109,157,209)" fill-opacity="0.49" stroke="#1e4f7d" stroke-width="0.6"/>
<circle cx="594.06" cy="522.89" r="5.26" fill="rgb(109,157,209)" fill-opacity="0.49" stroke="#1e4f7d" stroke-width="0.6"/>
<circle cx="481.77" cy="481.70" r="5.26" fill="rgb(109,157,209)" fill-opacity="0.49" stroke="#1e4f7d" stroke-width="0.6"/>
<circle cx="616.51" cy="543.48" r="5.44" fill="rgb(107,155,208)" fill-opacity="0.50" stroke="#1e4f7d" stroke-width="0.6"/>
<circle cx="526.69" cy="481.70" r="5.59" fill="rgb(106,154,206)" fill-opacity="0.51" stroke="#1e4f7d" stroke-width="0.6"/>
<circle cx="257.20" cy="667.04" r="5.59" fill="rgb(106,154,206)" fill-opacity="0.51" stroke="#1e4f7d" stroke-width="0.6"/>
<circle cx="234.74" cy="687.63" r="5.73" fill="rgb(104,152,205)" fill-opacity="0.52" stroke="#1e4f7d" stroke-width="0.6"/>
<circle cx="594.06" cy="543.48" r="5.73" fill="rgb(104,152,205)" fill-opacity="0.52" stroke="#1e4f7d" stroke-width="0.6"/>
<circle cx="436.86" cy="522.89" r="5.73" fill="rgb(104,152,205)" fill-opacity="0.52" stroke="#1e4f7d" stroke-width="0.6"/>
<circle cx="481.77" cy="502.30" r="5.73" fill="rgb(104,152,205)" fill-opacity="0.52" stroke="#1e4f7d" stroke-width="0.6"/>
<circle cx="594.06" cy="564.07" r="5.86" fill="rgb(103,151,204)" fill-opacity="0.52" stroke="#1e4f7d" stroke-width="0.6"/>
<circle cx="459.31" cy="502.30" r="5.86" fill="rgb(103,151,204)" fill-opacity="0.52" stroke="#1e4f7d" stroke-width="0.6"/>
<circle cx="324.57" cy="605.26" r="5.98" fill="rgb(102,150,203)" fill-opacity="0.53" stroke="#1e4f7d" stroke-width="0.6"/>
<circle cx="526.69" cy="625.85" r="6.19" fill="rgb(100,147,201)" fill-opacity="0.54" stroke="#1e4f7d" stroke-width="0.6"/>
<circle cx="571.60" cy="543.48" r="6.29" fill="rgb(99,146,200)" fill-opacity="0.55" stroke="#1e4f7d" stroke-width="0.6"/>
<circle cx="481.77" cy="646.44" r="6.29" fill="rgb(99,146,200)" fill-opacity="0.55" stroke="#1e4f7d" stroke-width="0.6"/>
<circle cx="571.60" cy="584.67" r="6.38" fill="rgb(98,145,200)" fill-opacity="0.56" stroke="#1e4f7d" stroke-width="0.6"/>
<circle cx="414.40" cy="667.04" r="6.38" fill="rgb(98,145,200)" fill-opacity="0.56" stroke="#1e4f7d" stroke-width="0.6"/>
<circle cx="549.14" cy="502.30" r="6.38" fill="rgb(98,145,200)" fill-opacity="0.56" stroke="#1e4f7d" stroke-width="0.6"/>
<circle cx="549.14" cy="605.26" r="6.54" fill="rgb(96,144,198)" fill-opacity="0.57" stroke="#1e4f7d" stroke-width="0.6"/>
<circle cx="302.11" cy="625.85" r="6.54" fill="rgb(96,144,198)" fill-opacity="0.57" stroke="#1e4f7d" stroke-width="0.6"/>
<circle cx="414.40" cy="543.48" r="6.61" fill="rgb(95,143,198)" fill-opacity="0.57" stroke="#1e4f7d" stroke-width="0.6"/>
<circle cx="279.66" cy="646.44" r="6.69" fill="rgb(95,142,197)" fill-opacity="0.57" stroke="#1e4f7d" stroke-width="0.6"/>
<circle cx="571.60" cy="522.89" r="6.69" fill="rgb(95,142,197)" fill-opacity="0.57" stroke="#1e4f7d" stroke-width="0.6"/>
<circle cx="324.57" cy="687.63" r="6.76" fill="rgb(94,141,197)" fill-opacity="0.58" stroke="#1e4f7d" stroke-width="0.6"/>
<circle cx="504.23" cy="502.30" r="6.88" fill="rgb(93,140,195)" fill-opacity="0.59" stroke="#1e4f7d" stroke-width="0.6"/>
<circle cx="391.94" cy="564.07" r="6.88" fill="rgb(93,140,195)" fill-opacity="0.59" stroke="#1e4f7d" stroke-width="0.6"/>
<circle cx="391.94" cy="667.04" r="7.00" fill="rgb(91,139,194)" fill-opacity="0.59" stroke="#1e4f7d" stroke-width="0.6"/>
<circle cx="459.31" cy="522.89" r="7.00" fill="rgb(91,139,194)" fill-opacity="0.59" stroke="#1e4f7d" stroke-width="0.6"/>
<circle cx="526.69" cy="502.30" r="7.11" fill="rgb(90,138,194)" fill-opacity="0.60" stroke="#1e4f7d" stroke-width="0.6"/>
<circle cx="347.03" cy="605.26" r="7.11" fill="rgb(90,138,194)" fill-opacity="0.60" stroke="#1e4f7d" stroke-width="0.6"/>
<circle cx="571.60" cy="564.07" r="7.21" fill="rgb(89,137,193)" fill-opacity="0.61" stroke="#1e4f7d" stroke-width="0.6"/>
<circle cx="369.49" cy="584.67" r="7.31" fill="rgb(88,136,192)" fill-opacity="0.61" stroke="#1e4f7d" stroke-width="0.6"/>
<circle cx="549.14" cy="522.89" r="7.31" fill="rgb(88,136,192)" fill-opacity="0.61" stroke="#1e4f7d" stroke-width="0.6"/>
<circle cx="279.66" cy="687.63" r="7.35" fill="rgb(88,135,192)" fill-opacity="0.61" stroke="#1e4f7d" stroke-width="0.6"/>
<circle cx="302.11" cy="687.63" r="7.35" fill="rgb(88,135,192)" fill-opacity="0.61" stroke="#1e4f7d" stroke-width="0.6"/>
<circle cx="257.20" cy="687.63" r="7.35" fill="rgb(88,135,192)" fill-opacity="0.61" stroke="#1e4f7d" stroke-width="0.6"/>
<circle cx="436.86" cy="543.48" r="7.35" fill="rgb(88,135,192)" fill-opacity="0.61" stroke="#1e4f7d" stroke-width="0.6"/>
<circle cx="459.31" cy="646.44" r="7.35" fill="rgb(88,135,192)" fill-opacity="0.61" stroke="#1e4f7d" stroke-width="0.6"/>
<circle cx="279.66" cy="667.04" r="7.48" fill="rgb(87,134,190)" fill-opacity="0.62" stroke="#1e4f7d" stroke-width="0.6"/>
<circle cx="302.11" cy="646.44" r="7.60" fill="rgb(86,133,190)" fill-opacity="0.63" stroke="#1e4f7d" stroke-width="0.6"/>
<circle cx="324.57" cy="625.85" r="7.60" fill="rgb(86,133,190)" fill-opacity="0.63" stroke="#1e4f7d" stroke-width="0.6"/>
<circle cx="481.77" cy="522.89" r="8.11" fill="rgb(80,127,185)" fill-opacity="0.66" stroke="#1e4f7d" stroke-width="0.6"/>
<circle cx="414.40" cy="564.07" r="8.18" fill="rgb(80,126,185)" fill-opacity="0.67" stroke="#1e4f7d" stroke-width="0.6"/>
<circle cx="504.23" cy="625.85" r="8.21" fill="rgb(79,126,184)" fill-opacity="0.67" stroke="#1e4f7d" stroke-width="0.6"/>
<circle cx="549.14" cy="543.48" r="8.46" fill="rgb(77,123,182)" fill-opacity="0.68" stroke="#1e4f7d" stroke-width="0.6"/>
<circle cx="369.49" cy="667.04" r="8.50" fill="rgb(76,123,182)" fill-opacity="0.69" stroke="#1e4f7d" stroke-width="0.6"/>
<circle cx="526.69" cy="522.89" r="8.54" fill="rgb(76,123,182)" fill-opacity="0.69" stroke="#1e4f7d" stroke-width="0.6"/>
<circle cx="436.86" cy="646.44" r="8.62" fill="rgb(75,122,181)" fill-opacity="0.69" stroke="#1e4f7d" stroke-width="0.6"/>
<circle cx="549.14" cy="584.67" r="8.62" fill="rgb(75,122,181)" fill-opacity="0.69" stroke="#1e4f7d" stroke-width="0.6"/>
<circle cx="391.94" cy="584.67" r="8.64" fill="rgb(75,122,181)" fill-opacity="0.69" stroke="#1e4f7d" stroke-width="0.6"/>
<circle cx="549.14" cy="564.07" r="8.68" fill="rgb(75,121,181)" fill-opacity="0.70" stroke="#1e4f7d" stroke-width="0.6"/>
<circle cx="504.23" cy="522.89" r="8.69" fill="rgb(75,121,180)" fill-opacity="0.70" stroke="#1e4f7d" stroke-width="0.6"/>
<circle cx="302.11" cy="667.04" r="8.71" fill="rgb(74,121,180)" fill-opacity="0.70" stroke="#1e4f7d" stroke-width="0.6"/>
<circle cx="459.31" cy="543.48" r="8.75" fill="rgb(74,120,180)" fill-opacity="0.70" stroke="#1e4f7d" stroke-width="0.6"/>
<circle cx="347.03" cy="667.04" r="8.75" fill="rgb(74,120,180)" fill-opacity="0.70" stroke="#1e4f7d" stroke-width="0.6"/>
<circle cx="324.57" cy="646.44" r="8.78" fill="rgb(74,120,180)" fill-opacity="0.70" stroke="#1e4f7d" stroke-width="0.6"/>
<circle cx="369.49" cy="605.26" r="8.94" fill="rgb(72,118,178)" fill-opacity="0.71" stroke="#1e4f7d" stroke-width="0.6"/>
<circle cx="324.57" cy="667.04" r="8.97" fill="rgb(72,118,178)" fill-opacity="0.71" stroke="#1e4f7d" stroke-width="0.6"/>
<circle cx="526.69" cy="605.26" r="8.97" fill="rgb(72,118,178)" fill-opacity="0.71" stroke="#1e4f7d" stroke-width="0.6"/>
<circle cx="347.03" cy="625.85" r="9.04" fill="rgb(71,117,177)" fill-opacity="0.72" stroke="#1e4f7d" stroke-width="0.6"/>
<circle cx="414.40" cy="646.44" r="9.26" fill="rgb(69,115,176)" fill-opacity="0.73" stroke="#1e4f7d" stroke-width="0.6"/>
<circle cx="347.03" cy="646.44" r="9.36" fill="rgb(68,114,175)" fill-opacity="0.74" stroke="#1e4f7d" stroke-width="0.6"/>
<circle cx="436.86" cy="564.07" r="9.40" fill="rgb(68,114,175)" fill-opacity="0.74" stroke="#1e4f7d" stroke-width="0.6"/>
<circle cx="481.77" cy="625.85" r="9.50" fill="rgb(66,112,174)" fill-opacity="0.75" stroke="#1e4f7d" stroke-width="0.6"/>
<circle cx="526.69" cy="543.48" r="9.61" fill="rgb(65,111,173)" fill-opacity="0.75" stroke="#1e4f7d" stroke-width="0.6"/>
<circle cx="526.69" cy="584.67" r="9.71" fill="rgb(64,110,172)" fill-opacity="0.76" stroke="#1e4f7d" stroke-width="0.6"/>
<circle cx="481.77" cy="543.48" r="9.74" fill="rgb(64,110,172)" fill-opacity="0.76" stroke="#1e4f7d" stroke-width="0.6"/>
<circle cx="414.40" cy="584.67" r="9.79" fill="rgb(64,109,171)" fill-opacity="0.76" stroke="#1e4f7d" stroke-width="0.6"/>
<circle cx="391.94" cy="646.44" r="9.86" fill="rgb(63,109,171)" fill-opacity="0.77" stroke="#1e4f7d" stroke-width="0.6"/>
<circle cx="391.94" cy="605.26" r="9.92" fill="rgb(62,108,170)" fill-opacity="0.77" stroke="#1e4f7d" stroke-width="0.6"/>
<circle cx="369.49" cy="646.44" r="10.03" fill="rgb(61,107,169)" fill-opacity="0.78" stroke="#1e4f7d" stroke-width="0.6"/>
<circle cx="459.31" cy="625.85" r="10.05" fill="rgb(61,107,169)" fill-opacity="0.78" stroke="#1e4f7d" stroke-width="0.6"/>
<circle cx="369.49" cy="625.85" r="10.07" fill="rgb(61,106,169)" fill-opacity="0.78" stroke="#1e4f7d" stroke-width="0.6"/>
<circle cx="526.69" cy="564.07" r="10.10" fill="rgb(60,106,169)" fill-opacity="0.78" stroke="#1e4f7d" stroke-width="0.6"/>
<circle cx="504.23" cy="543.48" r="10.11" fill="rgb(60,106,169)" fill-opacity="0.78" stroke="#1e4f7d" stroke-width="0.6"/>
<circle cx="504.23" cy="605.26" r="10.14" fill="rgb(60,106,168)" fill-opacity="0.78" stroke="#1e4f7d" stroke-width="0.6"/>
<circle cx="459.31" cy="564.07" r="10.26" fill="rgb(59,104,167)" fill-opacity="0.79" stroke="#1e4f7d" stroke-width="0.6"/>
<circle cx="391.94" cy="625.85" r="10.31" fill="rgb(58,104,167)" fill-opacity="0.80" stroke="#1e4f7d" stroke-width="0.6"/>
<circle cx="436.86" cy="625.85" r="10.44" fill="rgb(57,103,166)" fill-opacity="0.80" stroke="#1e4f7d" stroke-width="0.6"/>
<circle cx="436.86" cy="584.67" r="10.54" fill="rgb(56,102,165)" fill-opacity="0.81" stroke="#1e4f7d" stroke-width="0.6"/>
<circle cx="414.40" cy="605.26" r="10.59" fill="rgb(56,101,165)" fill-opacity="0.81" stroke="#1e4f7d" stroke-width="0.6"/>
<circle cx="414.40" cy="625.85" r="10.60" fill="rgb(55,101,164)" fill-opacity="0.81" stroke="#1e4f7d" stroke-width="0.6"/>
<circle cx="481.77" cy="605.26" r="10.71" fill="rgb(54,100,164)" fill-opacity="0.82" stroke="#1e4f7d" stroke-width="0.6"/>
<circle cx="504.23" cy="564.07" r="10.85" fill="rgb(53,98,162)" fill-opacity="0.83" stroke="#1e4f7d" stroke-width="0.6"/>
<circle cx="481.77" cy="564.07" r="10.86" fill="rgb(53,98,162)" fill-opacity="0.83" stroke="#1e4f7d" stroke-width="0.6"/>
<circle cx="436.86" cy="605.26" r="10.97" fill="rgb(52,97,161)" fill-opacity="0.84" stroke="#1e4f7d" stroke-width="0.6"/>
<circle cx="504.23" cy="584.67" r="10.98" fill="rgb(52,97,161)" fill-opacity="0.84" stroke="#1e4f7d" stroke-width="0.6"/>
<circle cx="459.31" cy="605.26" r="10.99" fill="rgb(52,97,161)" fill-opacity="0.84" stroke="#1e4f7d" stroke-width="0.6"/>
<circle cx="459.31" cy="584.67" r="11.04" fill="rgb(51,96,161)" fill-opacity="0.84" stroke="#1e4f7d" stroke-width="0.6"/>
<circle cx="481.77" cy="584.67" r="11.20" fill="rgb(50,95,160)" fill-opacity="0.85" stroke="#1e4f7d" stroke-width="0.6"/>
<text x="493.0" y="828" text-anchor="middle" font-size="16" font-family="Arial">Number of nodes (heavy atoms + polar H) per molecule</text>
<text x="34" y="492.0" text-anchor="middle" font-size="16" font-family="Arial" transform="rotate(-90 34 492.0)">Graph diameter (longest shortest path)</text>
<text x="493.0" y="62" text-anchor="middle" font-size="13" font-family="Arial">Node-count marginal distribution</text>
<text x="985.0" y="206" text-anchor="middle" font-size="13" font-family="Arial">Graph-diameter marginal distribution</text>
<text x="110" y="236" text-anchor="start" font-size="12" font-family="Arial" fill="#555">Dashed lines: means (15.49, 8.43)</text>
<text x="110" y="254" text-anchor="start" font-size="12" font-family="Arial" fill="#555">Bubble size/color: frequency of each pair</text>
</svg>