<svg xmlns="http://www.w3.org/2000/svg" width="1100" height="860" viewBox="0 0 1100 860">
<rect x="0" y="0" width="100%" height="100%" fill="white"/>
<text x="550" y="36" text-anchor="middle" font-size="24" font-family="Arial">2-hop Edges vs Heavy Atoms (10000 Random Molecules)</text>
<rect x="100" y="214" width="786" height="556" fill="white" stroke="#222" stroke-width="2"/>
<rect x="100" y="70" width="786" height="120" fill="white" stroke="#222" stroke-width="1.5"/>
<rect x="910" y="214" width="150" height="556" fill="white" stroke="#222" stroke-width="1.5"/>
<line x1="100.00" y1="214" x2="100.00" y2="770" stroke="#e0e0e0" stroke-width="1"/>
<text x="100.00" y="792" text-anchor="middle" font-size="11" font-family="Arial">0</text>
<line x1="198.25" y1="214" x2="198.25" y2="770" stroke="#e0e0e0" stroke-width="1"/>
<text x="198.25" y="792" text-anchor="middle" font-size="11" font-family="Arial">4</text>
<line x1="296.50" y1="214" x2="296.50" y2="770" stroke="#e0e0e0" stroke-width="1"/>
<text x="296.50" y="792" text-anchor="middle" font-size="11" font-family="Arial">8</text>
<line x1="394.75" y1="214" x2="394.75" y2="770" stroke="#e0e0e0" stroke-width="1"/>
<text x="394.75" y="792" text-anchor="middle" font-size="11" font-family="Arial">12</text>
<line x1="493.00" y1="214" x2="493.00" y2="770" stroke="#e0e0e0" stroke-width="1"/>
<text x="493.00" y="792" text-anchor="middle" font-size="11" font-family="Arial">16</text>
<line x1="591.25" y1="214" x2="591.25" y2="770" stroke="#e0e0e0" stroke-width="1"/>
<text x="591.25" y="792" text-anchor="middle" font-size="11" font-family="Arial">20</text>
<line x1="689.50" y1="214" x2="689.50" y2="770" stroke="#e0e0e0" stroke-width="1"/>
<text x="689.50" y="792" text-anchor="middle" font-size="11" font-family="Arial">24</text>
<line x1="787.75" y1="214" x2="787.75" y2="770" stroke="#e0e0e0" stroke-width="1"/>
<text x="787.75" y="792" text-anchor="middle" font-size="11" font-family="Arial">28</text>
<line x1="886.00" y1="214" x2="886.00" y2="770" stroke="#e0e0e0" stroke-width="1"/>
<text x="886.00" y="792" text-anchor="middle" font-size="11" font-family="Arial">32</text>
<line x1="100" y1="770.00" x2="886" y2="770.00" stroke="#e0e0e0" stroke-width="1"/>
<text x="88" y="774.00" text-anchor="end" font-size="11" font-family="Arial">0</text>
<line x1="100" y1="695.15" x2="886" y2="695.15" stroke="#e0e0e0" stroke-width="1"/>
<text x="88" y="699.15" text-anchor="end" font-size="11" font-family="Arial">7</text>
<line x1="100" y1="620.31" x2="886" y2="620.31" stroke="#e0e0e0" stroke-width="1"/>
<text x="88" y="624.31" text-anchor="end" font-size="11" font-family="Arial">14</text>
<line x1="100" y1="545.46" x2="886" y2="545.46" stroke="#e0e0e0" stroke-width="1"/>
<text x="88" y="549.46" text-anchor="end" font-size="11" font-family="Arial">21</text>
<line x1="100" y1="470.62" x2="886" y2="470.62" stroke="#e0e0e0" stroke-width="1"/>
<text x="88" y="474.62" text-anchor="end" font-size="11" font-family="Arial">28</text>
<line x1="100" y1="395.77" x2="886" y2="395.77" stroke="#e0e0e0" stroke-width="1"/>
<text x="88" y="399.77" text-anchor="end" font-size="11" font-family="Arial">35</text>
<line x1="100" y1="320.92" x2="886" y2="320.92" stroke="#e0e0e0" stroke-width="1"/>
<text x="88" y="324.92" text-anchor="end" font-size="11" font-family="Arial">42</text>
<line x1="100" y1="246.08" x2="886" y2="246.08" stroke="#e0e0e0" stroke-width="1"/>
<text x="88" y="250.08" text-anchor="end" font-size="11" font-family="Arial">49</text>
<line x1="100" y1="214.00" x2="886" y2="214.00" stroke="#e0e0e0" stroke-width="1"/>
<text x="88" y="218.00" text-anchor="end" font-size="11" font-family="Arial">52</text>
<line x1="447.71" y1="214" x2="447.71" y2="770" stroke="#555" stroke-width="1.5" stroke-dasharray="6,5"/>
<line x1="100" y1="542.95" x2="886" y2="542.95" stroke="#555" stroke-width="1.5" stroke-dasharray="6,5"/>
<rect x="101.50" y="190.00" width="20.82" height="0.00" fill="#4c78a8"/>
<rect x="125.32" y="190.00" width="20.82" height="0.00" fill="#4c78a8"/>
<rect x="149.14" y="190.00" width="20.82" height="0.00" fill="#4c78a8"/>
<rect x="172.95" y="189.69" width="20.82" height="0.31" fill="#4c78a8"/>
<rect x="196.77" y="189.94" width="20.82" height="0.06" fill="#4c78a8"/>
<rect x="220.59" y="189.06" width="20.82" height="0.94" fill="#4c78a8"/>
<rect x="244.41" y="187.80" width="20.82" height="2.20" fill="#4c78a8"/>
<rect x="268.23" y="184.47" width="20.82" height="5.53" fill="#4c78a8"/>
<rect x="292.05" y="179.18" width="20.82" height="10.82" fill="#4c78a8"/>
<rect x="315.86" y="174.09" width="20.82" height="15.91" fill="#4c78a8"/>
<rect x="339.68" y="163.71" width="20.82" height="26.29" fill="#4c78a8"/>
<rect x="363.50" y="152.58" width="20.82" height="37.42" fill="#4c78a8"/>
<rect x="387.32" y="138.43" width="20.82" height="51.57" fill="#4c78a8"/>
<rect x="411.14" y="123.46" width="20.82" height="66.54" fill="#4c78a8"/>
<rect x="434.95" y="99.56" width="20.82" height="90.44" fill="#4c78a8"/>
<rect x="458.77" y="90.88" width="20.82" height="99.12" fill="#4c78a8"/>
<rect x="482.59" y="80.00" width="20.82" height="110.00" fill="#4c78a8"/>
<rect x="506.41" y="97.17" width="20.82" height="92.83" fill="#4c78a8"/>
<rect x="530.23" y="177.67" width="20.82" height="12.33" fill="#4c78a8"/>
<rect x="554.05" y="189.25" width="20.82" height="0.75" fill="#4c78a8"/>
<rect x="577.86" y="187.86" width="20.82" height="2.14" fill="#4c78a8"/>
<rect x="601.68" y="189.18" width="20.82" height="0.82" fill="#4c78a8"/>
<rect x="625.50" y="188.99" width="20.82" height="1.01" fill="#4c78a8"/>
<rect x="649.32" y="189.50" width="20.82" height="0.50" fill="#4c78a8"/>
<rect x="673.14" y="189.62" width="20.82" height="0.38" fill="#4c78a8"/>
<rect x="696.95" y="189.62" width="20.82" height="0.38" fill="#4c78a8"/>
<rect x="720.77" y="189.87" width="20.82" height="0.13" fill="#4c78a8"/>
<rect x="744.59" y="189.87" width="20.82" height="0.13" fill="#4c78a8"/>
<rect x="768.41" y="189.81" width="20.82" height="0.19" fill="#4c78a8"/>
<rect x="792.23" y="190.00" width="20.82" height="0.00" fill="#4c78a8"/>
<rect x="816.05" y="189.94" width="20.82" height="0.06" fill="#4c78a8"/>
<rect x="839.86" y="190.00" width="20.82" height="0.00" fill="#4c78a8"/>
<rect x="863.68" y="189.87" width="20.82" height="0.13" fill="#4c78a8"/>
<rect x="910" y="761.01" width="0.00" height="7.49" fill="#b279a2"/>
<rect x="910" y="750.52" width="0.51" height="7.49" fill="#b279a2"/>
<rect x="910" y="740.03" width="0.00" height="7.49" fill="#b279a2"/>
<rect x="910" y="729.54" width="0.17" height="7.49" fill="#b279a2"/>
<rect x="910" y="719.05" width="1.19" height="7.49" fill="#b279a2"/>
<rect x="910" y="708.56" width="2.55" height="7.49" fill="#b279a2"/>
<rect x="910" y="698.07" width="4.08" height="7.49" fill="#b279a2"/>
<rect x="910" y="687.58" width="5.61" height="7.49" fill="#b279a2"/>
<rect x="910" y="677.08" width="10.21" height="7.49" fill="#b279a2"/>
<rect x="910" y="666.59" width="11.23" height="7.49" fill="#b279a2"/>
<rect x="910" y="656.10" width="14.80" height="7.49" fill="#b279a2"/>
<rect x="910" y="645.61" width="21.09" height="7.49" fill="#b279a2"/>
<rect x="910" y="635.12" width="28.24" height="7.49" fill="#b279a2"/>
<rect x="910" y="624.63" width="36.40" height="7.49" fill="#b279a2"/>
<rect x="910" y="614.14" width="41.34" height="7.49" fill="#b279a2"/>
<rect x="910" y="603.65" width="58.18" height="7.49" fill="#b279a2"/>
<rect x="910" y="593.16" width="64.13" height="7.49" fill="#b279a2"/>
<rect x="910" y="582.67" width="77.91" height="7.49" fill="#b279a2"/>
<rect x="910" y="572.18" width="100.36" height="7.49" fill="#b279a2"/>
<rect x="910" y="561.69" width="99.51" height="7.49" fill="#b279a2"/>
<rect x="910" y="551.20" width="118.91" height="7.49" fill="#b279a2"/>
<rect x="910" y="540.71" width="133.88" height="7.49" fill="#b279a2"/>
<rect x="910" y="530.22" width="129.62" height="7.49" fill="#b279a2"/>
<rect x="910" y="519.73" width="135.92" height="7.49" fill="#b279a2"/>
<rect x="910" y="509.24" width="140.00" height="7.49" fill="#b279a2"/>
<rect x="910" y="498.75" width="121.46" height="7.49" fill="#b279a2"/>
<rect x="910" y="488.25" width="107.00" height="7.49" fill="#b279a2"/>
<rect x="910" y="477.76" width="85.57" height="7.49" fill="#b279a2"/>
<rect x="910" y="467.27" width="52.05" height="7.49" fill="#b279a2"/>
<rect x="910" y="456.78" width="39.13" height="7.49" fill="#b279a2"/>
<rect x="910" y="446.29" width="24.84" height="7.49" fill="#b279a2"/>
<rect x="910" y="435.80" width="13.78" height="7.49" fill="#b279a2"/>
<rect x="910" y="425.31" width="7.31" height="7.49" fill="#b279a2"/>
<rect x="910" y="414.82" width="3.74" height="7.49" fill="#b279a2"/>
<rect x="910" y="404.33" width="2.21" height="7.49" fill="#b279a2"/>
<rect x="910" y="393.84" width="2.55" height="7.49" fill="#b279a2"/>
<rect x="910" y="383.35" width="1.36" height="7.49" fill="#b279a2"/>
<rect x="910" y="372.86" width="1.53" height="7.49" fill="#b279a2"/>
<rect x="910" y="362.37" width="0.34" height="7.49" fill="#b279a2"/>
<rect x="910" y="351.88" width="0.51" height="7.49" fill="#b279a2"/>
<rect x="910" y="341.39" width="0.51" height="7.49" fill="#b279a2"/>
<rect x="910" y="330.90" width="0.17" height="7.49" fill="#b279a2"/>
<rect x="910" y="320.41" width="0.00" height="7.49" fill="#b279a2"/>
<rect x="910" y="309.92" width="0.00" height="7.49" fill="#b279a2"/>
<rect x="910" y="299.42" width="0.00" height="7.49" fill="#b279a2"/>
<rect x="910" y="288.93" width="0.00" height="7.49" fill="#b279a2"/>
<rect x="910" y="278.44" width="0.00" height="7.49" fill="#b279a2"/>
<rect x="910" y="267.95" width="0.34" height="7.49" fill="#b279a2"/>
<rect x="910" y="257.46" width="0.34" height="7.49" fill="#b279a2"/>
<rect x="910" y="246.97" width="0.17" height="7.49" fill="#b279a2"/>
<rect x="910" y="236.48" width="0.17" height="7.49" fill="#b279a2"/>
<rect x="910" y="225.99" width="0.00" height="7.49" fill="#b279a2"/>
<rect x="910" y="215.50" width="0.17" height="7.49" fill="#b279a2"/>
<circle cx="443.88" cy="438.54" r="3.30" fill="rgb(155,195,234)" fill-opacity="0.37" stroke="#2a5c8a" stroke-width="0.6"/>
<circle cx="591.25" cy="502.69" r="3.30" fill="rgb(155,195,234)" fill-opacity="0.37" stroke="#2a5c8a" stroke-width="0.6"/>
<circle cx="591.25" cy="556.15" r="3.30" fill="rgb(155,195,234)" fill-opacity="0.37" stroke="#2a5c8a" stroke-width="0.6"/>
<circle cx="566.69" cy="374.38" r="3.30" fill="rgb(155,195,234)" fill-opacity="0.37" stroke="#2a5c8a" stroke-width="0.6"/>
<circle cx="566.69" cy="417.15" r="3.30" fill="rgb(155,195,234)" fill-opacity="0.37" stroke="#2a5c8a" stroke-width="0.6"/>
<circle cx="566.69" cy="438.54" r="3.30" fill="rgb(155,195,234)" fill-opacity="0.37" stroke="#2a5c8a" stroke-width="0.6"/>
<circle cx="566.69" cy="449.23" r="3.30" fill="rgb(155,195,234)" fill-opacity="0.37" stroke="#2a5c8a" stroke-width="0.6"/>
<circle cx="566.69" cy="459.92" r="3.30" fill="rgb(155,195,234)" fill-opacity="0.37" stroke="#2a5c8a" stroke-width="0.6"/>
<circle cx="566.69" cy="481.31" r="3.30" fill="rgb(155,195,234)" fill-opacity="0.37" stroke="#2a5c8a" stroke-width="0.6"/>
<circle cx="566.69" cy="492.00" r="3.30" fill="rgb(155,195,234)" fill-opacity="0.37" stroke="#2a5c8a" stroke-width="0.6"/>
<circle cx="566.69" cy="524.08" r="3.30" fill="rgb(155,195,234)" fill-opacity="0.37" stroke="#2a5c8a" stroke-width="0.6"/>
<circle cx="542.12" cy="363.69" r="3.30" fill="rgb(155,195,234)" fill-opacity="0.37" stroke="#2a5c8a" stroke-width="0.6"/>
<circle cx="542.12" cy="534.77" r="3.30" fill="rgb(155,195,234)" fill-opacity="0.37" stroke="#2a5c8a" stroke-width="0.6"/>
<circle cx="517.56" cy="395.77" r="3.30" fill="rgb(155,195,234)" fill-opacity="0.37" stroke="#2a5c8a" stroke-width="0.6"/>
<circle cx="493.00" cy="406.46" r="3.30" fill="rgb(155,195,234)" fill-opacity="0.37" stroke="#2a5c8a" stroke-width="0.6"/>
<circle cx="493.00" cy="417.15" r="3.30" fill="rgb(155,195,234)" fill-opacity="0.37" stroke="#2a5c8a" stroke-width="0.6"/>
<circle cx="493.00" cy="609.62" r="3.30" fill="rgb(155,195,234)" fill-opacity="0.37" stroke="#2a5c8a" stroke-width="0.6"/>
<circle cx="468.44" cy="385.08" r="3.30" fill="rgb(155,195,234)" fill-opacity="0.37" stroke="#2a5c8a" stroke-width="0.6"/>
<circle cx="468.44" cy="631.00" r="3.30" fill="rgb(155,195,234)" fill-opacity="0.37" stroke="#2a5c8a" stroke-width="0.6"/>
<circle cx="886.00" cy="235.38" r="3.30" fill="rgb(155,195,234)" fill-opacity="0.37" stroke="#2a5c8a" stroke-width="0.6"/>
<circle cx="419.31" cy="438.54" r="3.30" fill="rgb(155,195,234)" fill-opacity="0.37" stroke="#2a5c8a" stroke-width="0.6"/>
<circle cx="419.31" cy="449.23" r="3.30" fill="rgb(155,195,234)" fill-opacity="0.37" stroke="#2a5c8a" stroke-width="0.6"/>
<circle cx="419.31" cy="459.92" r="3.30" fill="rgb(155,195,234)" fill-opacity="0.37" stroke="#2a5c8a" stroke-width="0.6"/>
<circle cx="370.19" cy="524.08" r="3.30" fill="rgb(155,195,234)" fill-opacity="0.37" stroke="#2a5c8a" stroke-width="0.6"/>
<circle cx="591.25" cy="385.08" r="3.30" fill="rgb(155,195,234)" fill-opacity="0.37" stroke="#2a5c8a" stroke-width="0.6"/>
<circle cx="591.25" cy="353.00" r="3.30" fill="rgb(155,195,234)" fill-opacity="0.37" stroke="#2a5c8a" stroke-width="0.6"/>
<circle cx="591.25" cy="342.31" r="3.30" fill="rgb(155,195,234)" fill-opacity="0.37" stroke="#2a5c8a" stroke-width="0.6"/>
<circle cx="615.81" cy="449.23" r="3.30" fill="rgb(155,195,234)" fill-opacity="0.37" stroke="#2a5c8a" stroke-width="0.6"/>
<circle cx="836.88" cy="256.77" r="3.30" fill="rgb(155,195,234)" fill-opacity="0.37" stroke="#2a5c8a" stroke-width="0.6"/>
<circle cx="787.75" cy="449.23" r="3.30" fill="rgb(155,195,234)" fill-opacity="0.37" stroke="#2a5c8a" stroke-width="0.6"/>
<circle cx="787.75" cy="470.62" r="3.30" fill="rgb(155,195,234)" fill-opacity="0.37" stroke="#2a5c8a" stroke-width="0.6"/>
<circle cx="787.75" cy="492.00" r="3.30" fill="rgb(155,195,234)" fill-opacity="0.37" stroke="#2a5c8a" stroke-width="0.6"/>
<circle cx="763.19" cy="267.46" r="3.30" fill="rgb(155,195,234)" fill-opacity="0.37" stroke="#2a5c8a" stroke-width="0.6"/>
<circle cx="763.19" cy="353.00" r="3.30" fill="rgb(155,195,234)" fill-opacity="0.37" stroke="#2a5c8a" stroke-width="0.6"/>
<circle cx="738.62" cy="267.46" r="3.30" fill="rgb(155,195,234)" fill-opacity="0.37" stroke="#2a5c8a" stroke-width="0.6"/>
<circle cx="738.62" cy="470.62" r="3.30" fill="rgb(155,195,234)" fill-opacity="0.37" stroke="#2a5c8a" stroke-width="0.6"/>
<circle cx="714.06" cy="374.38" r="3.30" fill="rgb(155,195,234)" fill-opacity="0.37" stroke="#2a5c8a" stroke-width="0.6"/>
<circle cx="714.06" cy="417.15" r="3.30" fill="rgb(155,195,234)" fill-opacity="0.37" stroke="#2a5c8a" stroke-width="0.6"/>
<circle cx="689.50" cy="246.08" r="3.30" fill="rgb(155,195,234)" fill-opacity="0.37" stroke="#2a5c8a" stroke-width="0.6"/>
<circle cx="345.62" cy="502.69" r="3.30" fill="rgb(155,195,234)" fill-opacity="0.37" stroke="#2a5c8a" stroke-width="0.6"/>
<circle cx="689.50" cy="331.62" r="3.30" fill="rgb(155,195,234)" fill-opacity="0.37" stroke="#2a5c8a" stroke-width="0.6"/>
<circle cx="689.50" cy="395.77" r="3.30" fill="rgb(155,195,234)" fill-opacity="0.37" stroke="#2a5c8a" stroke-width="0.6"/>
<circle cx="664.94" cy="363.69" r="3.30" fill="rgb(155,195,234)" fill-opacity="0.37" stroke="#2a5c8a" stroke-width="0.6"/>
<circle cx="664.94" cy="374.38" r="3.30" fill="rgb(155,195,234)" fill-opacity="0.37" stroke="#2a5c8a" stroke-width="0.6"/>
<circle cx="664.94" cy="395.77" r="3.30" fill="rgb(155,195,234)" fill-opacity="0.37" stroke="#2a5c8a" stroke-width="0.6"/>
<circle cx="664.94" cy="438.54" r="3.30" fill="rgb(155,195,234)" fill-opacity="0.37" stroke="#2a5c8a" stroke-width="0.6"/>
<circle cx="664.94" cy="449.23" r="3.30" fill="rgb(155,195,234)" fill-opacity="0.37" stroke="#2a5c8a" stroke-width="0.6"/>
<circle cx="640.38" cy="256.77" r="3.30" fill="rgb(155,195,234)" fill-opacity="0.37" stroke="#2a5c8a" stroke-width="0.6"/>
<circle cx="640.38" cy="353.00" r="3.30" fill="rgb(155,195,234)" fill-opacity="0.37" stroke="#2a5c8a" stroke-width="0.6"/>
<circle cx="640.38" cy="385.08" r="3.30" fill="rgb(155,195,234)" fill-opacity="0.37" stroke="#2a5c8a" stroke-width="0.6"/>
<circle cx="640.38" cy="438.54" r="3.30" fill="rgb(155,195,234)" fill-opacity="0.37" stroke="#2a5c8a" stroke-width="0.6"/>
<circle cx="615.81" cy="427.85" r="3.30" fill="rgb(155,195,234)" fill-opacity="0.37" stroke="#2a5c8a" stroke-width="0.6"/>
<circle cx="689.50" cy="385.08" r="3.30" fill="rgb(155,195,234)" fill-opacity="0.37" stroke="#2a5c8a" stroke-width="0.6"/>
<circle cx="345.62" cy="534.77" r="3.30" fill="rgb(155,195,234)" fill-opacity="0.37" stroke="#2a5c8a" stroke-width="0.6"/>
<circle cx="886.00" cy="214.00" r="3.30" fill="rgb(155,195,234)" fill-opacity="0.37" stroke="#2a5c8a" stroke-width="0.6"/>
<circle cx="173.69" cy="727.23" r="3.30" fill="rgb(155,195,234)" fill-opacity="0.37" stroke="#2a5c8a" stroke-width="0.6"/>
<circle cx="173.69" cy="716.54" r="3.30" fill="rgb(155,195,234)" fill-opacity="0.37" stroke="#2a5c8a" stroke-width="0.6"/>
<circle cx="198.25" cy="737.92" r="3.30" fill="rgb(155,195,234)" fill-opacity="0.37" stroke="#2a5c8a" stroke-width="0.6"/>
<circle cx="247.38" cy="652.38" r="3.30" fill="rgb(155,195,234)" fill-opacity="0.37" stroke="#2a5c8a" stroke-width="0.6"/>
<circle cx="296.50" cy="577.54" r="3.30" fill="rgb(155,195,234)" fill-opacity="0.37" stroke="#2a5c8a" stroke-width="0.6"/>
<circle cx="222.81" cy="684.46" r="3.30" fill="rgb(155,195,234)" fill-opacity="0.37" stroke="#2a5c8a" stroke-width="0.6"/>
<circle cx="296.50" cy="566.85" r="3.30" fill="rgb(155,195,234)" fill-opacity="0.37" stroke="#2a5c8a" stroke-width="0.6"/>
<circle cx="345.62" cy="684.46" r="3.30" fill="rgb(155,195,234)" fill-opacity="0.37" stroke="#2a5c8a" stroke-width="0.6"/>
<circle cx="321.06" cy="566.85" r="3.30" fill="rgb(155,195,234)" fill-opacity="0.37" stroke="#2a5c8a" stroke-width="0.6"/>
<circle cx="566.69" cy="470.62" r="3.94" fill="rgb(146,187,228)" fill-opacity="0.41" stroke="#2a5c8a" stroke-width="0.6"/>
<circle cx="615.81" cy="342.31" r="3.94" fill="rgb(146,187,228)" fill-opacity="0.41" stroke="#2a5c8a" stroke-width="0.6"/>
<circle cx="640.38" cy="449.23" r="3.94" fill="rgb(146,187,228)" fill-opacity="0.41" stroke="#2a5c8a" stroke-width="0.6"/>
<circle cx="296.50" cy="598.92" r="3.94" fill="rgb(146,187,228)" fill-opacity="0.41" stroke="#2a5c8a" stroke-width="0.6"/>
<circle cx="419.31" cy="470.62" r="3.94" fill="rgb(146,187,228)" fill-opacity="0.41" stroke="#2a5c8a" stroke-width="0.6"/>
<circle cx="247.38" cy="641.69" r="3.94" fill="rgb(146,187,228)" fill-opacity="0.41" stroke="#2a5c8a" stroke-width="0.6"/>
<circle cx="566.69" cy="395.77" r="3.94" fill="rgb(146,187,228)" fill-opacity="0.41" stroke="#2a5c8a" stroke-width="0.6"/>
<circle cx="443.88" cy="427.85" r="3.94" fill="rgb(146,187,228)" fill-opacity="0.41" stroke="#2a5c8a" stroke-width="0.6"/>
<circle cx="591.25" cy="417.15" r="3.94" fill="rgb(146,187,228)" fill-opacity="0.41" stroke="#2a5c8a" stroke-width="0.6"/>
<circle cx="591.25" cy="524.08" r="3.94" fill="rgb(146,187,228)" fill-opacity="0.41" stroke="#2a5c8a" stroke-width="0.6"/>
<circle cx="394.75" cy="481.31" r="3.94" fill="rgb(146,187,228)" fill-opacity="0.41" stroke="#2a5c8a" stroke-width="0.6"/>
<circle cx="591.25" cy="427.85" r="3.94" fill="rgb(146,187,228)" fill-opacity="0.41" stroke="#2a5c8a" stroke-width="0.6"/>
<circle cx="689.50" cy="427.85" r="3.94" fill="rgb(146,187,228)" fill-opacity="0.41" stroke="#2a5c8a" stroke-width="0.6"/>
<circle cx="615.81" cy="374.38" r="3.94" fill="rgb(146,187,228)" fill-opacity="0.41" stroke="#2a5c8a" stroke-width="0.6"/>
<circle cx="542.12" cy="395.77" r="3.94" fill="rgb(146,187,228)" fill-opacity="0.41" stroke="#2a5c8a" stroke-width="0.6"/>
<circle cx="542.12" cy="374.38" r="3.94" fill="rgb(146,187,228)" fill-opacity="0.41" stroke="#2a5c8a" stroke-width="0.6"/>
<circle cx="222.81" cy="727.23" r="3.94" fill="rgb(146,187,228)" fill-opacity="0.41" stroke="#2a5c8a" stroke-width="0.6"/>
<circle cx="517.56" cy="598.92" r="3.94" fill="rgb(146,187,228)" fill-opacity="0.41" stroke="#2a5c8a" stroke-width="0.6"/>
<circle cx="517.56" cy="609.62" r="3.94" fill="rgb(146,187,228)" fill-opacity="0.41" stroke="#2a5c8a" stroke-width="0.6"/>
<circle cx="615.81" cy="438.54" r="3.94" fill="rgb(146,187,228)" fill-opacity="0.41" stroke="#2a5c8a" stroke-width="0.6"/>
<circle cx="517.56" cy="406.46" r="3.94" fill="rgb(146,187,228)" fill-opacity="0.41" stroke="#2a5c8a" stroke-width="0.6"/>
<circle cx="247.38" cy="673.77" r="3.94" fill="rgb(146,187,228)" fill-opacity="0.41" stroke="#2a5c8a" stroke-width="0.6"/>
<circle cx="517.56" cy="374.38" r="3.94" fill="rgb(146,187,228)" fill-opacity="0.41" stroke="#2a5c8a" stroke-width="0.6"/>
<circle cx="443.88" cy="641.69" r="3.94" fill="rgb(146,187,228)" fill-opacity="0.41" stroke="#2a5c8a" stroke-width="0.6"/>
<circle cx="714.06" cy="385.08" r="3.94" fill="rgb(146,187,228)" fill-opacity="0.41" stroke="#2a5c8a" stroke-width="0.6"/>
<circle cx="714.06" cy="395.77" r="3.94" fill="rgb(146,187,228)" fill-opacity="0.41" stroke="#2a5c8a" stroke-width="0.6"/>
<circle cx="615.81" cy="385.08" r="3.94" fill="rgb(146,187,228)" fill-opacity="0.41" stroke="#2a5c8a" stroke-width="0.6"/>
<circle cx="591.25" cy="470.62" r="3.94" fill="rgb(146,187,228)" fill-opacity="0.41" stroke="#2a5c8a" stroke-width="0.6"/>
<circle cx="542.12" cy="524.08" r="3.94" fill="rgb(146,187,228)" fill-opacity="0.41" stroke="#2a5c8a" stroke-width="0.6"/>
<circle cx="443.88" cy="631.00" r="4.40" fill="rgb(140,181,224)" fill-opacity="0.43" stroke="#2a5c8a" stroke-width="0.6"/>
<circle cx="615.81" cy="395.77" r="4.40" fill="rgb(140,181,224)" fill-opacity="0.43" stroke="#2a5c8a" stroke-width="0.6"/>
<circle cx="640.38" cy="417.15" r="4.40" fill="rgb(140,181,224)" fill-opacity="0.43" stroke="#2a5c8a" stroke-width="0.6"/>
<circle cx="271.94" cy="609.62" r="4.40" fill="rgb(140,181,224)" fill-opacity="0.43" stroke="#2a5c8a" stroke-width="0.6"/>
<circle cx="394.75" cy="492.00" r="4.40" fill="rgb(140,181,224)" fill-opacity="0.43" stroke="#2a5c8a" stroke-width="0.6"/>
<circle cx="591.25" cy="438.54" r="4.40" fill="rgb(140,181,224)" fill-opacity="0.43" stroke="#2a5c8a" stroke-width="0.6"/>
<circle cx="173.69" cy="759.31" r="4.40" fill="rgb(140,181,224)" fill-opacity="0.43" stroke="#2a5c8a" stroke-width="0.6"/>
<circle cx="640.38" cy="395.77" r="4.40" fill="rgb(140,181,224)" fill-opacity="0.43" stroke="#2a5c8a" stroke-width="0.6"/>
<circle cx="542.12" cy="406.46" r="4.40" fill="rgb(140,181,224)" fill-opacity="0.43" stroke="#2a5c8a" stroke-width="0.6"/>
<circle cx="247.38" cy="663.08" r="4.40" fill="rgb(140,181,224)" fill-opacity="0.43" stroke="#2a5c8a" stroke-width="0.6"/>
<circle cx="370.19" cy="513.38" r="4.40" fill="rgb(140,181,224)" fill-opacity="0.43" stroke="#2a5c8a" stroke-width="0.6"/>
<circle cx="468.44" cy="620.31" r="4.40" fill="rgb(140,181,224)" fill-opacity="0.43" stroke="#2a5c8a" stroke-width="0.6"/>
<circle cx="296.50" cy="588.23" r="4.40" fill="rgb(140,181,224)" fill-opacity="0.43" stroke="#2a5c8a" stroke-width="0.6"/>
<circle cx="591.25" cy="492.00" r="4.40" fill="rgb(140,181,224)" fill-opacity="0.43" stroke="#2a5c8a" stroke-width="0.6"/>
<circle cx="591.25" cy="481.31" r="4.40" fill="rgb(140,181,224)" fill-opacity="0.43" stroke="#2a5c8a" stroke-width="0.6"/>
<circle cx="664.94" cy="406.46" r="4.40" fill="rgb(140,181,224)" fill-opacity="0.43" stroke="#2a5c8a" stroke-width="0.6"/>
<circle cx="419.31" cy="492.00" r="4.40" fill="rgb(140,181,224)" fill-opacity="0.43" stroke="#2a5c8a" stroke-width="0.6"/>
<circle cx="296.50" cy="705.85" r="4.75" fill="rgb(135,177,220)" fill-opacity="0.46" stroke="#2a5c8a" stroke-width="0.6"/>
<circle cx="443.88" cy="449.23" r="4.75" fill="rgb(135,177,220)" fill-opacity="0.46" stroke="#2a5c8a" stroke-width="0.6"/>
<circle cx="591.25" cy="449.23" r="4.75" fill="rgb(135,177,220)" fill-opacity="0.46" stroke="#2a5c8a" stroke-width="0.6"/>
<circle cx="493.00" cy="598.92" r="4.75" fill="rgb(135,177,220)" fill-opacity="0.46" stroke="#2a5c8a" stroke-width="0.6"/>
<circle cx="493.00" cy="588.23" r="4.75" fill="rgb(135,177,220)" fill-opacity="0.46" stroke="#2a5c8a" stroke-width="0.6"/>
<circle cx="493.00" cy="427.85" r="4.75" fill="rgb(135,177,220)" fill-opacity="0.46" stroke="#2a5c8a" stroke-width="0.6"/>
<circle cx="517.56" cy="588.23" r="4.75" fill="rgb(135,177,220)" fill-opacity="0.46" stroke="#2a5c8a" stroke-width="0.6"/>
<circle cx="517.56" cy="566.85" r="4.75" fill="rgb(135,177,220)" fill-opacity="0.46" stroke="#2a5c8a" stroke-width="0.6"/>
<circle cx="517.56" cy="577.54" r="4.75" fill="rgb(135,177,220)" fill-opacity="0.46" stroke="#2a5c8a" stroke-width="0.6"/>
<circle cx="640.38" cy="406.46" r="4.75" fill="rgb(135,177,220)" fill-opacity="0.46" stroke="#2a5c8a" stroke-width="0.6"/>
<circle cx="222.81" cy="716.54" r="4.75" fill="rgb(135,177,220)" fill-opacity="0.46" stroke="#2a5c8a" stroke-width="0.6"/>
<circle cx="247.38" cy="727.23" r="4.75" fill="rgb(135,177,220)" fill-opacity="0.46" stroke="#2a5c8a" stroke-width="0.6"/>
<circle cx="370.19" cy="673.77" r="4.75" fill="rgb(135,177,220)" fill-opacity="0.46" stroke="#2a5c8a" stroke-width="0.6"/>
<circle cx="370.19" cy="534.77" r="5.04" fill="rgb(132,173,218)" fill-opacity="0.47" stroke="#2a5c8a" stroke-width="0.6"/>
<circle cx="271.94" cy="716.54" r="5.04" fill="rgb(132,173,218)" fill-opacity="0.47" stroke="#2a5c8a" stroke-width="0.6"/>
<circle cx="271.94" cy="705.85" r="5.04" fill="rgb(132,173,218)" fill-opacity="0.47" stroke="#2a5c8a" stroke-width="0.6"/>
<circle cx="247.38" cy="684.46" r="5.04" fill="rgb(132,173,218)" fill-opacity="0.47" stroke="#2a5c8a" stroke-width="0.6"/>
<circle cx="443.88" cy="459.92" r="5.04" fill="rgb(132,173,218)" fill-opacity="0.47" stroke="#2a5c8a" stroke-width="0.6"/>
<circle cx="542.12" cy="417.15" r="5.04" fill="rgb(132,173,218)" fill-opacity="0.47" stroke="#2a5c8a" stroke-width="0.6"/>
<circle cx="468.44" cy="449.23" r="5.04" fill="rgb(132,173,218)" fill-opacity="0.47" stroke="#2a5c8a" stroke-width="0.6"/>
<circle cx="296.50" cy="609.62" r="5.04" fill="rgb(132,173,218)" fill-opacity="0.47" stroke="#2a5c8a" stroke-width="0.6"/>
<circle cx="394.75" cy="663.08" r="5.04" fill="rgb(132,173,218)" fill-opacity="0.47" stroke="#2a5c8a" stroke-width="0.6"/>
<circle cx="394.75" cy="502.69" r="5.04" fill="rgb(132,173,218)" fill-opacity="0.47" stroke="#2a5c8a" stroke-width="0.6"/>
<circle cx="247.38" cy="716.54" r="5.04" fill="rgb(132,173,218)" fill-opacity="0.47" stroke="#2a5c8a" stroke-width="0.6"/>
<circle cx="271.94" cy="631.00" r="5.04" fill="rgb(132,173,218)" fill-opacity="0.47" stroke="#2a5c8a" stroke-width="0.6"/>
<circle cx="468.44" cy="609.62" r="5.29" fill="rgb(128,170,215)" fill-opacity="0.49" stroke="#2a5c8a" stroke-width="0.6"/>
<circle cx="419.31" cy="641.69" r="5.29" fill="rgb(128,170,215)" fill-opacity="0.49" stroke="#2a5c8a" stroke-width="0.6"/>
<circle cx="345.62" cy="545.46" r="5.29" fill="rgb(128,170,215)" fill-opacity="0.49" stroke="#2a5c8a" stroke-width="0.6"/>
<circle cx="247.38" cy="695.15" r="5.29" fill="rgb(128,170,215)" fill-opacity="0.49" stroke="#2a5c8a" stroke-width="0.6"/>
<circle cx="271.94" cy="641.69" r="5.29" fill="rgb(128,170,215)" fill-opacity="0.49" stroke="#2a5c8a" stroke-width="0.6"/>
<circle cx="370.19" cy="663.08" r="5.50" fill="rgb(126,167,213)" fill-opacity="0.50" stroke="#2a5c8a" stroke-width="0.6"/>
<circle cx="271.94" cy="652.38" r="5.50" fill="rgb(126,167,213)" fill-opacity="0.50" stroke="#2a5c8a" stroke-width="0.6"/>
<circle cx="394.75" cy="652.38" r="5.50" fill="rgb(126,167,213)" fill-opacity="0.50" stroke="#2a5c8a" stroke-width="0.6"/>
<circle cx="247.38" cy="705.85" r="5.50" fill="rgb(126,167,213)" fill-opacity="0.50" stroke="#2a5c8a" stroke-width="0.6"/>
<circle cx="394.75" cy="513.38" r="5.50" fill="rgb(126,167,213)" fill-opacity="0.50" stroke="#2a5c8a" stroke-width="0.6"/>
<circle cx="222.81" cy="705.85" r="5.68" fill="rgb(123,165,212)" fill-opacity="0.51" stroke="#2a5c8a" stroke-width="0.6"/>
<circle cx="591.25" cy="459.92" r="5.68" fill="rgb(123,165,212)" fill-opacity="0.51" stroke="#2a5c8a" stroke-width="0.6"/>
<circle cx="468.44" cy="598.92" r="5.68" fill="rgb(123,165,212)" fill-opacity="0.51" stroke="#2a5c8a" stroke-width="0.6"/>
<circle cx="468.44" cy="438.54" r="5.68" fill="rgb(123,165,212)" fill-opacity="0.51" stroke="#2a5c8a" stroke-width="0.6"/>
<circle cx="345.62" cy="673.77" r="5.85" fill="rgb(121,163,210)" fill-opacity="0.52" stroke="#2a5c8a" stroke-width="0.6"/>
<circle cx="419.31" cy="481.31" r="5.85" fill="rgb(121,163,210)" fill-opacity="0.52" stroke="#2a5c8a" stroke-width="0.6"/>
<circle cx="517.56" cy="417.15" r="5.85" fill="rgb(121,163,210)" fill-opacity="0.52" stroke="#2a5c8a" stroke-width="0.6"/>
<circle cx="443.88" cy="620.31" r="5.85" fill="rgb(121,163,210)" fill-opacity="0.52" stroke="#2a5c8a" stroke-width="0.6"/>
<circle cx="443.88" cy="470.62" r="5.85" fill="rgb(121,163,210)" fill-opacity="0.52" stroke="#2a5c8a" stroke-width="0.6"/>
<circle cx="345.62" cy="566.85" r="6.00" fill="rgb(119,161,209)" fill-opacity="0.53" stroke="#2a5c8a" stroke-width="0.6"/>
<circle cx="271.94" cy="663.08" r="6.00" fill="rgb(119,161,209)" fill-opacity="0.53" stroke="#2a5c8a" stroke-width="0.6"/>
<circle cx="321.06" cy="588.23" r="6.00" fill="rgb(119,161,209)" fill-opacity="0.53" stroke="#2a5c8a" stroke-width="0.6"/>
<circle cx="542.12" cy="502.69" r="6.14" fill="rgb(117,159,207)" fill-opacity="0.54" stroke="#2a5c8a" stroke-width="0.6"/>
<circle cx="321.06" cy="577.54" r="6.14" fill="rgb(117,159,207)" fill-opacity="0.54" stroke="#2a5c8a" stroke-width="0.6"/>
<circle cx="493.00" cy="577.54" r="6.27" fill="rgb(115,158,206)" fill-opacity="0.55" stroke="#2a5c8a" stroke-width="0.6"/>
<circle cx="542.12" cy="513.38" r="6.27" fill="rgb(115,158,206)" fill-opacity="0.55" stroke="#2a5c8a" stroke-width="0.6"/>
<circle cx="443.88" cy="609.62" r="6.27" fill="rgb(115,158,206)" fill-opacity="0.55" stroke="#2a5c8a" stroke-width="0.6"/>
<circle cx="271.94" cy="695.15" r="6.27" fill="rgb(115,158,206)" fill-opacity="0.55" stroke="#2a5c8a" stroke-width="0.6"/>
<circle cx="394.75" cy="641.69" r="6.27" fill="rgb(115,158,206)" fill-opacity="0.55" stroke="#2a5c8a" stroke-width="0.6"/>
<circle cx="345.62" cy="556.15" r="6.27" fill="rgb(115,158,206)" fill-opacity="0.55" stroke="#2a5c8a" stroke-width="0.6"/>
<circle cx="321.06" cy="673.77" r="6.38" fill="rgb(114,156,205)" fill-opacity="0.56" stroke="#2a5c8a" stroke-width="0.6"/>
<circle cx="296.50" cy="620.31" r="6.38" fill="rgb(114,156,205)" fill-opacity="0.56" stroke="#2a5c8a" stroke-width="0.6"/>
<circle cx="419.31" cy="631.00" r="6.38" fill="rgb(114,156,205)" fill-opacity="0.56" stroke="#2a5c8a" stroke-width="0.6"/>
<circle cx="321.06" cy="684.46" r="6.38" fill="rgb(114,156,205)" fill-opacity="0.56" stroke="#2a5c8a" stroke-width="0.6"/>
<circle cx="394.75" cy="524.08" r="6.38" fill="rgb(114,156,205)" fill-opacity="0.56" stroke="#2a5c8a" stroke-width="0.6"/>
<circle cx="542.12" cy="427.85" r="6.49" fill="rgb(112,155,204)" fill-opacity="0.56" stroke="#2a5c8a" stroke-width="0.6"/>
<circle cx="370.19" cy="652.38" r="6.49" fill="rgb(112,155,204)" fill-opacity="0.56" stroke="#2a5c8a" stroke-width="0.6"/>
<circle cx="296.50" cy="695.15" r="6.60" fill="rgb(111,153,203)" fill-opacity="0.57" stroke="#2a5c8a" stroke-width="0.6"/>
<circle cx="493.00" cy="438.54" r="6.69" fill="rgb(110,152,202)" fill-opacity="0.57" stroke="#2a5c8a" stroke-width="0.6"/>
<circle cx="468.44" cy="459.92" r="6.69" fill="rgb(110,152,202)" fill-opacity="0.57" stroke="#2a5c8a" stroke-width="0.6"/>
<circle cx="271.94" cy="673.77" r="6.78" fill="rgb(108,151,201)" fill-opacity="0.58" stroke="#2a5c8a" stroke-width="0.6"/>
<circle cx="542.12" cy="438.54" r="6.78" fill="rgb(108,151,201)" fill-opacity="0.58" stroke="#2a5c8a" stroke-width="0.6"/>
<circle cx="517.56" cy="427.85" r="6.87" fill="rgb(107,150,200)" fill-opacity="0.59" stroke="#2a5c8a" stroke-width="0.6"/>
<circle cx="321.06" cy="598.92" r="6.87" fill="rgb(107,150,200)" fill-opacity="0.59" stroke="#2a5c8a" stroke-width="0.6"/>
<circle cx="443.88" cy="481.31" r="6.87" fill="rgb(107,150,200)" fill-opacity="0.59" stroke="#2a5c8a" stroke-width="0.6"/>
<circle cx="271.94" cy="684.46" r="6.87" fill="rgb(107,150,200)" fill-opacity="0.59" stroke="#2a5c8a" stroke-width="0.6"/>
<circle cx="321.06" cy="609.62" r="6.87" fill="rgb(107,150,200)" fill-opacity="0.59" stroke="#2a5c8a" stroke-width="0.6"/>
<circle cx="296.50" cy="631.00" r="6.95" fill="rgb(106,149,200)" fill-opacity="0.59" stroke="#2a5c8a" stroke-width="0.6"/>
<circle cx="296.50" cy="641.69" r="6.95" fill="rgb(106,149,200)" fill-opacity="0.59" stroke="#2a5c8a" stroke-width="0.6"/>
<circle cx="296.50" cy="663.08" r="6.95" fill="rgb(106,149,200)" fill-opacity="0.59" stroke="#2a5c8a" stroke-width="0.6"/>
<circle cx="542.12" cy="492.00" r="6.95" fill="rgb(106,149,200)" fill-opacity="0.59" stroke="#2a5c8a" stroke-width="0.6"/>
<circle cx="419.31" cy="502.69" r="6.95" fill="rgb(106,149,200)" fill-opacity="0.59" stroke="#2a5c8a" stroke-width="0.6"/>
<circle cx="517.56" cy="556.15" r="7.03" fill="rgb(105,148,199)" fill-opacity="0.59" stroke="#2a5c8a" stroke-width="0.6"/>
<circle cx="345.62" cy="663.08" r="7.03" fill="rgb(105,148,199)" fill-opacity="0.59" stroke="#2a5c8a" stroke-width="0.6"/>
<circle cx="493.00" cy="566.85" r="7.03" fill="rgb(105,148,199)" fill-opacity="0.59" stroke="#2a5c8a" stroke-width="0.6"/>
<circle cx="370.19" cy="545.46" r="7.03" fill="rgb(105,148,199)" fill-opacity="0.59" stroke="#2a5c8a" stroke-width="0.6"/>
<circle cx="468.44" cy="588.23" r="7.10" fill="rgb(104,147,198)" fill-opacity="0.60" stroke="#2a5c8a" stroke-width="0.6"/>
<circle cx="296.50" cy="673.77" r="7.10" fill="rgb(104,147,198)" fill-opacity="0.60" stroke="#2a5c8a" stroke-width="0.6"/>
<circle cx="419.31" cy="620.31" r="7.10" fill="rgb(104,147,198)" fill-opacity="0.60" stroke="#2a5c8a" stroke-width="0.6"/>
<circle cx="542.12" cy="481.31" r="7.17" fill="rgb(103,146,198)" fill-opacity="0.60" stroke="#2a5c8a" stroke-width="0.6"/>
<circle cx="468.44" cy="470.62" r="7.17" fill="rgb(103,146,198)" fill-opacity="0.60" stroke="#2a5c8a" stroke-width="0.6"/>
<circle cx="296.50" cy="684.46" r="7.17" fill="rgb(103,146,198)" fill-opacity="0.60" stroke="#2a5c8a" stroke-width="0.6"/>
<circle cx="321.06" cy="663.08" r="7.24" fill="rgb(102,145,197)" fill-opacity="0.61" stroke="#2a5c8a" stroke-width="0.6"/>
<circle cx="345.62" cy="577.54" r="7.30" fill="rgb(101,144,196)" fill-opacity="0.61" stroke="#2a5c8a" stroke-width="0.6"/>
<circle cx="542.12" cy="449.23" r="7.37" fill="rgb(101,143,196)" fill-opacity="0.62" stroke="#2a5c8a" stroke-width="0.6"/>
<circle cx="394.75" cy="631.00" r="7.43" fill="rgb(100,143,195)" fill-opacity="0.62" stroke="#2a5c8a" stroke-width="0.6"/>
<circle cx="345.62" cy="652.38" r="7.43" fill="rgb(100,143,195)" fill-opacity="0.62" stroke="#2a5c8a" stroke-width="0.6"/>
<circle cx="542.12" cy="470.62" r="7.48" fill="rgb(99,142,195)" fill-opacity="0.62" stroke="#2a5c8a" stroke-width="0.6"/>
<circle cx="296.50" cy="652.38" r="7.54" fill="rgb(98,141,194)" fill-opacity="0.63" stroke="#2a5c8a" stroke-width="0.6"/>
<circle cx="345.62" cy="588.23" r="7.64" fill="rgb(97,140,193)" fill-opacity="0.63" stroke="#2a5c8a" stroke-width="0.6"/>
<circle cx="517.56" cy="438.54" r="7.64" fill="rgb(97,140,193)" fill-opacity="0.63" stroke="#2a5c8a" stroke-width="0.6"/>
<circle cx="370.19" cy="641.69" r="7.64" fill="rgb(97,140,193)" fill-opacity="0.63" stroke="#2a5c8a" stroke-width="0.6"/>
<circle cx="321.06" cy="620.31" r="7.64" fill="rgb(97,140,193)" fill-opacity="0.63" stroke="#2a5c8a" stroke-width="0.6"/>
<circle cx="370.19" cy="556.15" r="7.74" fill="rgb(96,139,192)" fill-opacity="0.64" stroke="#2a5c8a" stroke-width="0.6"/>
<circle cx="443.88" cy="598.92" r="7.79" fill="rgb(95,138,192)" fill-opacity="0.64" stroke="#2a5c8a" stroke-width="0.6"/>
<circle cx="394.75" cy="534.77" r="7.79" fill="rgb(95,138,192)" fill-opacity="0.64" stroke="#2a5c8a" stroke-width="0.6"/>
<circle cx="517.56" cy="545.46" r="7.79" fill="rgb(95,138,192)" fill-opacity="0.64" stroke="#2a5c8a" stroke-width="0.6"/>
<circle cx="321.06" cy="631.00" r="7.79" fill="rgb(95,138,192)" fill-opacity="0.64" stroke="#2a5c8a" stroke-width="0.6"/>
<circle cx="542.12" cy="459.92" r="7.79" fill="rgb(95,138,192)" fill-opacity="0.64" stroke="#2a5c8a" stroke-width="0.6"/>
<circle cx="493.00" cy="449.23" r="7.84" fill="rgb(94,137,191)" fill-opacity="0.64" stroke="#2a5c8a" stroke-width="0.6"/>
<circle cx="419.31" cy="513.38" r="7.84" fill="rgb(94,137,191)" fill-opacity="0.64" stroke="#2a5c8a" stroke-width="0.6"/>
<circle cx="321.06" cy="652.38" r="8.13" fill="rgb(90,134,189)" fill-opacity="0.66" stroke="#2a5c8a" stroke-width="0.6"/>
<circle cx="321.06" cy="641.69" r="8.16" fill="rgb(90,133,188)" fill-opacity="0.66" stroke="#2a5c8a" stroke-width="0.6"/>
<circle cx="370.19" cy="566.85" r="8.16" fill="rgb(90,133,188)" fill-opacity="0.66" stroke="#2a5c8a" stroke-width="0.6"/>
<circle cx="419.31" cy="524.08" r="8.16" fill="rgb(90,133,188)" fill-opacity="0.66" stroke="#2a5c8a" stroke-width="0.6"/>
<circle cx="345.62" cy="598.92" r="8.27" fill="rgb(89,132,187)" fill-opacity="0.67" stroke="#2a5c8a" stroke-width="0.6"/>
<circle cx="443.88" cy="492.00" r="8.30" fill="rgb(88,132,187)" fill-opacity="0.67" stroke="#2a5c8a" stroke-width="0.6"/>
<circle cx="468.44" cy="577.54" r="8.30" fill="rgb(88,132,187)" fill-opacity="0.67" stroke="#2a5c8a" stroke-width="0.6"/>
<circle cx="345.62" cy="641.69" r="8.34" fill="rgb(88,131,187)" fill-opacity="0.68" stroke="#2a5c8a" stroke-width="0.6"/>
<circle cx="517.56" cy="534.77" r="8.43" fill="rgb(86,130,186)" fill-opacity="0.68" stroke="#2a5c8a" stroke-width="0.6"/>
<circle cx="419.31" cy="609.62" r="8.43" fill="rgb(86,130,186)" fill-opacity="0.68" stroke="#2a5c8a" stroke-width="0.6"/>
<circle cx="493.00" cy="459.92" r="8.49" fill="rgb(86,129,185)" fill-opacity="0.68" stroke="#2a5c8a" stroke-width="0.6"/>
<circle cx="394.75" cy="620.31" r="8.52" fill="rgb(85,129,185)" fill-opacity="0.69" stroke="#2a5c8a" stroke-width="0.6"/>
<circle cx="394.75" cy="545.46" r="8.55" fill="rgb(85,128,184)" fill-opacity="0.69" stroke="#2a5c8a" stroke-width="0.6"/>
<circle cx="370.19" cy="620.31" r="8.58" fill="rgb(84,128,184)" fill-opacity="0.69" stroke="#2a5c8a" stroke-width="0.6"/>
<circle cx="370.19" cy="631.00" r="8.61" fill="rgb(84,128,184)" fill-opacity="0.69" stroke="#2a5c8a" stroke-width="0.6"/>
<circle cx="370.19" cy="577.54" r="8.61" fill="rgb(84,128,184)" fill-opacity="0.69" stroke="#2a5c8a" stroke-width="0.6"/>
<circle cx="345.62" cy="631.00" r="8.66" fill="rgb(83,127,183)" fill-opacity="0.70" stroke="#2a5c8a" stroke-width="0.6"/>
<circle cx="493.00" cy="556.15" r="8.66" fill="rgb(83,127,183)" fill-opacity="0.70" stroke="#2a5c8a" stroke-width="0.6"/>
<circle cx="345.62" cy="620.31" r="8.69" fill="rgb(83,127,183)" fill-opacity="0.70" stroke="#2a5c8a" stroke-width="0.6"/>
<circle cx="468.44" cy="481.31" r="8.69" fill="rgb(83,127,183)" fill-opacity="0.70" stroke="#2a5c8a" stroke-width="0.6"/>
<circle cx="443.88" cy="502.69" r="8.79" fill="rgb(82,125,182)" fill-opacity="0.70" stroke="#2a5c8a" stroke-width="0.6"/>
<circle cx="443.88" cy="588.23" r="8.82" fill="rgb(81,125,182)" fill-opacity="0.70" stroke="#2a5c8a" stroke-width="0.6"/>
<circle cx="517.56" cy="449.23" r="8.89" fill="rgb(80,124,181)" fill-opacity="0.71" stroke="#2a5c8a" stroke-width="0.6"/>
<circle cx="419.31" cy="598.92" r="8.94" fill="rgb(80,123,181)" fill-opacity="0.71" stroke="#2a5c8a" stroke-width="0.6"/>
<circle cx="345.62" cy="609.62" r="8.94" fill="rgb(80,123,181)" fill-opacity="0.71" stroke="#2a5c8a" stroke-width="0.6"/>
<circle cx="394.75" cy="609.62" r="9.07" fill="rgb(78,122,180)" fill-opacity="0.72" stroke="#2a5c8a" stroke-width="0.6"/>
<circle cx="370.19" cy="588.23" r="9.17" fill="rgb(77,120,179)" fill-opacity="0.73" stroke="#2a5c8a" stroke-width="0.6"/>
<circle cx="394.75" cy="556.15" r="9.19" fill="rgb(76,120,179)" fill-opacity="0.73" stroke="#2a5c8a" stroke-width="0.6"/>
<circle cx="419.31" cy="534.77" r="9.21" fill="rgb(76,120,178)" fill-opacity="0.73" stroke="#2a5c8a" stroke-width="0.6"/>
<circle cx="370.19" cy="598.92" r="9.33" fill="rgb(74,118,177)" fill-opacity="0.74" stroke="#2a5c8a" stroke-width="0.6"/>
<circle cx="394.75" cy="566.85" r="9.35" fill="rgb(74,118,177)" fill-opacity="0.74" stroke="#2a5c8a" stroke-width="0.6"/>
<circle cx="443.88" cy="513.38" r="9.50" fill="rgb(72,116,176)" fill-opacity="0.75" stroke="#2a5c8a" stroke-width="0.6"/>
<circle cx="468.44" cy="566.85" r="9.53" fill="rgb(72,116,175)" fill-opacity="0.75" stroke="#2a5c8a" stroke-width="0.6"/>
<circle cx="370.19" cy="609.62" r="9.53" fill="rgb(72,116,175)" fill-opacity="0.75" stroke="#2a5c8a" stroke-width="0.6"/>
<circle cx="493.00" cy="470.62" r="9.55" fill="rgb(72,116,175)" fill-opacity="0.75" stroke="#2a5c8a" stroke-width="0.6"/>
<circle cx="493.00" cy="545.46" r="9.58" fill="rgb(71,115,175)" fill-opacity="0.75" stroke="#2a5c8a" stroke-width="0.6"/>
<circle cx="394.75" cy="598.92" r="9.62" fill="rgb(71,115,174)" fill-opacity="0.75" stroke="#2a5c8a" stroke-width="0.6"/>
<circle cx="468.44" cy="492.00" r="9.64" fill="rgb(70,114,174)" fill-opacity="0.75" stroke="#2a5c8a" stroke-width="0.6"/>
<circle cx="517.56" cy="459.92" r="9.72" fill="rgb(69,113,173)" fill-opacity="0.76" stroke="#2a5c8a" stroke-width="0.6"/>
<circle cx="394.75" cy="588.23" r="9.79" fill="rgb(68,113,173)" fill-opacity="0.76" stroke="#2a5c8a" stroke-width="0.6"/>
<circle cx="419.31" cy="588.23" r="9.84" fill="rgb(68,112,172)" fill-opacity="0.77" stroke="#2a5c8a" stroke-width="0.6"/>
<circle cx="394.75" cy="577.54" r="9.90" fill="rgb(67,111,172)" fill-opacity="0.77" stroke="#2a5c8a" stroke-width="0.6"/>
<circle cx="419.31" cy="545.46" r="9.92" fill="rgb(67,111,172)" fill-opacity="0.77" stroke="#2a5c8a" stroke-width="0.6"/>
<circle cx="517.56" cy="524.08" r="9.98" fill="rgb(66,110,171)" fill-opacity="0.78" stroke="#2a5c8a" stroke-width="0.6"/>
<circle cx="443.88" cy="524.08" r="10.00" fill="rgb(65,110,171)" fill-opacity="0.78" stroke="#2a5c8a" stroke-width="0.6"/>
<circle cx="517.56" cy="470.62" r="10.02" fill="rgb(65,110,171)" fill-opacity="0.78" stroke="#2a5c8a" stroke-width="0.6"/>
<circle cx="468.44" cy="502.69" r="10.03" fill="rgb(65,109,171)" fill-opacity="0.78" stroke="#2a5c8a" stroke-width="0.6"/>
<circle cx="419.31" cy="566.85" r="10.08" fill="rgb(64,109,170)" fill-opacity="0.78" stroke="#2a5c8a" stroke-width="0.6"/>
<circle cx="468.44" cy="556.15" r="10.09" fill="rgb(64,109,170)" fill-opacity="0.78" stroke="#2a5c8a" stroke-width="0.6"/>
<circle cx="443.88" cy="577.54" r="10.10" fill="rgb(64,109,170)" fill-opacity="0.78" stroke="#2a5c8a" stroke-width="0.6"/>
<circle cx="419.31" cy="556.15" r="10.12" fill="rgb(64,108,170)" fill-opacity="0.78" stroke="#2a5c8a" stroke-width="0.6"/>
<circle cx="493.00" cy="481.31" r="10.20" fill="rgb(63,107,169)" fill-opacity="0.79" stroke="#2a5c8a" stroke-width="0.6"/>
<circle cx="419.31" cy="577.54" r="10.29" fill="rgb(62,106,168)" fill-opacity="0.79" stroke="#2a5c8a" stroke-width="0.6"/>
<circle cx="517.56" cy="513.38" r="10.36" fill="rgb(61,105,167)" fill-opacity="0.80" stroke="#2a5c8a" stroke-width="0.6"/>
<circle cx="493.00" cy="534.77" r="10.37" fill="rgb(61,105,167)" fill-opacity="0.80" stroke="#2a5c8a" stroke-width="0.6"/>
<circle cx="443.88" cy="566.85" r="10.38" fill="rgb(60,105,167)" fill-opacity="0.80" stroke="#2a5c8a" stroke-width="0.6"/>
<circle cx="443.88" cy="534.77" r="10.57" fill="rgb(58,103,165)" fill-opacity="0.81" stroke="#2a5c8a" stroke-width="0.6"/>
<circle cx="517.56" cy="502.69" r="10.62" fill="rgb(57,102,165)" fill-opacity="0.81" stroke="#2a5c8a" stroke-width="0.6"/>
<circle cx="443.88" cy="556.15" r="10.64" fill="rgb(57,102,165)" fill-opacity="0.82" stroke="#2a5c8a" stroke-width="0.6"/>
<circle cx="468.44" cy="513.38" r="10.65" fill="rgb(57,101,165)" fill-opacity="0.82" stroke="#2a5c8a" stroke-width="0.6"/>
<circle cx="493.00" cy="492.00" r="10.68" fill="rgb(56,101,164)" fill-opacity="0.82" stroke="#2a5c8a" stroke-width="0.6"/>
<circle cx="443.88" cy="545.46" r="10.72" fill="rgb(56,101,164)" fill-opacity="0.82" stroke="#2a5c8a" stroke-width="0.6"/>
<circle cx="468.44" cy="534.77" r="10.78" fill="rgb(55,100,163)" fill-opacity="0.82" stroke="#2a5c8a" stroke-width="0.6"/>
<circle cx="468.44" cy="545.46" r="10.80" fill="rgb(55,100,163)" fill-opacity="0.83" stroke="#2a5c8a" stroke-width="0.6"/>
<circle cx="468.44" cy="524.08" r="10.85" fill="rgb(54,99,163)" fill-opacity="0.83" stroke="#2a5c8a" stroke-width="0.6"/>
<circle cx="493.00" cy="524.08" r="10.86" fill="rgb(54,99,163)" fill-opacity="0.83" stroke="#2a5c8a" stroke-width="0.6"/>
<circle cx="517.56" cy="481.31" r="10.86" fill="rgb(54,99,163)" fill-opacity="0.83" stroke="#2a5c8a" stroke-width="0.6"/>
<circle cx="517.56" cy="492.00" r="10.86" fill="rgb(54,99,163)" fill-opacity="0.83" stroke="#2a5c8a" stroke-width="0.6"/>
<circle cx="493.00" cy="502.69" r="11.10" fill="rgb(51,96,160)" fill-opacity="0.84" stroke="#2a5c8a" stroke-width="0.6"/>
<circle cx="493.00" cy="513.38" r="11.20" fill="rgb(50,95,160)" fill-opacity="0.85" stroke="#2a5c8a" stroke-width="0.6"/>
<text x="493.0" y="828" text-anchor="middle" font-size="16" font-family="Arial">Number of heavy atoms per molecule</text>
<text x="34" y="492.0" text-anchor="middle" font-size="16" font-family="Arial" transform="rotate(-90 34 492.0)">Number of 2-hop virtual edges per molecule</text>
<text x="493.0" y="62" text-anchor="middle" font-size="13" font-family="Arial">Heavy-atom marginal distribution</text>
<text x="985.0" y="206" text-anchor="middle" font-size="13" font-family="Arial">2-hop edge marginal distribution</text>
<text x="110" y="236" text-anchor="start" font-size="12" font-family="Arial" fill="#555">Dashed lines: means (14.16, 21.23)</text>
<text x="110" y="254" text-anchor="start" font-size="12" font-family="Arial" fill="#555">Bubble size/color: frequency of each pair</text>
</svg>