<svg xmlns="http://www.w3.org/2000/svg" width="1100" height="860" viewBox="0 0 1100 860">
<rect x="0" y="0" width="100%" height="100%" fill="white"/>
<text x="550" y="36" text-anchor="middle" font-size="24" font-family="Arial">Active vs Non-active H Atoms (10000 Random Molecules)</text>
<rect x="100" y="214" width="786" height="556" fill="white" stroke="#222" stroke-width="2"/>
<rect x="100" y="70" width="786" height="120" fill="white" stroke="#222" stroke-width="1.5"/>
<rect x="910" y="214" width="150" height="556" fill="white" stroke="#222" stroke-width="1.5"/>
<line x1="100.00" y1="214" x2="100.00" y2="770" stroke="#e0e0e0" stroke-width="1"/>
<text x="100.00" y="792" text-anchor="middle" font-size="11" font-family="Arial">0</text>
<line x1="257.20" y1="214" x2="257.20" y2="770" stroke="#e0e0e0" stroke-width="1"/>
<text x="257.20" y="792" text-anchor="middle" font-size="11" font-family="Arial">2</text>
<line x1="414.40" y1="214" x2="414.40" y2="770" stroke="#e0e0e0" stroke-width="1"/>
<text x="414.40" y="792" text-anchor="middle" font-size="11" font-family="Arial">4</text>
<line x1="571.60" y1="214" x2="571.60" y2="770" stroke="#e0e0e0" stroke-width="1"/>
<text x="571.60" y="792" text-anchor="middle" font-size="11" font-family="Arial">6</text>
<line x1="728.80" y1="214" x2="728.80" y2="770" stroke="#e0e0e0" stroke-width="1"/>
<text x="728.80" y="792" text-anchor="middle" font-size="11" font-family="Arial">8</text>
<line x1="886.00" y1="214" x2="886.00" y2="770" stroke="#e0e0e0" stroke-width="1"/>
<text x="886.00" y="792" text-anchor="middle" font-size="11" font-family="Arial">10</text>
<line x1="100" y1="770.00" x2="886" y2="770.00" stroke="#e0e0e0" stroke-width="1"/>
<text x="88" y="774.00" text-anchor="end" font-size="11" font-family="Arial">0</text>
<line x1="100" y1="693.31" x2="886" y2="693.31" stroke="#e0e0e0" stroke-width="1"/>
<text x="88" y="697.31" text-anchor="end" font-size="11" font-family="Arial">8</text>
<line x1="100" y1="616.62" x2="886" y2="616.62" stroke="#e0e0e0" stroke-width="1"/>
<text x="88" y="620.62" text-anchor="end" font-size="11" font-family="Arial">16</text>
<line x1="100" y1="539.93" x2="886" y2="539.93" stroke="#e0e0e0" stroke-width="1"/>
<text x="88" y="543.93" text-anchor="end" font-size="11" font-family="Arial">24</text>
<line x1="100" y1="463.24" x2="886" y2="463.24" stroke="#e0e0e0" stroke-width="1"/>
<text x="88" y="467.24" text-anchor="end" font-size="11" font-family="Arial">32</text>
<line x1="100" y1="386.55" x2="886" y2="386.55" stroke="#e0e0e0" stroke-width="1"/>
<text x="88" y="390.55" text-anchor="end" font-size="11" font-family="Arial">40</text>
<line x1="100" y1="309.86" x2="886" y2="309.86" stroke="#e0e0e0" stroke-width="1"/>
<text x="88" y="313.86" text-anchor="end" font-size="11" font-family="Arial">48</text>
<line x1="100" y1="233.17" x2="886" y2="233.17" stroke="#e0e0e0" stroke-width="1"/>
<text x="88" y="237.17" text-anchor="end" font-size="11" font-family="Arial">56</text>
<line x1="100" y1="214.00" x2="886" y2="214.00" stroke="#e0e0e0" stroke-width="1"/>
<text x="88" y="218.00" text-anchor="end" font-size="11" font-family="Arial">58</text>
<line x1="205.06" y1="214" x2="205.06" y2="770" stroke="#555" stroke-width="1.5" stroke-dasharray="6,5"/>
<line x1="100" y1="638.00" x2="886" y2="638.00" stroke="#555" stroke-width="1.5" stroke-dasharray="6,5"/>
<rect x="101.50" y="97.76" width="68.45" height="92.24" fill="#4c78a8"/>
<rect x="172.95" y="80.00" width="68.45" height="110.00" fill="#4c78a8"/>
<rect x="244.41" y="113.27" width="68.45" height="76.73" fill="#4c78a8"/>
<rect x="315.86" y="154.74" width="68.45" height="35.26" fill="#4c78a8"/>
<rect x="387.32" y="178.26" width="68.45" height="11.74" fill="#4c78a8"/>
<rect x="458.77" y="186.76" width="68.45" height="3.24" fill="#4c78a8"/>
<rect x="530.23" y="188.84" width="68.45" height="1.16" fill="#4c78a8"/>
<rect x="601.68" y="189.77" width="68.45" height="0.23" fill="#4c78a8"/>
<rect x="673.14" y="189.90" width="68.45" height="0.10" fill="#4c78a8"/>
<rect x="744.59" y="190.00" width="68.45" height="0.00" fill="#4c78a8"/>
<rect x="816.05" y="189.97" width="68.45" height="0.03" fill="#4c78a8"/>
<rect x="910" y="762.08" width="3.56" height="6.42" fill="#e4572e"/>
<rect x="910" y="752.65" width="5.54" height="6.42" fill="#e4572e"/>
<rect x="910" y="743.23" width="17.40" height="6.42" fill="#e4572e"/>
<rect x="910" y="733.81" width="21.55" height="6.42" fill="#e4572e"/>
<rect x="910" y="724.38" width="29.46" height="6.42" fill="#e4572e"/>
<rect x="910" y="714.96" width="41.13" height="6.42" fill="#e4572e"/>
<rect x="910" y="705.53" width="58.53" height="6.42" fill="#e4572e"/>
<rect x="910" y="696.11" width="79.49" height="6.42" fill="#e4572e"/>
<rect x="910" y="686.69" width="102.03" height="6.42" fill="#e4572e"/>
<rect x="910" y="677.26" width="111.33" height="6.42" fill="#e4572e"/>
<rect x="910" y="667.84" width="118.45" height="6.42" fill="#e4572e"/>
<rect x="910" y="658.42" width="129.92" height="6.42" fill="#e4572e"/>
<rect x="910" y="648.99" width="140.00" height="6.42" fill="#e4572e"/>
<rect x="910" y="639.57" width="131.10" height="6.42" fill="#e4572e"/>
<rect x="910" y="630.14" width="136.44" height="6.42" fill="#e4572e"/>
<rect x="910" y="620.72" width="123.39" height="6.42" fill="#e4572e"/>
<rect x="910" y="611.30" width="126.36" height="6.42" fill="#e4572e"/>
<rect x="910" y="601.87" width="106.78" height="6.42" fill="#e4572e"/>
<rect x="910" y="592.45" width="106.78" height="6.42" fill="#e4572e"/>
<rect x="910" y="583.03" width="71.78" height="6.42" fill="#e4572e"/>
<rect x="910" y="573.60" width="80.08" height="6.42" fill="#e4572e"/>
<rect x="910" y="564.18" width="53.98" height="6.42" fill="#e4572e"/>
<rect x="910" y="554.75" width="49.83" height="6.42" fill="#e4572e"/>
<rect x="910" y="545.33" width="30.85" height="6.42" fill="#e4572e"/>
<rect x="910" y="535.91" width="33.42" height="6.42" fill="#e4572e"/>
<rect x="910" y="526.48" width="17.60" height="6.42" fill="#e4572e"/>
<rect x="910" y="517.06" width="18.59" height="6.42" fill="#e4572e"/>
<rect x="910" y="507.64" width="12.06" height="6.42" fill="#e4572e"/>
<rect x="910" y="498.21" width="7.91" height="6.42" fill="#e4572e"/>
<rect x="910" y="488.79" width="4.15" height="6.42" fill="#e4572e"/>
<rect x="910" y="479.36" width="3.16" height="6.42" fill="#e4572e"/>
<rect x="910" y="469.94" width="2.57" height="6.42" fill="#e4572e"/>
<rect x="910" y="460.52" width="0.59" height="6.42" fill="#e4572e"/>
<rect x="910" y="451.09" width="0.20" height="6.42" fill="#e4572e"/>
<rect x="910" y="441.67" width="0.20" height="6.42" fill="#e4572e"/>
<rect x="910" y="432.25" width="0.00" height="6.42" fill="#e4572e"/>
<rect x="910" y="422.82" width="0.20" height="6.42" fill="#e4572e"/>
<rect x="910" y="413.40" width="0.20" height="6.42" fill="#e4572e"/>
<rect x="910" y="403.97" width="0.00" height="6.42" fill="#e4572e"/>
<rect x="910" y="394.55" width="0.00" height="6.42" fill="#e4572e"/>
<rect x="910" y="385.13" width="0.00" height="6.42" fill="#e4572e"/>
<rect x="910" y="375.70" width="0.20" height="6.42" fill="#e4572e"/>
<rect x="910" y="366.28" width="0.00" height="6.42" fill="#e4572e"/>
<rect x="910" y="356.86" width="0.00" height="6.42" fill="#e4572e"/>
<rect x="910" y="347.43" width="0.00" height="6.42" fill="#e4572e"/>
<rect x="910" y="338.01" width="0.00" height="6.42" fill="#e4572e"/>
<rect x="910" y="328.58" width="0.40" height="6.42" fill="#e4572e"/>
<rect x="910" y="319.16" width="0.00" height="6.42" fill="#e4572e"/>
<rect x="910" y="309.74" width="0.00" height="6.42" fill="#e4572e"/>
<rect x="910" y="300.31" width="0.00" height="6.42" fill="#e4572e"/>
<rect x="910" y="290.89" width="0.00" height="6.42" fill="#e4572e"/>
<rect x="910" y="281.47" width="0.00" height="6.42" fill="#e4572e"/>
<rect x="910" y="272.04" width="0.00" height="6.42" fill="#e4572e"/>
<rect x="910" y="262.62" width="0.00" height="6.42" fill="#e4572e"/>
<rect x="910" y="253.19" width="0.00" height="6.42" fill="#e4572e"/>
<rect x="910" y="243.77" width="0.00" height="6.42" fill="#e4572e"/>
<rect x="910" y="234.35" width="0.00" height="6.42" fill="#e4572e"/>
<rect x="910" y="224.92" width="0.00" height="6.42" fill="#e4572e"/>
<rect x="910" y="215.50" width="0.20" height="6.42" fill="#e4572e"/>
<circle cx="886.00" cy="770.00" r="3.32" fill="rgb(128,178,225)" fill-opacity="0.37" stroke="#1e4f7d" stroke-width="0.6"/>
<circle cx="571.60" cy="741.24" r="3.32" fill="rgb(128,178,225)" fill-opacity="0.37" stroke="#1e4f7d" stroke-width="0.6"/>
<circle cx="571.60" cy="770.00" r="3.32" fill="rgb(128,178,225)" fill-opacity="0.37" stroke="#1e4f7d" stroke-width="0.6"/>
<circle cx="493.00" cy="530.34" r="3.32" fill="rgb(128,178,225)" fill-opacity="0.37" stroke="#1e4f7d" stroke-width="0.6"/>
<circle cx="493.00" cy="597.45" r="3.32" fill="rgb(128,178,225)" fill-opacity="0.37" stroke="#1e4f7d" stroke-width="0.6"/>
<circle cx="335.80" cy="520.76" r="3.32" fill="rgb(128,178,225)" fill-opacity="0.37" stroke="#1e4f7d" stroke-width="0.6"/>
<circle cx="335.80" cy="501.59" r="3.32" fill="rgb(128,178,225)" fill-opacity="0.37" stroke="#1e4f7d" stroke-width="0.6"/>
<circle cx="335.80" cy="770.00" r="3.32" fill="rgb(128,178,225)" fill-opacity="0.37" stroke="#1e4f7d" stroke-width="0.6"/>
<circle cx="493.00" cy="635.79" r="3.32" fill="rgb(128,178,225)" fill-opacity="0.37" stroke="#1e4f7d" stroke-width="0.6"/>
<circle cx="335.80" cy="492.00" r="3.32" fill="rgb(128,178,225)" fill-opacity="0.37" stroke="#1e4f7d" stroke-width="0.6"/>
<circle cx="100.00" cy="453.66" r="3.32" fill="rgb(128,178,225)" fill-opacity="0.37" stroke="#1e4f7d" stroke-width="0.6"/>
<circle cx="100.00" cy="444.07" r="3.32" fill="rgb(128,178,225)" fill-opacity="0.37" stroke="#1e4f7d" stroke-width="0.6"/>
<circle cx="100.00" cy="424.90" r="3.32" fill="rgb(128,178,225)" fill-opacity="0.37" stroke="#1e4f7d" stroke-width="0.6"/>
<circle cx="100.00" cy="415.31" r="3.32" fill="rgb(128,178,225)" fill-opacity="0.37" stroke="#1e4f7d" stroke-width="0.6"/>
<circle cx="100.00" cy="214.00" r="3.32" fill="rgb(128,178,225)" fill-opacity="0.37" stroke="#1e4f7d" stroke-width="0.6"/>
<circle cx="178.60" cy="376.97" r="3.32" fill="rgb(128,178,225)" fill-opacity="0.37" stroke="#1e4f7d" stroke-width="0.6"/>
<circle cx="257.20" cy="472.83" r="3.32" fill="rgb(128,178,225)" fill-opacity="0.37" stroke="#1e4f7d" stroke-width="0.6"/>
<circle cx="335.80" cy="539.93" r="3.32" fill="rgb(128,178,225)" fill-opacity="0.37" stroke="#1e4f7d" stroke-width="0.6"/>
<circle cx="650.20" cy="750.83" r="3.32" fill="rgb(128,178,225)" fill-opacity="0.37" stroke="#1e4f7d" stroke-width="0.6"/>
<circle cx="728.80" cy="693.31" r="3.32" fill="rgb(128,178,225)" fill-opacity="0.37" stroke="#1e4f7d" stroke-width="0.6"/>
<circle cx="571.60" cy="664.55" r="3.32" fill="rgb(128,178,225)" fill-opacity="0.37" stroke="#1e4f7d" stroke-width="0.6"/>
<circle cx="728.80" cy="731.66" r="3.32" fill="rgb(128,178,225)" fill-opacity="0.37" stroke="#1e4f7d" stroke-width="0.6"/>
<circle cx="728.80" cy="750.83" r="3.32" fill="rgb(128,178,225)" fill-opacity="0.37" stroke="#1e4f7d" stroke-width="0.6"/>
<circle cx="571.60" cy="635.79" r="3.32" fill="rgb(128,178,225)" fill-opacity="0.37" stroke="#1e4f7d" stroke-width="0.6"/>
<circle cx="571.60" cy="607.03" r="3.32" fill="rgb(128,178,225)" fill-opacity="0.37" stroke="#1e4f7d" stroke-width="0.6"/>
<circle cx="650.20" cy="770.00" r="3.32" fill="rgb(128,178,225)" fill-opacity="0.37" stroke="#1e4f7d" stroke-width="0.6"/>
<circle cx="650.20" cy="693.31" r="3.32" fill="rgb(128,178,225)" fill-opacity="0.37" stroke="#1e4f7d" stroke-width="0.6"/>
<circle cx="650.20" cy="712.48" r="3.32" fill="rgb(128,178,225)" fill-opacity="0.37" stroke="#1e4f7d" stroke-width="0.6"/>
<circle cx="414.40" cy="760.41" r="3.98" fill="rgb(122,171,220)" fill-opacity="0.41" stroke="#1e4f7d" stroke-width="0.6"/>
<circle cx="178.60" cy="770.00" r="3.98" fill="rgb(122,171,220)" fill-opacity="0.41" stroke="#1e4f7d" stroke-width="0.6"/>
<circle cx="100.00" cy="329.03" r="3.98" fill="rgb(122,171,220)" fill-opacity="0.41" stroke="#1e4f7d" stroke-width="0.6"/>
<circle cx="257.20" cy="492.00" r="3.98" fill="rgb(122,171,220)" fill-opacity="0.41" stroke="#1e4f7d" stroke-width="0.6"/>
<circle cx="571.60" cy="702.90" r="3.98" fill="rgb(122,171,220)" fill-opacity="0.41" stroke="#1e4f7d" stroke-width="0.6"/>
<circle cx="571.60" cy="645.38" r="3.98" fill="rgb(122,171,220)" fill-opacity="0.41" stroke="#1e4f7d" stroke-width="0.6"/>
<circle cx="493.00" cy="607.03" r="3.98" fill="rgb(122,171,220)" fill-opacity="0.41" stroke="#1e4f7d" stroke-width="0.6"/>
<circle cx="571.60" cy="654.97" r="3.98" fill="rgb(122,171,220)" fill-opacity="0.41" stroke="#1e4f7d" stroke-width="0.6"/>
<circle cx="571.60" cy="674.14" r="3.98" fill="rgb(122,171,220)" fill-opacity="0.41" stroke="#1e4f7d" stroke-width="0.6"/>
<circle cx="414.40" cy="559.10" r="3.98" fill="rgb(122,171,220)" fill-opacity="0.41" stroke="#1e4f7d" stroke-width="0.6"/>
<circle cx="100.00" cy="472.83" r="3.98" fill="rgb(122,171,220)" fill-opacity="0.41" stroke="#1e4f7d" stroke-width="0.6"/>
<circle cx="414.40" cy="770.00" r="4.45" fill="rgb(117,166,216)" fill-opacity="0.44" stroke="#1e4f7d" stroke-width="0.6"/>
<circle cx="257.20" cy="760.41" r="4.45" fill="rgb(117,166,216)" fill-opacity="0.44" stroke="#1e4f7d" stroke-width="0.6"/>
<circle cx="414.40" cy="597.45" r="4.45" fill="rgb(117,166,216)" fill-opacity="0.44" stroke="#1e4f7d" stroke-width="0.6"/>
<circle cx="493.00" cy="645.38" r="4.45" fill="rgb(117,166,216)" fill-opacity="0.44" stroke="#1e4f7d" stroke-width="0.6"/>
<circle cx="493.00" cy="712.48" r="4.45" fill="rgb(117,166,216)" fill-opacity="0.44" stroke="#1e4f7d" stroke-width="0.6"/>
<circle cx="493.00" cy="616.62" r="4.45" fill="rgb(117,166,216)" fill-opacity="0.44" stroke="#1e4f7d" stroke-width="0.6"/>
<circle cx="571.60" cy="750.83" r="4.45" fill="rgb(117,166,216)" fill-opacity="0.44" stroke="#1e4f7d" stroke-width="0.6"/>
<circle cx="571.60" cy="712.48" r="4.45" fill="rgb(117,166,216)" fill-opacity="0.44" stroke="#1e4f7d" stroke-width="0.6"/>
<circle cx="571.60" cy="683.72" r="4.45" fill="rgb(117,166,216)" fill-opacity="0.44" stroke="#1e4f7d" stroke-width="0.6"/>
<circle cx="650.20" cy="702.90" r="4.45" fill="rgb(117,166,216)" fill-opacity="0.44" stroke="#1e4f7d" stroke-width="0.6"/>
<circle cx="178.60" cy="463.24" r="4.45" fill="rgb(117,166,216)" fill-opacity="0.44" stroke="#1e4f7d" stroke-width="0.6"/>
<circle cx="493.00" cy="731.66" r="4.81" fill="rgb(113,162,213)" fill-opacity="0.46" stroke="#1e4f7d" stroke-width="0.6"/>
<circle cx="493.00" cy="654.97" r="4.81" fill="rgb(113,162,213)" fill-opacity="0.46" stroke="#1e4f7d" stroke-width="0.6"/>
<circle cx="493.00" cy="626.21" r="4.81" fill="rgb(113,162,213)" fill-opacity="0.46" stroke="#1e4f7d" stroke-width="0.6"/>
<circle cx="335.80" cy="530.34" r="4.81" fill="rgb(113,162,213)" fill-opacity="0.46" stroke="#1e4f7d" stroke-width="0.6"/>
<circle cx="571.60" cy="731.66" r="4.81" fill="rgb(113,162,213)" fill-opacity="0.46" stroke="#1e4f7d" stroke-width="0.6"/>
<circle cx="257.20" cy="482.41" r="4.81" fill="rgb(113,162,213)" fill-opacity="0.46" stroke="#1e4f7d" stroke-width="0.6"/>
<circle cx="571.60" cy="693.31" r="4.81" fill="rgb(113,162,213)" fill-opacity="0.46" stroke="#1e4f7d" stroke-width="0.6"/>
<circle cx="414.40" cy="587.86" r="4.81" fill="rgb(113,162,213)" fill-opacity="0.46" stroke="#1e4f7d" stroke-width="0.6"/>
<circle cx="100.00" cy="770.00" r="4.81" fill="rgb(113,162,213)" fill-opacity="0.46" stroke="#1e4f7d" stroke-width="0.6"/>
<circle cx="257.20" cy="501.59" r="5.10" fill="rgb(110,159,210)" fill-opacity="0.48" stroke="#1e4f7d" stroke-width="0.6"/>
<circle cx="571.60" cy="722.07" r="5.10" fill="rgb(110,159,210)" fill-opacity="0.48" stroke="#1e4f7d" stroke-width="0.6"/>
<circle cx="100.00" cy="492.00" r="5.10" fill="rgb(110,159,210)" fill-opacity="0.48" stroke="#1e4f7d" stroke-width="0.6"/>
<circle cx="178.60" cy="482.41" r="5.10" fill="rgb(110,159,210)" fill-opacity="0.48" stroke="#1e4f7d" stroke-width="0.6"/>
<circle cx="257.20" cy="770.00" r="5.10" fill="rgb(110,159,210)" fill-opacity="0.48" stroke="#1e4f7d" stroke-width="0.6"/>
<circle cx="493.00" cy="741.24" r="5.35" fill="rgb(108,156,208)" fill-opacity="0.49" stroke="#1e4f7d" stroke-width="0.6"/>
<circle cx="414.40" cy="750.83" r="5.35" fill="rgb(108,156,208)" fill-opacity="0.49" stroke="#1e4f7d" stroke-width="0.6"/>
<circle cx="257.20" cy="530.34" r="5.35" fill="rgb(108,156,208)" fill-opacity="0.49" stroke="#1e4f7d" stroke-width="0.6"/>
<circle cx="335.80" cy="760.41" r="5.57" fill="rgb(106,154,206)" fill-opacity="0.51" stroke="#1e4f7d" stroke-width="0.6"/>
<circle cx="414.40" cy="578.28" r="5.57" fill="rgb(106,154,206)" fill-opacity="0.51" stroke="#1e4f7d" stroke-width="0.6"/>
<circle cx="493.00" cy="750.83" r="5.57" fill="rgb(106,154,206)" fill-opacity="0.51" stroke="#1e4f7d" stroke-width="0.6"/>
<circle cx="100.00" cy="482.41" r="5.57" fill="rgb(106,154,206)" fill-opacity="0.51" stroke="#1e4f7d" stroke-width="0.6"/>
<circle cx="493.00" cy="693.31" r="5.57" fill="rgb(106,154,206)" fill-opacity="0.51" stroke="#1e4f7d" stroke-width="0.6"/>
<circle cx="257.20" cy="511.17" r="5.57" fill="rgb(106,154,206)" fill-opacity="0.51" stroke="#1e4f7d" stroke-width="0.6"/>
<circle cx="493.00" cy="674.14" r="5.57" fill="rgb(106,154,206)" fill-opacity="0.51" stroke="#1e4f7d" stroke-width="0.6"/>
<circle cx="100.00" cy="511.17" r="5.57" fill="rgb(106,154,206)" fill-opacity="0.51" stroke="#1e4f7d" stroke-width="0.6"/>
<circle cx="178.60" cy="760.41" r="5.76" fill="rgb(104,152,205)" fill-opacity="0.52" stroke="#1e4f7d" stroke-width="0.6"/>
<circle cx="493.00" cy="664.55" r="5.76" fill="rgb(104,152,205)" fill-opacity="0.52" stroke="#1e4f7d" stroke-width="0.6"/>
<circle cx="100.00" cy="760.41" r="5.76" fill="rgb(104,152,205)" fill-opacity="0.52" stroke="#1e4f7d" stroke-width="0.6"/>
<circle cx="414.40" cy="607.03" r="5.76" fill="rgb(104,152,205)" fill-opacity="0.52" stroke="#1e4f7d" stroke-width="0.6"/>
<circle cx="178.60" cy="750.83" r="5.93" fill="rgb(102,150,203)" fill-opacity="0.53" stroke="#1e4f7d" stroke-width="0.6"/>
<circle cx="414.40" cy="741.24" r="5.93" fill="rgb(102,150,203)" fill-opacity="0.53" stroke="#1e4f7d" stroke-width="0.6"/>
<circle cx="178.60" cy="472.83" r="6.09" fill="rgb(101,148,202)" fill-opacity="0.54" stroke="#1e4f7d" stroke-width="0.6"/>
<circle cx="493.00" cy="722.07" r="6.23" fill="rgb(99,147,201)" fill-opacity="0.55" stroke="#1e4f7d" stroke-width="0.6"/>
<circle cx="414.40" cy="616.62" r="6.36" fill="rgb(98,146,200)" fill-opacity="0.55" stroke="#1e4f7d" stroke-width="0.6"/>
<circle cx="493.00" cy="702.90" r="6.48" fill="rgb(97,144,199)" fill-opacity="0.56" stroke="#1e4f7d" stroke-width="0.6"/>
<circle cx="178.60" cy="492.00" r="6.48" fill="rgb(97,144,199)" fill-opacity="0.56" stroke="#1e4f7d" stroke-width="0.6"/>
<circle cx="493.00" cy="683.72" r="6.48" fill="rgb(97,144,199)" fill-opacity="0.56" stroke="#1e4f7d" stroke-width="0.6"/>
<circle cx="335.80" cy="750.83" r="6.59" fill="rgb(96,143,198)" fill-opacity="0.57" stroke="#1e4f7d" stroke-width="0.6"/>
<circle cx="335.80" cy="559.10" r="6.59" fill="rgb(96,143,198)" fill-opacity="0.57" stroke="#1e4f7d" stroke-width="0.6"/>
<circle cx="335.80" cy="549.52" r="6.59" fill="rgb(96,143,198)" fill-opacity="0.57" stroke="#1e4f7d" stroke-width="0.6"/>
<circle cx="100.00" cy="501.59" r="6.59" fill="rgb(96,143,198)" fill-opacity="0.57" stroke="#1e4f7d" stroke-width="0.6"/>
<circle cx="414.40" cy="731.66" r="6.69" fill="rgb(95,142,197)" fill-opacity="0.57" stroke="#1e4f7d" stroke-width="0.6"/>
<circle cx="414.40" cy="722.07" r="6.88" fill="rgb(93,140,195)" fill-opacity="0.59" stroke="#1e4f7d" stroke-width="0.6"/>
<circle cx="335.80" cy="741.24" r="6.88" fill="rgb(93,140,195)" fill-opacity="0.59" stroke="#1e4f7d" stroke-width="0.6"/>
<circle cx="414.40" cy="626.21" r="6.88" fill="rgb(93,140,195)" fill-opacity="0.59" stroke="#1e4f7d" stroke-width="0.6"/>
<circle cx="335.80" cy="568.69" r="6.97" fill="rgb(92,139,195)" fill-opacity="0.59" stroke="#1e4f7d" stroke-width="0.6"/>
<circle cx="335.80" cy="578.28" r="6.97" fill="rgb(92,139,195)" fill-opacity="0.59" stroke="#1e4f7d" stroke-width="0.6"/>
<circle cx="414.40" cy="664.55" r="7.06" fill="rgb(91,138,194)" fill-opacity="0.60" stroke="#1e4f7d" stroke-width="0.6"/>
<circle cx="100.00" cy="750.83" r="7.13" fill="rgb(90,137,193)" fill-opacity="0.60" stroke="#1e4f7d" stroke-width="0.6"/>
<circle cx="257.20" cy="520.76" r="7.13" fill="rgb(90,137,193)" fill-opacity="0.60" stroke="#1e4f7d" stroke-width="0.6"/>
<circle cx="178.60" cy="501.59" r="7.13" fill="rgb(90,137,193)" fill-opacity="0.60" stroke="#1e4f7d" stroke-width="0.6"/>
<circle cx="100.00" cy="530.34" r="7.21" fill="rgb(89,137,193)" fill-opacity="0.61" stroke="#1e4f7d" stroke-width="0.6"/>
<circle cx="414.40" cy="635.79" r="7.21" fill="rgb(89,137,193)" fill-opacity="0.61" stroke="#1e4f7d" stroke-width="0.6"/>
<circle cx="100.00" cy="741.24" r="7.28" fill="rgb(89,136,192)" fill-opacity="0.61" stroke="#1e4f7d" stroke-width="0.6"/>
<circle cx="335.80" cy="731.66" r="7.28" fill="rgb(89,136,192)" fill-opacity="0.61" stroke="#1e4f7d" stroke-width="0.6"/>
<circle cx="257.20" cy="741.24" r="7.35" fill="rgb(88,135,192)" fill-opacity="0.61" stroke="#1e4f7d" stroke-width="0.6"/>
<circle cx="100.00" cy="731.66" r="7.48" fill="rgb(87,134,190)" fill-opacity="0.62" stroke="#1e4f7d" stroke-width="0.6"/>
<circle cx="414.40" cy="683.72" r="7.48" fill="rgb(87,134,190)" fill-opacity="0.62" stroke="#1e4f7d" stroke-width="0.6"/>
<circle cx="257.20" cy="750.83" r="7.60" fill="rgb(85,132,189)" fill-opacity="0.63" stroke="#1e4f7d" stroke-width="0.6"/>
<circle cx="414.40" cy="712.48" r="7.66" fill="rgb(85,132,189)" fill-opacity="0.63" stroke="#1e4f7d" stroke-width="0.6"/>
<circle cx="414.40" cy="654.97" r="7.66" fill="rgb(85,132,189)" fill-opacity="0.63" stroke="#1e4f7d" stroke-width="0.6"/>
<circle cx="100.00" cy="549.52" r="7.71" fill="rgb(84,131,189)" fill-opacity="0.64" stroke="#1e4f7d" stroke-width="0.6"/>
<circle cx="414.40" cy="702.90" r="7.71" fill="rgb(84,131,189)" fill-opacity="0.64" stroke="#1e4f7d" stroke-width="0.6"/>
<circle cx="178.60" cy="741.24" r="7.82" fill="rgb(83,130,188)" fill-opacity="0.64" stroke="#1e4f7d" stroke-width="0.6"/>
<circle cx="178.60" cy="520.76" r="7.82" fill="rgb(83,130,188)" fill-opacity="0.64" stroke="#1e4f7d" stroke-width="0.6"/>
<circle cx="178.60" cy="731.66" r="7.87" fill="rgb(83,130,187)" fill-opacity="0.65" stroke="#1e4f7d" stroke-width="0.6"/>
<circle cx="414.40" cy="674.14" r="7.87" fill="rgb(83,130,187)" fill-opacity="0.65" stroke="#1e4f7d" stroke-width="0.6"/>
<circle cx="414.40" cy="645.38" r="7.92" fill="rgb(82,129,187)" fill-opacity="0.65" stroke="#1e4f7d" stroke-width="0.6"/>
<circle cx="414.40" cy="693.31" r="8.01" fill="rgb(81,128,186)" fill-opacity="0.65" stroke="#1e4f7d" stroke-width="0.6"/>
<circle cx="335.80" cy="587.86" r="8.10" fill="rgb(81,127,185)" fill-opacity="0.66" stroke="#1e4f7d" stroke-width="0.6"/>
<circle cx="335.80" cy="597.45" r="8.10" fill="rgb(81,127,185)" fill-opacity="0.66" stroke="#1e4f7d" stroke-width="0.6"/>
<circle cx="257.20" cy="539.93" r="8.10" fill="rgb(81,127,185)" fill-opacity="0.66" stroke="#1e4f7d" stroke-width="0.6"/>
<circle cx="335.80" cy="722.07" r="8.22" fill="rgb(79,126,184)" fill-opacity="0.67" stroke="#1e4f7d" stroke-width="0.6"/>
<circle cx="257.20" cy="722.07" r="8.22" fill="rgb(79,126,184)" fill-opacity="0.67" stroke="#1e4f7d" stroke-width="0.6"/>
<circle cx="100.00" cy="520.76" r="8.30" fill="rgb(79,125,184)" fill-opacity="0.67" stroke="#1e4f7d" stroke-width="0.6"/>
<circle cx="257.20" cy="549.52" r="8.37" fill="rgb(78,124,183)" fill-opacity="0.68" stroke="#1e4f7d" stroke-width="0.6"/>
<circle cx="100.00" cy="722.07" r="8.41" fill="rgb(77,124,183)" fill-opacity="0.68" stroke="#1e4f7d" stroke-width="0.6"/>
<circle cx="335.80" cy="712.48" r="8.44" fill="rgb(77,124,182)" fill-opacity="0.68" stroke="#1e4f7d" stroke-width="0.6"/>
<circle cx="257.20" cy="731.66" r="8.44" fill="rgb(77,124,182)" fill-opacity="0.68" stroke="#1e4f7d" stroke-width="0.6"/>
<circle cx="178.60" cy="511.17" r="8.47" fill="rgb(77,123,182)" fill-opacity="0.68" stroke="#1e4f7d" stroke-width="0.6"/>
<circle cx="335.80" cy="607.03" r="8.54" fill="rgb(76,123,182)" fill-opacity="0.69" stroke="#1e4f7d" stroke-width="0.6"/>
<circle cx="257.20" cy="559.10" r="8.54" fill="rgb(76,123,182)" fill-opacity="0.69" stroke="#1e4f7d" stroke-width="0.6"/>
<circle cx="178.60" cy="722.07" r="8.57" fill="rgb(76,122,181)" fill-opacity="0.69" stroke="#1e4f7d" stroke-width="0.6"/>
<circle cx="335.80" cy="702.90" r="8.69" fill="rgb(75,121,180)" fill-opacity="0.70" stroke="#1e4f7d" stroke-width="0.6"/>
<circle cx="100.00" cy="539.93" r="8.69" fill="rgb(75,121,180)" fill-opacity="0.70" stroke="#1e4f7d" stroke-width="0.6"/>
<circle cx="335.80" cy="616.62" r="8.72" fill="rgb(74,121,180)" fill-opacity="0.70" stroke="#1e4f7d" stroke-width="0.6"/>
<circle cx="178.60" cy="530.34" r="8.78" fill="rgb(74,120,180)" fill-opacity="0.70" stroke="#1e4f7d" stroke-width="0.6"/>
<circle cx="257.20" cy="568.69" r="8.86" fill="rgb(73,119,179)" fill-opacity="0.71" stroke="#1e4f7d" stroke-width="0.6"/>
<circle cx="335.80" cy="693.31" r="8.94" fill="rgb(72,118,178)" fill-opacity="0.71" stroke="#1e4f7d" stroke-width="0.6"/>
<circle cx="100.00" cy="568.69" r="9.04" fill="rgb(71,117,178)" fill-opacity="0.72" stroke="#1e4f7d" stroke-width="0.6"/>
<circle cx="335.80" cy="626.21" r="9.06" fill="rgb(71,117,177)" fill-opacity="0.72" stroke="#1e4f7d" stroke-width="0.6"/>
<circle cx="178.60" cy="549.52" r="9.09" fill="rgb(71,117,177)" fill-opacity="0.72" stroke="#1e4f7d" stroke-width="0.6"/>
<circle cx="100.00" cy="587.86" r="9.11" fill="rgb(70,117,177)" fill-opacity="0.72" stroke="#1e4f7d" stroke-width="0.6"/>
<circle cx="257.20" cy="712.48" r="9.13" fill="rgb(70,116,177)" fill-opacity="0.72" stroke="#1e4f7d" stroke-width="0.6"/>
<circle cx="100.00" cy="712.48" r="9.13" fill="rgb(70,116,177)" fill-opacity="0.72" stroke="#1e4f7d" stroke-width="0.6"/>
<circle cx="335.80" cy="645.38" r="9.18" fill="rgb(70,116,176)" fill-opacity="0.73" stroke="#1e4f7d" stroke-width="0.6"/>
<circle cx="178.60" cy="712.48" r="9.18" fill="rgb(70,116,176)" fill-opacity="0.73" stroke="#1e4f7d" stroke-width="0.6"/>
<circle cx="335.80" cy="635.79" r="9.22" fill="rgb(69,115,176)" fill-opacity="0.73" stroke="#1e4f7d" stroke-width="0.6"/>
<circle cx="335.80" cy="654.97" r="9.22" fill="rgb(69,115,176)" fill-opacity="0.73" stroke="#1e4f7d" stroke-width="0.6"/>
<circle cx="257.20" cy="578.28" r="9.22" fill="rgb(69,115,176)" fill-opacity="0.73" stroke="#1e4f7d" stroke-width="0.6"/>
<circle cx="178.60" cy="539.93" r="9.26" fill="rgb(69,115,176)" fill-opacity="0.73" stroke="#1e4f7d" stroke-width="0.6"/>
<circle cx="100.00" cy="559.10" r="9.28" fill="rgb(69,115,175)" fill-opacity="0.73" stroke="#1e4f7d" stroke-width="0.6"/>
<circle cx="335.80" cy="683.72" r="9.30" fill="rgb(68,115,175)" fill-opacity="0.73" stroke="#1e4f7d" stroke-width="0.6"/>
<circle cx="335.80" cy="664.55" r="9.46" fill="rgb(67,113,174)" fill-opacity="0.74" stroke="#1e4f7d" stroke-width="0.6"/>
<circle cx="257.20" cy="587.86" r="9.47" fill="rgb(67,113,174)" fill-opacity="0.74" stroke="#1e4f7d" stroke-width="0.6"/>
<circle cx="257.20" cy="702.90" r="9.58" fill="rgb(66,112,173)" fill-opacity="0.75" stroke="#1e4f7d" stroke-width="0.6"/>
<circle cx="335.80" cy="674.14" r="9.60" fill="rgb(66,111,173)" fill-opacity="0.75" stroke="#1e4f7d" stroke-width="0.6"/>
<circle cx="100.00" cy="702.90" r="9.60" fill="rgb(66,111,173)" fill-opacity="0.75" stroke="#1e4f7d" stroke-width="0.6"/>
<circle cx="178.60" cy="559.10" r="9.82" fill="rgb(63,109,171)" fill-opacity="0.77" stroke="#1e4f7d" stroke-width="0.6"/>
<circle cx="178.60" cy="702.90" r="9.86" fill="rgb(63,109,171)" fill-opacity="0.77" stroke="#1e4f7d" stroke-width="0.6"/>
<circle cx="100.00" cy="607.03" r="10.01" fill="rgb(61,107,169)" fill-opacity="0.78" stroke="#1e4f7d" stroke-width="0.6"/>
<circle cx="257.20" cy="693.31" r="10.04" fill="rgb(61,107,169)" fill-opacity="0.78" stroke="#1e4f7d" stroke-width="0.6"/>
<circle cx="257.20" cy="607.03" r="10.05" fill="rgb(61,107,169)" fill-opacity="0.78" stroke="#1e4f7d" stroke-width="0.6"/>
<circle cx="257.20" cy="597.45" r="10.05" fill="rgb(61,107,169)" fill-opacity="0.78" stroke="#1e4f7d" stroke-width="0.6"/>
<circle cx="178.60" cy="568.69" r="10.08" fill="rgb(61,106,169)" fill-opacity="0.78" stroke="#1e4f7d" stroke-width="0.6"/>
<circle cx="257.20" cy="616.62" r="10.09" fill="rgb(61,106,169)" fill-opacity="0.78" stroke="#1e4f7d" stroke-width="0.6"/>
<circle cx="100.00" cy="693.31" r="10.21" fill="rgb(59,105,168)" fill-opacity="0.79" stroke="#1e4f7d" stroke-width="0.6"/>
<circle cx="257.20" cy="674.14" r="10.22" fill="rgb(59,105,168)" fill-opacity="0.79" stroke="#1e4f7d" stroke-width="0.6"/>
<circle cx="178.60" cy="693.31" r="10.23" fill="rgb(59,105,168)" fill-opacity="0.79" stroke="#1e4f7d" stroke-width="0.6"/>
<circle cx="100.00" cy="578.28" r="10.23" fill="rgb(59,105,168)" fill-opacity="0.79" stroke="#1e4f7d" stroke-width="0.6"/>
<circle cx="100.00" cy="683.72" r="10.23" fill="rgb(59,105,168)" fill-opacity="0.79" stroke="#1e4f7d" stroke-width="0.6"/>
<circle cx="257.20" cy="635.79" r="10.24" fill="rgb(59,105,167)" fill-opacity="0.79" stroke="#1e4f7d" stroke-width="0.6"/>
<circle cx="178.60" cy="683.72" r="10.31" fill="rgb(58,104,167)" fill-opacity="0.80" stroke="#1e4f7d" stroke-width="0.6"/>
<circle cx="100.00" cy="626.21" r="10.37" fill="rgb(58,103,166)" fill-opacity="0.80" stroke="#1e4f7d" stroke-width="0.6"/>
<circle cx="257.20" cy="683.72" r="10.37" fill="rgb(58,103,166)" fill-opacity="0.80" stroke="#1e4f7d" stroke-width="0.6"/>
<circle cx="257.20" cy="645.38" r="10.38" fill="rgb(58,103,166)" fill-opacity="0.80" stroke="#1e4f7d" stroke-width="0.6"/>
<circle cx="178.60" cy="674.14" r="10.39" fill="rgb(58,103,166)" fill-opacity="0.80" stroke="#1e4f7d" stroke-width="0.6"/>
<circle cx="257.20" cy="626.21" r="10.42" fill="rgb(57,103,166)" fill-opacity="0.80" stroke="#1e4f7d" stroke-width="0.6"/>
<circle cx="100.00" cy="645.38" r="10.47" fill="rgb(57,102,166)" fill-opacity="0.81" stroke="#1e4f7d" stroke-width="0.6"/>
<circle cx="178.60" cy="578.28" r="10.48" fill="rgb(57,102,166)" fill-opacity="0.81" stroke="#1e4f7d" stroke-width="0.6"/>
<circle cx="178.60" cy="587.86" r="10.48" fill="rgb(57,102,166)" fill-opacity="0.81" stroke="#1e4f7d" stroke-width="0.6"/>
<circle cx="100.00" cy="674.14" r="10.50" fill="rgb(56,102,165)" fill-opacity="0.81" stroke="#1e4f7d" stroke-width="0.6"/>
<circle cx="100.00" cy="664.55" r="10.59" fill="rgb(56,101,165)" fill-opacity="0.81" stroke="#1e4f7d" stroke-width="0.6"/>
<circle cx="257.20" cy="654.97" r="10.61" fill="rgb(55,101,164)" fill-opacity="0.81" stroke="#1e4f7d" stroke-width="0.6"/>
<circle cx="257.20" cy="664.55" r="10.63" fill="rgb(55,101,164)" fill-opacity="0.81" stroke="#1e4f7d" stroke-width="0.6"/>
<circle cx="100.00" cy="597.45" r="10.67" fill="rgb(55,100,164)" fill-opacity="0.82" stroke="#1e4f7d" stroke-width="0.6"/>
<circle cx="178.60" cy="664.55" r="10.68" fill="rgb(55,100,164)" fill-opacity="0.82" stroke="#1e4f7d" stroke-width="0.6"/>
<circle cx="178.60" cy="597.45" r="10.70" fill="rgb(55,100,164)" fill-opacity="0.82" stroke="#1e4f7d" stroke-width="0.6"/>
<circle cx="178.60" cy="635.79" r="10.74" fill="rgb(54,99,163)" fill-opacity="0.82" stroke="#1e4f7d" stroke-width="0.6"/>
<circle cx="178.60" cy="616.62" r="10.83" fill="rgb(53,98,163)" fill-opacity="0.83" stroke="#1e4f7d" stroke-width="0.6"/>
<circle cx="178.60" cy="654.97" r="10.85" fill="rgb(53,98,162)" fill-opacity="0.83" stroke="#1e4f7d" stroke-width="0.6"/>
<circle cx="100.00" cy="654.97" r="10.90" fill="rgb(52,98,162)" fill-opacity="0.83" stroke="#1e4f7d" stroke-width="0.6"/>
<circle cx="178.60" cy="626.21" r="10.97" fill="rgb(52,97,161)" fill-opacity="0.84" stroke="#1e4f7d" stroke-width="0.6"/>
<circle cx="178.60" cy="607.03" r="11.03" fill="rgb(51,96,161)" fill-opacity="0.84" stroke="#1e4f7d" stroke-width="0.6"/>
<circle cx="178.60" cy="645.38" r="11.05" fill="rgb(51,96,161)" fill-opacity="0.84" stroke="#1e4f7d" stroke-width="0.6"/>
<circle cx="100.00" cy="616.62" r="11.06" fill="rgb(51,96,161)" fill-opacity="0.84" stroke="#1e4f7d" stroke-width="0.6"/>
<circle cx="100.00" cy="635.79" r="11.20" fill="rgb(50,95,160)" fill-opacity="0.85" stroke="#1e4f7d" stroke-width="0.6"/>
<text x="493.0" y="828" text-anchor="middle" font-size="16" font-family="Arial">Number of active H atoms per molecule</text>
<text x="34" y="492.0" text-anchor="middle" font-size="16" font-family="Arial" transform="rotate(-90 34 492.0)">Number of non-active H atoms per molecule</text>
<text x="493.0" y="62" text-anchor="middle" font-size="13" font-family="Arial">Active-H marginal distribution</text>
<text x="985.0" y="206" text-anchor="middle" font-size="13" font-family="Arial">Non-active-H marginal distribution</text>
<text x="110" y="236" text-anchor="start" font-size="12" font-family="Arial" fill="#555">Dashed lines: means (1.34, 13.77)</text>
<text x="110" y="254" text-anchor="start" font-size="12" font-family="Arial" fill="#555">Bubble size/color: frequency of each pair</text>
</svg>