<svg xmlns="http://www.w3.org/2000/svg" width="1100" height="860" viewBox="0 0 1100 860">
<rect x="0" y="0" width="100%" height="100%" fill="white"/>
<text x="550" y="36" text-anchor="middle" font-size="24" font-family="Arial">Number of Rings vs Heavy Atoms (10000 Random Molecules)</text>
<rect x="100" y="214" width="786" height="556" fill="white" stroke="#222" stroke-width="2"/>
<rect x="100" y="70" width="786" height="120" fill="white" stroke="#222" stroke-width="1.5"/>
<rect x="910" y="214" width="150" height="556" fill="white" stroke="#222" stroke-width="1.5"/>
<line x1="100.00" y1="214" x2="100.00" y2="770" stroke="#e0e0e0" stroke-width="1"/>
<text x="100.00" y="792" text-anchor="middle" font-size="11" font-family="Arial">0</text>
<line x1="198.25" y1="214" x2="198.25" y2="770" stroke="#e0e0e0" stroke-width="1"/>
<text x="198.25" y="792" text-anchor="middle" font-size="11" font-family="Arial">4</text>
<line x1="296.50" y1="214" x2="296.50" y2="770" stroke="#e0e0e0" stroke-width="1"/>
<text x="296.50" y="792" text-anchor="middle" font-size="11" font-family="Arial">8</text>
<line x1="394.75" y1="214" x2="394.75" y2="770" stroke="#e0e0e0" stroke-width="1"/>
<text x="394.75" y="792" text-anchor="middle" font-size="11" font-family="Arial">12</text>
<line x1="493.00" y1="214" x2="493.00" y2="770" stroke="#e0e0e0" stroke-width="1"/>
<text x="493.00" y="792" text-anchor="middle" font-size="11" font-family="Arial">16</text>
<line x1="591.25" y1="214" x2="591.25" y2="770" stroke="#e0e0e0" stroke-width="1"/>
<text x="591.25" y="792" text-anchor="middle" font-size="11" font-family="Arial">20</text>
<line x1="689.50" y1="214" x2="689.50" y2="770" stroke="#e0e0e0" stroke-width="1"/>
<text x="689.50" y="792" text-anchor="middle" font-size="11" font-family="Arial">24</text>
<line x1="787.75" y1="214" x2="787.75" y2="770" stroke="#e0e0e0" stroke-width="1"/>
<text x="787.75" y="792" text-anchor="middle" font-size="11" font-family="Arial">28</text>
<line x1="886.00" y1="214" x2="886.00" y2="770" stroke="#e0e0e0" stroke-width="1"/>
<text x="886.00" y="792" text-anchor="middle" font-size="11" font-family="Arial">32</text>
<line x1="100" y1="770.00" x2="886" y2="770.00" stroke="#e0e0e0" stroke-width="1"/>
<text x="88" y="774.00" text-anchor="end" font-size="11" font-family="Arial">0</text>
<line x1="100" y1="690.57" x2="886" y2="690.57" stroke="#e0e0e0" stroke-width="1"/>
<text x="88" y="694.57" text-anchor="end" font-size="11" font-family="Arial">1</text>
<line x1="100" y1="611.14" x2="886" y2="611.14" stroke="#e0e0e0" stroke-width="1"/>
<text x="88" y="615.14" text-anchor="end" font-size="11" font-family="Arial">2</text>
<line x1="100" y1="531.71" x2="886" y2="531.71" stroke="#e0e0e0" stroke-width="1"/>
<text x="88" y="535.71" text-anchor="end" font-size="11" font-family="Arial">3</text>
<line x1="100" y1="452.29" x2="886" y2="452.29" stroke="#e0e0e0" stroke-width="1"/>
<text x="88" y="456.29" text-anchor="end" font-size="11" font-family="Arial">4</text>
<line x1="100" y1="372.86" x2="886" y2="372.86" stroke="#e0e0e0" stroke-width="1"/>
<text x="88" y="376.86" text-anchor="end" font-size="11" font-family="Arial">5</text>
<line x1="100" y1="293.43" x2="886" y2="293.43" stroke="#e0e0e0" stroke-width="1"/>
<text x="88" y="297.43" text-anchor="end" font-size="11" font-family="Arial">6</text>
<line x1="100" y1="214.00" x2="886" y2="214.00" stroke="#e0e0e0" stroke-width="1"/>
<text x="88" y="218.00" text-anchor="end" font-size="11" font-family="Arial">7</text>
<line x1="447.71" y1="214" x2="447.71" y2="770" stroke="#555" stroke-width="1.5" stroke-dasharray="6,5"/>
<line x1="100" y1="655.83" x2="886" y2="655.83" stroke="#555" stroke-width="1.5" stroke-dasharray="6,5"/>
<rect x="101.50" y="190.00" width="20.82" height="0.00" fill="#4c78a8"/>
<rect x="125.32" y="190.00" width="20.82" height="0.00" fill="#4c78a8"/>
<rect x="149.14" y="190.00" width="20.82" height="0.00" fill="#4c78a8"/>
<rect x="172.95" y="189.69" width="20.82" height="0.31" fill="#4c78a8"/>
<rect x="196.77" y="189.94" width="20.82" height="0.06" fill="#4c78a8"/>
<rect x="220.59" y="189.06" width="20.82" height="0.94" fill="#4c78a8"/>
<rect x="244.41" y="187.80" width="20.82" height="2.20" fill="#4c78a8"/>
<rect x="268.23" y="184.47" width="20.82" height="5.53" fill="#4c78a8"/>
<rect x="292.05" y="179.18" width="20.82" height="10.82" fill="#4c78a8"/>
<rect x="315.86" y="174.09" width="20.82" height="15.91" fill="#4c78a8"/>
<rect x="339.68" y="163.71" width="20.82" height="26.29" fill="#4c78a8"/>
<rect x="363.50" y="152.58" width="20.82" height="37.42" fill="#4c78a8"/>
<rect x="387.32" y="138.43" width="20.82" height="51.57" fill="#4c78a8"/>
<rect x="411.14" y="123.46" width="20.82" height="66.54" fill="#4c78a8"/>
<rect x="434.95" y="99.56" width="20.82" height="90.44" fill="#4c78a8"/>
<rect x="458.77" y="90.88" width="20.82" height="99.12" fill="#4c78a8"/>
<rect x="482.59" y="80.00" width="20.82" height="110.00" fill="#4c78a8"/>
<rect x="506.41" y="97.17" width="20.82" height="92.83" fill="#4c78a8"/>
<rect x="530.23" y="177.67" width="20.82" height="12.33" fill="#4c78a8"/>
<rect x="554.05" y="189.25" width="20.82" height="0.75" fill="#4c78a8"/>
<rect x="577.86" y="187.86" width="20.82" height="2.14" fill="#4c78a8"/>
<rect x="601.68" y="189.18" width="20.82" height="0.82" fill="#4c78a8"/>
<rect x="625.50" y="188.99" width="20.82" height="1.01" fill="#4c78a8"/>
<rect x="649.32" y="189.50" width="20.82" height="0.50" fill="#4c78a8"/>
<rect x="673.14" y="189.62" width="20.82" height="0.38" fill="#4c78a8"/>
<rect x="696.95" y="189.62" width="20.82" height="0.38" fill="#4c78a8"/>
<rect x="720.77" y="189.87" width="20.82" height="0.13" fill="#4c78a8"/>
<rect x="744.59" y="189.87" width="20.82" height="0.13" fill="#4c78a8"/>
<rect x="768.41" y="189.81" width="20.82" height="0.19" fill="#4c78a8"/>
<rect x="792.23" y="190.00" width="20.82" height="0.00" fill="#4c78a8"/>
<rect x="816.05" y="189.94" width="20.82" height="0.06" fill="#4c78a8"/>
<rect x="839.86" y="190.00" width="20.82" height="0.00" fill="#4c78a8"/>
<rect x="863.68" y="189.87" width="20.82" height="0.13" fill="#4c78a8"/>
<rect x="910" y="702.00" width="39.89" height="66.50" fill="#b279a2"/>
<rect x="910" y="632.50" width="140.00" height="66.50" fill="#b279a2"/>
<rect x="910" y="563.00" width="126.52" height="66.50" fill="#b279a2"/>
<rect x="910" y="493.50" width="24.81" height="66.50" fill="#b279a2"/>
<rect x="910" y="424.00" width="2.67" height="66.50" fill="#b279a2"/>
<rect x="910" y="354.50" width="0.40" height="66.50" fill="#b279a2"/>
<rect x="910" y="285.00" width="0.03" height="66.50" fill="#b279a2"/>
<rect x="910" y="215.50" width="0.03" height="66.50" fill="#b279a2"/>
<circle cx="886.00" cy="372.86" r="3.11" fill="rgb(157,198,236)" fill-opacity="0.36" stroke="#2a5c8a" stroke-width="0.6"/>
<circle cx="542.12" cy="770.00" r="3.11" fill="rgb(157,198,236)" fill-opacity="0.36" stroke="#2a5c8a" stroke-width="0.6"/>
<circle cx="542.12" cy="293.43" r="3.11" fill="rgb(157,198,236)" fill-opacity="0.36" stroke="#2a5c8a" stroke-width="0.6"/>
<circle cx="542.12" cy="214.00" r="3.11" fill="rgb(157,198,236)" fill-opacity="0.36" stroke="#2a5c8a" stroke-width="0.6"/>
<circle cx="566.69" cy="690.57" r="3.11" fill="rgb(157,198,236)" fill-opacity="0.36" stroke="#2a5c8a" stroke-width="0.6"/>
<circle cx="566.69" cy="452.29" r="3.11" fill="rgb(157,198,236)" fill-opacity="0.36" stroke="#2a5c8a" stroke-width="0.6"/>
<circle cx="615.81" cy="770.00" r="3.11" fill="rgb(157,198,236)" fill-opacity="0.36" stroke="#2a5c8a" stroke-width="0.6"/>
<circle cx="615.81" cy="690.57" r="3.11" fill="rgb(157,198,236)" fill-opacity="0.36" stroke="#2a5c8a" stroke-width="0.6"/>
<circle cx="615.81" cy="611.14" r="3.11" fill="rgb(157,198,236)" fill-opacity="0.36" stroke="#2a5c8a" stroke-width="0.6"/>
<circle cx="370.19" cy="452.29" r="3.11" fill="rgb(157,198,236)" fill-opacity="0.36" stroke="#2a5c8a" stroke-width="0.6"/>
<circle cx="886.00" cy="611.14" r="3.11" fill="rgb(157,198,236)" fill-opacity="0.36" stroke="#2a5c8a" stroke-width="0.6"/>
<circle cx="689.50" cy="531.71" r="3.11" fill="rgb(157,198,236)" fill-opacity="0.36" stroke="#2a5c8a" stroke-width="0.6"/>
<circle cx="468.44" cy="372.86" r="3.11" fill="rgb(157,198,236)" fill-opacity="0.36" stroke="#2a5c8a" stroke-width="0.6"/>
<circle cx="763.19" cy="531.71" r="3.11" fill="rgb(157,198,236)" fill-opacity="0.36" stroke="#2a5c8a" stroke-width="0.6"/>
<circle cx="714.06" cy="611.14" r="3.11" fill="rgb(157,198,236)" fill-opacity="0.36" stroke="#2a5c8a" stroke-width="0.6"/>
<circle cx="198.25" cy="770.00" r="3.11" fill="rgb(157,198,236)" fill-opacity="0.36" stroke="#2a5c8a" stroke-width="0.6"/>
<circle cx="836.88" cy="452.29" r="3.11" fill="rgb(157,198,236)" fill-opacity="0.36" stroke="#2a5c8a" stroke-width="0.6"/>
<circle cx="763.19" cy="452.29" r="3.11" fill="rgb(157,198,236)" fill-opacity="0.36" stroke="#2a5c8a" stroke-width="0.6"/>
<circle cx="296.50" cy="372.86" r="3.11" fill="rgb(157,198,236)" fill-opacity="0.36" stroke="#2a5c8a" stroke-width="0.6"/>
<circle cx="738.62" cy="452.29" r="3.11" fill="rgb(157,198,236)" fill-opacity="0.36" stroke="#2a5c8a" stroke-width="0.6"/>
<circle cx="271.94" cy="452.29" r="3.11" fill="rgb(157,198,236)" fill-opacity="0.36" stroke="#2a5c8a" stroke-width="0.6"/>
<circle cx="738.62" cy="690.57" r="3.11" fill="rgb(157,198,236)" fill-opacity="0.36" stroke="#2a5c8a" stroke-width="0.6"/>
<circle cx="394.75" cy="372.86" r="3.64" fill="rgb(150,191,231)" fill-opacity="0.39" stroke="#2a5c8a" stroke-width="0.6"/>
<circle cx="689.50" cy="452.29" r="3.64" fill="rgb(150,191,231)" fill-opacity="0.39" stroke="#2a5c8a" stroke-width="0.6"/>
<circle cx="640.38" cy="690.57" r="3.64" fill="rgb(150,191,231)" fill-opacity="0.39" stroke="#2a5c8a" stroke-width="0.6"/>
<circle cx="664.94" cy="611.14" r="3.64" fill="rgb(150,191,231)" fill-opacity="0.39" stroke="#2a5c8a" stroke-width="0.6"/>
<circle cx="664.94" cy="452.29" r="3.64" fill="rgb(150,191,231)" fill-opacity="0.39" stroke="#2a5c8a" stroke-width="0.6"/>
<circle cx="566.69" cy="531.71" r="4.02" fill="rgb(145,186,227)" fill-opacity="0.41" stroke="#2a5c8a" stroke-width="0.6"/>
<circle cx="640.38" cy="531.71" r="4.02" fill="rgb(145,186,227)" fill-opacity="0.41" stroke="#2a5c8a" stroke-width="0.6"/>
<circle cx="591.25" cy="770.00" r="4.02" fill="rgb(145,186,227)" fill-opacity="0.41" stroke="#2a5c8a" stroke-width="0.6"/>
<circle cx="689.50" cy="611.14" r="4.02" fill="rgb(145,186,227)" fill-opacity="0.41" stroke="#2a5c8a" stroke-width="0.6"/>
<circle cx="787.75" cy="770.00" r="4.02" fill="rgb(145,186,227)" fill-opacity="0.41" stroke="#2a5c8a" stroke-width="0.6"/>
<circle cx="222.81" cy="690.57" r="4.02" fill="rgb(145,186,227)" fill-opacity="0.41" stroke="#2a5c8a" stroke-width="0.6"/>
<circle cx="542.12" cy="372.86" r="4.02" fill="rgb(145,186,227)" fill-opacity="0.41" stroke="#2a5c8a" stroke-width="0.6"/>
<circle cx="517.56" cy="372.86" r="4.31" fill="rgb(141,183,225)" fill-opacity="0.43" stroke="#2a5c8a" stroke-width="0.6"/>
<circle cx="591.25" cy="531.71" r="4.31" fill="rgb(141,183,225)" fill-opacity="0.43" stroke="#2a5c8a" stroke-width="0.6"/>
<circle cx="664.94" cy="531.71" r="4.31" fill="rgb(141,183,225)" fill-opacity="0.43" stroke="#2a5c8a" stroke-width="0.6"/>
<circle cx="419.31" cy="452.29" r="4.31" fill="rgb(141,183,225)" fill-opacity="0.43" stroke="#2a5c8a" stroke-width="0.6"/>
<circle cx="321.06" cy="531.71" r="4.31" fill="rgb(141,183,225)" fill-opacity="0.43" stroke="#2a5c8a" stroke-width="0.6"/>
<circle cx="542.12" cy="690.57" r="4.31" fill="rgb(141,183,225)" fill-opacity="0.43" stroke="#2a5c8a" stroke-width="0.6"/>
<circle cx="615.81" cy="531.71" r="4.55" fill="rgb(138,179,222)" fill-opacity="0.44" stroke="#2a5c8a" stroke-width="0.6"/>
<circle cx="714.06" cy="531.71" r="4.55" fill="rgb(138,179,222)" fill-opacity="0.44" stroke="#2a5c8a" stroke-width="0.6"/>
<circle cx="615.81" cy="452.29" r="4.55" fill="rgb(138,179,222)" fill-opacity="0.44" stroke="#2a5c8a" stroke-width="0.6"/>
<circle cx="640.38" cy="611.14" r="4.55" fill="rgb(138,179,222)" fill-opacity="0.44" stroke="#2a5c8a" stroke-width="0.6"/>
<circle cx="173.69" cy="770.00" r="4.55" fill="rgb(138,179,222)" fill-opacity="0.44" stroke="#2a5c8a" stroke-width="0.6"/>
<circle cx="345.62" cy="531.71" r="4.55" fill="rgb(138,179,222)" fill-opacity="0.44" stroke="#2a5c8a" stroke-width="0.6"/>
<circle cx="468.44" cy="452.29" r="4.75" fill="rgb(135,177,220)" fill-opacity="0.46" stroke="#2a5c8a" stroke-width="0.6"/>
<circle cx="394.75" cy="452.29" r="4.75" fill="rgb(135,177,220)" fill-opacity="0.46" stroke="#2a5c8a" stroke-width="0.6"/>
<circle cx="640.38" cy="452.29" r="4.75" fill="rgb(135,177,220)" fill-opacity="0.46" stroke="#2a5c8a" stroke-width="0.6"/>
<circle cx="443.88" cy="452.29" r="4.75" fill="rgb(135,177,220)" fill-opacity="0.46" stroke="#2a5c8a" stroke-width="0.6"/>
<circle cx="566.69" cy="611.14" r="4.93" fill="rgb(133,175,219)" fill-opacity="0.47" stroke="#2a5c8a" stroke-width="0.6"/>
<circle cx="296.50" cy="611.14" r="4.93" fill="rgb(133,175,219)" fill-opacity="0.47" stroke="#2a5c8a" stroke-width="0.6"/>
<circle cx="370.19" cy="531.71" r="5.35" fill="rgb(128,169,215)" fill-opacity="0.49" stroke="#2a5c8a" stroke-width="0.6"/>
<circle cx="247.38" cy="690.57" r="5.35" fill="rgb(128,169,215)" fill-opacity="0.49" stroke="#2a5c8a" stroke-width="0.6"/>
<circle cx="542.12" cy="452.29" r="5.35" fill="rgb(128,169,215)" fill-opacity="0.49" stroke="#2a5c8a" stroke-width="0.6"/>
<circle cx="222.81" cy="770.00" r="5.57" fill="rgb(125,166,213)" fill-opacity="0.51" stroke="#2a5c8a" stroke-width="0.6"/>
<circle cx="591.25" cy="611.14" r="5.66" fill="rgb(123,165,212)" fill-opacity="0.51" stroke="#2a5c8a" stroke-width="0.6"/>
<circle cx="493.00" cy="452.29" r="5.66" fill="rgb(123,165,212)" fill-opacity="0.51" stroke="#2a5c8a" stroke-width="0.6"/>
<circle cx="591.25" cy="690.57" r="5.76" fill="rgb(122,164,211)" fill-opacity="0.52" stroke="#2a5c8a" stroke-width="0.6"/>
<circle cx="517.56" cy="452.29" r="5.76" fill="rgb(122,164,211)" fill-opacity="0.52" stroke="#2a5c8a" stroke-width="0.6"/>
<circle cx="394.75" cy="531.71" r="6.07" fill="rgb(118,160,208)" fill-opacity="0.54" stroke="#2a5c8a" stroke-width="0.6"/>
<circle cx="517.56" cy="770.00" r="6.26" fill="rgb(115,158,206)" fill-opacity="0.55" stroke="#2a5c8a" stroke-width="0.6"/>
<circle cx="321.06" cy="611.14" r="6.43" fill="rgb(113,156,205)" fill-opacity="0.56" stroke="#2a5c8a" stroke-width="0.6"/>
<circle cx="247.38" cy="770.00" r="6.48" fill="rgb(112,155,204)" fill-opacity="0.56" stroke="#2a5c8a" stroke-width="0.6"/>
<circle cx="419.31" cy="531.71" r="7.04" fill="rgb(105,148,199)" fill-opacity="0.60" stroke="#2a5c8a" stroke-width="0.6"/>
<circle cx="271.94" cy="690.57" r="7.08" fill="rgb(104,147,198)" fill-opacity="0.60" stroke="#2a5c8a" stroke-width="0.6"/>
<circle cx="271.94" cy="770.00" r="7.28" fill="rgb(102,145,197)" fill-opacity="0.61" stroke="#2a5c8a" stroke-width="0.6"/>
<circle cx="493.00" cy="770.00" r="7.39" fill="rgb(100,143,196)" fill-opacity="0.62" stroke="#2a5c8a" stroke-width="0.6"/>
<circle cx="345.62" cy="611.14" r="7.41" fill="rgb(100,143,195)" fill-opacity="0.62" stroke="#2a5c8a" stroke-width="0.6"/>
<circle cx="542.12" cy="611.14" r="7.68" fill="rgb(96,139,193)" fill-opacity="0.63" stroke="#2a5c8a" stroke-width="0.6"/>
<circle cx="443.88" cy="531.71" r="7.70" fill="rgb(96,139,193)" fill-opacity="0.64" stroke="#2a5c8a" stroke-width="0.6"/>
<circle cx="296.50" cy="770.00" r="7.95" fill="rgb(93,136,190)" fill-opacity="0.65" stroke="#2a5c8a" stroke-width="0.6"/>
<circle cx="296.50" cy="690.57" r="8.05" fill="rgb(92,135,189)" fill-opacity="0.66" stroke="#2a5c8a" stroke-width="0.6"/>
<circle cx="321.06" cy="770.00" r="8.18" fill="rgb(90,133,188)" fill-opacity="0.67" stroke="#2a5c8a" stroke-width="0.6"/>
<circle cx="468.44" cy="531.71" r="8.38" fill="rgb(87,130,186)" fill-opacity="0.68" stroke="#2a5c8a" stroke-width="0.6"/>
<circle cx="542.12" cy="531.71" r="8.41" fill="rgb(87,130,186)" fill-opacity="0.68" stroke="#2a5c8a" stroke-width="0.6"/>
<circle cx="370.19" cy="611.14" r="8.49" fill="rgb(86,129,185)" fill-opacity="0.68" stroke="#2a5c8a" stroke-width="0.6"/>
<circle cx="468.44" cy="770.00" r="8.57" fill="rgb(85,128,184)" fill-opacity="0.69" stroke="#2a5c8a" stroke-width="0.6"/>
<circle cx="345.62" cy="770.00" r="8.59" fill="rgb(84,128,184)" fill-opacity="0.69" stroke="#2a5c8a" stroke-width="0.6"/>
<circle cx="321.06" cy="690.57" r="8.61" fill="rgb(84,128,184)" fill-opacity="0.69" stroke="#2a5c8a" stroke-width="0.6"/>
<circle cx="394.75" cy="770.00" r="8.72" fill="rgb(83,126,183)" fill-opacity="0.70" stroke="#2a5c8a" stroke-width="0.6"/>
<circle cx="370.19" cy="770.00" r="8.72" fill="rgb(83,126,183)" fill-opacity="0.70" stroke="#2a5c8a" stroke-width="0.6"/>
<circle cx="443.88" cy="770.00" r="8.75" fill="rgb(82,126,183)" fill-opacity="0.70" stroke="#2a5c8a" stroke-width="0.6"/>
<circle cx="419.31" cy="770.00" r="8.90" fill="rgb(80,124,181)" fill-opacity="0.71" stroke="#2a5c8a" stroke-width="0.6"/>
<circle cx="493.00" cy="531.71" r="9.00" fill="rgb(79,123,180)" fill-opacity="0.72" stroke="#2a5c8a" stroke-width="0.6"/>
<circle cx="517.56" cy="531.71" r="9.00" fill="rgb(79,123,180)" fill-opacity="0.72" stroke="#2a5c8a" stroke-width="0.6"/>
<circle cx="394.75" cy="611.14" r="9.21" fill="rgb(76,120,178)" fill-opacity="0.73" stroke="#2a5c8a" stroke-width="0.6"/>
<circle cx="345.62" cy="690.57" r="9.36" fill="rgb(74,118,177)" fill-opacity="0.74" stroke="#2a5c8a" stroke-width="0.6"/>
<circle cx="419.31" cy="611.14" r="9.72" fill="rgb(69,113,173)" fill-opacity="0.76" stroke="#2a5c8a" stroke-width="0.6"/>
<circle cx="370.19" cy="690.57" r="9.79" fill="rgb(68,113,173)" fill-opacity="0.76" stroke="#2a5c8a" stroke-width="0.6"/>
<circle cx="394.75" cy="690.57" r="10.21" fill="rgb(63,107,169)" fill-opacity="0.79" stroke="#2a5c8a" stroke-width="0.6"/>
<circle cx="517.56" cy="690.57" r="10.23" fill="rgb(62,107,169)" fill-opacity="0.79" stroke="#2a5c8a" stroke-width="0.6"/>
<circle cx="443.88" cy="611.14" r="10.37" fill="rgb(61,105,167)" fill-opacity="0.80" stroke="#2a5c8a" stroke-width="0.6"/>
<circle cx="419.31" cy="690.57" r="10.48" fill="rgb(59,104,166)" fill-opacity="0.81" stroke="#2a5c8a" stroke-width="0.6"/>
<circle cx="493.00" cy="690.57" r="10.51" fill="rgb(59,103,166)" fill-opacity="0.81" stroke="#2a5c8a" stroke-width="0.6"/>
<circle cx="468.44" cy="690.57" r="10.64" fill="rgb(57,102,165)" fill-opacity="0.82" stroke="#2a5c8a" stroke-width="0.6"/>
<circle cx="468.44" cy="611.14" r="10.83" fill="rgb(54,99,163)" fill-opacity="0.83" stroke="#2a5c8a" stroke-width="0.6"/>
<circle cx="443.88" cy="690.57" r="10.83" fill="rgb(54,99,163)" fill-opacity="0.83" stroke="#2a5c8a" stroke-width="0.6"/>
<circle cx="517.56" cy="611.14" r="10.99" fill="rgb(52,97,162)" fill-opacity="0.84" stroke="#2a5c8a" stroke-width="0.6"/>
<circle cx="493.00" cy="611.14" r="11.20" fill="rgb(50,95,160)" fill-opacity="0.85" stroke="#2a5c8a" stroke-width="0.6"/>
<text x="493.0" y="828" text-anchor="middle" font-size="16" font-family="Arial">Number of heavy atoms per molecule</text>
<text x="34" y="492.0" text-anchor="middle" font-size="16" font-family="Arial" transform="rotate(-90 34 492.0)">Number of rings per molecule</text>
<text x="493.0" y="62" text-anchor="middle" font-size="13" font-family="Arial">Heavy-atom marginal distribution</text>
<text x="985.0" y="206" text-anchor="middle" font-size="13" font-family="Arial">Ring-count marginal distribution</text>
<text x="110" y="236" text-anchor="start" font-size="12" font-family="Arial" fill="#555">Dashed lines: means (14.16, 1.44)</text>
<text x="110" y="254" text-anchor="start" font-size="12" font-family="Arial" fill="#555">Bubble size/color: frequency of each pair</text>
</svg>