<svg xmlns="http://www.w3.org/2000/svg" width="1100" height="860" viewBox="0 0 1100 860">
<rect x="0" y="0" width="100%" height="100%" fill="white"/>
<text x="550" y="36" text-anchor="middle" font-size="24" font-family="Arial">Max Ring Size vs Heavy Atoms (10000 Random Molecules)</text>
<rect x="100" y="214" width="786" height="556" fill="white" stroke="#222" stroke-width="2"/>
<rect x="100" y="70" width="786" height="120" fill="white" stroke="#222" stroke-width="1.5"/>
<rect x="910" y="214" width="150" height="556" fill="white" stroke="#222" stroke-width="1.5"/>
<line x1="100.00" y1="214" x2="100.00" y2="770" stroke="#e0e0e0" stroke-width="1"/>
<text x="100.00" y="792" text-anchor="middle" font-size="11" font-family="Arial">0</text>
<line x1="198.25" y1="214" x2="198.25" y2="770" stroke="#e0e0e0" stroke-width="1"/>
<text x="198.25" y="792" text-anchor="middle" font-size="11" font-family="Arial">4</text>
<line x1="296.50" y1="214" x2="296.50" y2="770" stroke="#e0e0e0" stroke-width="1"/>
<text x="296.50" y="792" text-anchor="middle" font-size="11" font-family="Arial">8</text>
<line x1="394.75" y1="214" x2="394.75" y2="770" stroke="#e0e0e0" stroke-width="1"/>
<text x="394.75" y="792" text-anchor="middle" font-size="11" font-family="Arial">12</text>
<line x1="493.00" y1="214" x2="493.00" y2="770" stroke="#e0e0e0" stroke-width="1"/>
<text x="493.00" y="792" text-anchor="middle" font-size="11" font-family="Arial">16</text>
<line x1="591.25" y1="214" x2="591.25" y2="770" stroke="#e0e0e0" stroke-width="1"/>
<text x="591.25" y="792" text-anchor="middle" font-size="11" font-family="Arial">20</text>
<line x1="689.50" y1="214" x2="689.50" y2="770" stroke="#e0e0e0" stroke-width="1"/>
<text x="689.50" y="792" text-anchor="middle" font-size="11" font-family="Arial">24</text>
<line x1="787.75" y1="214" x2="787.75" y2="770" stroke="#e0e0e0" stroke-width="1"/>
<text x="787.75" y="792" text-anchor="middle" font-size="11" font-family="Arial">28</text>
<line x1="886.00" y1="214" x2="886.00" y2="770" stroke="#e0e0e0" stroke-width="1"/>
<text x="886.00" y="792" text-anchor="middle" font-size="11" font-family="Arial">32</text>
<line x1="100" y1="770.00" x2="886" y2="770.00" stroke="#e0e0e0" stroke-width="1"/>
<text x="88" y="774.00" text-anchor="end" font-size="11" font-family="Arial">0</text>
<line x1="100" y1="690.57" x2="886" y2="690.57" stroke="#e0e0e0" stroke-width="1"/>
<text x="88" y="694.57" text-anchor="end" font-size="11" font-family="Arial">2</text>
<line x1="100" y1="611.14" x2="886" y2="611.14" stroke="#e0e0e0" stroke-width="1"/>
<text x="88" y="615.14" text-anchor="end" font-size="11" font-family="Arial">4</text>
<line x1="100" y1="531.71" x2="886" y2="531.71" stroke="#e0e0e0" stroke-width="1"/>
<text x="88" y="535.71" text-anchor="end" font-size="11" font-family="Arial">6</text>
<line x1="100" y1="452.29" x2="886" y2="452.29" stroke="#e0e0e0" stroke-width="1"/>
<text x="88" y="456.29" text-anchor="end" font-size="11" font-family="Arial">8</text>
<line x1="100" y1="372.86" x2="886" y2="372.86" stroke="#e0e0e0" stroke-width="1"/>
<text x="88" y="376.86" text-anchor="end" font-size="11" font-family="Arial">10</text>
<line x1="100" y1="293.43" x2="886" y2="293.43" stroke="#e0e0e0" stroke-width="1"/>
<text x="88" y="297.43" text-anchor="end" font-size="11" font-family="Arial">12</text>
<line x1="100" y1="214.00" x2="886" y2="214.00" stroke="#e0e0e0" stroke-width="1"/>
<text x="88" y="218.00" text-anchor="end" font-size="11" font-family="Arial">14</text>
<line x1="447.71" y1="214" x2="447.71" y2="770" stroke="#555" stroke-width="1.5" stroke-dasharray="6,5"/>
<line x1="100" y1="567.89" x2="886" y2="567.89" stroke="#555" stroke-width="1.5" stroke-dasharray="6,5"/>
<rect x="101.50" y="190.00" width="20.82" height="0.00" fill="#e8871e"/>
<rect x="125.32" y="190.00" width="20.82" height="0.00" fill="#e8871e"/>
<rect x="149.14" y="190.00" width="20.82" height="0.00" fill="#e8871e"/>
<rect x="172.95" y="189.69" width="20.82" height="0.31" fill="#e8871e"/>
<rect x="196.77" y="189.94" width="20.82" height="0.06" fill="#e8871e"/>
<rect x="220.59" y="189.06" width="20.82" height="0.94" fill="#e8871e"/>
<rect x="244.41" y="187.80" width="20.82" height="2.20" fill="#e8871e"/>
<rect x="268.23" y="184.47" width="20.82" height="5.53" fill="#e8871e"/>
<rect x="292.05" y="179.18" width="20.82" height="10.82" fill="#e8871e"/>
<rect x="315.86" y="174.09" width="20.82" height="15.91" fill="#e8871e"/>
<rect x="339.68" y="163.71" width="20.82" height="26.29" fill="#e8871e"/>
<rect x="363.50" y="152.58" width="20.82" height="37.42" fill="#e8871e"/>
<rect x="387.32" y="138.43" width="20.82" height="51.57" fill="#e8871e"/>
<rect x="411.14" y="123.46" width="20.82" height="66.54" fill="#e8871e"/>
<rect x="434.95" y="99.56" width="20.82" height="90.44" fill="#e8871e"/>
<rect x="458.77" y="90.88" width="20.82" height="99.12" fill="#e8871e"/>
<rect x="482.59" y="80.00" width="20.82" height="110.00" fill="#e8871e"/>
<rect x="506.41" y="97.17" width="20.82" height="92.83" fill="#e8871e"/>
<rect x="530.23" y="177.67" width="20.82" height="12.33" fill="#e8871e"/>
<rect x="554.05" y="189.25" width="20.82" height="0.75" fill="#e8871e"/>
<rect x="577.86" y="187.86" width="20.82" height="2.14" fill="#e8871e"/>
<rect x="601.68" y="189.18" width="20.82" height="0.82" fill="#e8871e"/>
<rect x="625.50" y="188.99" width="20.82" height="1.01" fill="#e8871e"/>
<rect x="649.32" y="189.50" width="20.82" height="0.50" fill="#e8871e"/>
<rect x="673.14" y="189.62" width="20.82" height="0.38" fill="#e8871e"/>
<rect x="696.95" y="189.62" width="20.82" height="0.38" fill="#e8871e"/>
<rect x="720.77" y="189.87" width="20.82" height="0.13" fill="#e8871e"/>
<rect x="744.59" y="189.87" width="20.82" height="0.13" fill="#e8871e"/>
<rect x="768.41" y="189.81" width="20.82" height="0.19" fill="#e8871e"/>
<rect x="792.23" y="190.00" width="20.82" height="0.00" fill="#e8871e"/>
<rect x="816.05" y="189.94" width="20.82" height="0.06" fill="#e8871e"/>
<rect x="839.86" y="190.00" width="20.82" height="0.00" fill="#e8871e"/>
<rect x="863.68" y="189.87" width="20.82" height="0.13" fill="#e8871e"/>
<rect x="910" y="734.43" width="25.59" height="34.07" fill="#5b8abf"/>
<rect x="910" y="697.37" width="0.00" height="34.07" fill="#5b8abf"/>
<rect x="910" y="660.30" width="0.00" height="34.07" fill="#5b8abf"/>
<rect x="910" y="623.23" width="3.24" height="34.07" fill="#5b8abf"/>
<rect x="910" y="586.17" width="1.84" height="34.07" fill="#5b8abf"/>
<rect x="910" y="549.10" width="37.18" height="34.07" fill="#5b8abf"/>
<rect x="910" y="512.03" width="140.00" height="34.07" fill="#5b8abf"/>
<rect x="910" y="474.97" width="5.53" height="34.07" fill="#5b8abf"/>
<rect x="910" y="437.90" width="0.73" height="34.07" fill="#5b8abf"/>
<rect x="910" y="400.83" width="0.19" height="34.07" fill="#5b8abf"/>
<rect x="910" y="363.77" width="0.09" height="34.07" fill="#5b8abf"/>
<rect x="910" y="326.70" width="0.02" height="34.07" fill="#5b8abf"/>
<rect x="910" y="289.63" width="0.09" height="34.07" fill="#5b8abf"/>
<rect x="910" y="252.57" width="0.00" height="34.07" fill="#5b8abf"/>
<rect x="910" y="215.50" width="0.02" height="34.07" fill="#5b8abf"/>
<circle cx="419.31" cy="372.86" r="3.06" fill="rgb(236,181,119)" fill-opacity="0.35" stroke="#8b4d00" stroke-width="0.6"/>
<circle cx="394.75" cy="412.57" r="3.06" fill="rgb(236,181,119)" fill-opacity="0.35" stroke="#8b4d00" stroke-width="0.6"/>
<circle cx="836.88" cy="531.71" r="3.06" fill="rgb(236,181,119)" fill-opacity="0.35" stroke="#8b4d00" stroke-width="0.6"/>
<circle cx="443.88" cy="412.57" r="3.06" fill="rgb(236,181,119)" fill-opacity="0.35" stroke="#8b4d00" stroke-width="0.6"/>
<circle cx="321.06" cy="452.29" r="3.06" fill="rgb(236,181,119)" fill-opacity="0.35" stroke="#8b4d00" stroke-width="0.6"/>
<circle cx="468.44" cy="412.57" r="3.06" fill="rgb(236,181,119)" fill-opacity="0.35" stroke="#8b4d00" stroke-width="0.6"/>
<circle cx="493.00" cy="611.14" r="3.06" fill="rgb(236,181,119)" fill-opacity="0.35" stroke="#8b4d00" stroke-width="0.6"/>
<circle cx="493.00" cy="412.57" r="3.06" fill="rgb(236,181,119)" fill-opacity="0.35" stroke="#8b4d00" stroke-width="0.6"/>
<circle cx="493.00" cy="333.14" r="3.06" fill="rgb(236,181,119)" fill-opacity="0.35" stroke="#8b4d00" stroke-width="0.6"/>
<circle cx="517.56" cy="611.14" r="3.06" fill="rgb(236,181,119)" fill-opacity="0.35" stroke="#8b4d00" stroke-width="0.6"/>
<circle cx="296.50" cy="492.00" r="3.06" fill="rgb(236,181,119)" fill-opacity="0.35" stroke="#8b4d00" stroke-width="0.6"/>
<circle cx="517.56" cy="214.00" r="3.06" fill="rgb(236,181,119)" fill-opacity="0.35" stroke="#8b4d00" stroke-width="0.6"/>
<circle cx="542.12" cy="770.00" r="3.06" fill="rgb(236,181,119)" fill-opacity="0.35" stroke="#8b4d00" stroke-width="0.6"/>
<circle cx="370.19" cy="372.86" r="3.06" fill="rgb(236,181,119)" fill-opacity="0.35" stroke="#8b4d00" stroke-width="0.6"/>
<circle cx="542.12" cy="571.43" r="3.06" fill="rgb(236,181,119)" fill-opacity="0.35" stroke="#8b4d00" stroke-width="0.6"/>
<circle cx="247.38" cy="611.14" r="3.06" fill="rgb(236,181,119)" fill-opacity="0.35" stroke="#8b4d00" stroke-width="0.6"/>
<circle cx="198.25" cy="770.00" r="3.06" fill="rgb(236,181,119)" fill-opacity="0.35" stroke="#8b4d00" stroke-width="0.6"/>
<circle cx="222.81" cy="571.43" r="3.06" fill="rgb(236,181,119)" fill-opacity="0.35" stroke="#8b4d00" stroke-width="0.6"/>
<circle cx="640.38" cy="452.29" r="3.06" fill="rgb(236,181,119)" fill-opacity="0.35" stroke="#8b4d00" stroke-width="0.6"/>
<circle cx="247.38" cy="650.86" r="3.06" fill="rgb(236,181,119)" fill-opacity="0.35" stroke="#8b4d00" stroke-width="0.6"/>
<circle cx="542.12" cy="293.43" r="3.06" fill="rgb(236,181,119)" fill-opacity="0.35" stroke="#8b4d00" stroke-width="0.6"/>
<circle cx="640.38" cy="492.00" r="3.06" fill="rgb(236,181,119)" fill-opacity="0.35" stroke="#8b4d00" stroke-width="0.6"/>
<circle cx="345.62" cy="412.57" r="3.06" fill="rgb(236,181,119)" fill-opacity="0.35" stroke="#8b4d00" stroke-width="0.6"/>
<circle cx="615.81" cy="571.43" r="3.06" fill="rgb(236,181,119)" fill-opacity="0.35" stroke="#8b4d00" stroke-width="0.6"/>
<circle cx="615.81" cy="770.00" r="3.06" fill="rgb(236,181,119)" fill-opacity="0.35" stroke="#8b4d00" stroke-width="0.6"/>
<circle cx="591.25" cy="571.43" r="3.06" fill="rgb(236,181,119)" fill-opacity="0.35" stroke="#8b4d00" stroke-width="0.6"/>
<circle cx="566.69" cy="492.00" r="3.06" fill="rgb(236,181,119)" fill-opacity="0.35" stroke="#8b4d00" stroke-width="0.6"/>
<circle cx="247.38" cy="531.71" r="3.06" fill="rgb(236,181,119)" fill-opacity="0.35" stroke="#8b4d00" stroke-width="0.6"/>
<circle cx="517.56" cy="412.57" r="3.56" fill="rgb(233,176,113)" fill-opacity="0.38" stroke="#8b4d00" stroke-width="0.6"/>
<circle cx="517.56" cy="372.86" r="3.56" fill="rgb(233,176,113)" fill-opacity="0.38" stroke="#8b4d00" stroke-width="0.6"/>
<circle cx="738.62" cy="531.71" r="3.56" fill="rgb(233,176,113)" fill-opacity="0.38" stroke="#8b4d00" stroke-width="0.6"/>
<circle cx="763.19" cy="531.71" r="3.56" fill="rgb(233,176,113)" fill-opacity="0.38" stroke="#8b4d00" stroke-width="0.6"/>
<circle cx="419.31" cy="412.57" r="3.56" fill="rgb(233,176,113)" fill-opacity="0.38" stroke="#8b4d00" stroke-width="0.6"/>
<circle cx="542.12" cy="452.29" r="3.56" fill="rgb(233,176,113)" fill-opacity="0.38" stroke="#8b4d00" stroke-width="0.6"/>
<circle cx="886.00" cy="531.71" r="3.56" fill="rgb(233,176,113)" fill-opacity="0.38" stroke="#8b4d00" stroke-width="0.6"/>
<circle cx="222.81" cy="650.86" r="3.56" fill="rgb(233,176,113)" fill-opacity="0.38" stroke="#8b4d00" stroke-width="0.6"/>
<circle cx="419.31" cy="452.29" r="3.92" fill="rgb(232,172,108)" fill-opacity="0.41" stroke="#8b4d00" stroke-width="0.6"/>
<circle cx="787.75" cy="770.00" r="3.92" fill="rgb(232,172,108)" fill-opacity="0.41" stroke="#8b4d00" stroke-width="0.6"/>
<circle cx="321.06" cy="492.00" r="3.92" fill="rgb(232,172,108)" fill-opacity="0.41" stroke="#8b4d00" stroke-width="0.6"/>
<circle cx="394.75" cy="452.29" r="3.92" fill="rgb(232,172,108)" fill-opacity="0.41" stroke="#8b4d00" stroke-width="0.6"/>
<circle cx="493.00" cy="452.29" r="3.92" fill="rgb(232,172,108)" fill-opacity="0.41" stroke="#8b4d00" stroke-width="0.6"/>
<circle cx="591.25" cy="770.00" r="3.92" fill="rgb(232,172,108)" fill-opacity="0.41" stroke="#8b4d00" stroke-width="0.6"/>
<circle cx="443.88" cy="452.29" r="3.92" fill="rgb(232,172,108)" fill-opacity="0.41" stroke="#8b4d00" stroke-width="0.6"/>
<circle cx="493.00" cy="293.43" r="3.92" fill="rgb(232,172,108)" fill-opacity="0.41" stroke="#8b4d00" stroke-width="0.6"/>
<circle cx="321.06" cy="611.14" r="3.92" fill="rgb(232,172,108)" fill-opacity="0.41" stroke="#8b4d00" stroke-width="0.6"/>
<circle cx="370.19" cy="452.29" r="4.20" fill="rgb(231,170,105)" fill-opacity="0.42" stroke="#8b4d00" stroke-width="0.6"/>
<circle cx="517.56" cy="452.29" r="4.20" fill="rgb(231,170,105)" fill-opacity="0.42" stroke="#8b4d00" stroke-width="0.6"/>
<circle cx="468.44" cy="452.29" r="4.42" fill="rgb(230,167,102)" fill-opacity="0.44" stroke="#8b4d00" stroke-width="0.6"/>
<circle cx="345.62" cy="452.29" r="4.42" fill="rgb(230,167,102)" fill-opacity="0.44" stroke="#8b4d00" stroke-width="0.6"/>
<circle cx="173.69" cy="770.00" r="4.42" fill="rgb(230,167,102)" fill-opacity="0.44" stroke="#8b4d00" stroke-width="0.6"/>
<circle cx="271.94" cy="650.86" r="4.42" fill="rgb(230,167,102)" fill-opacity="0.44" stroke="#8b4d00" stroke-width="0.6"/>
<circle cx="296.50" cy="650.86" r="4.42" fill="rgb(230,167,102)" fill-opacity="0.44" stroke="#8b4d00" stroke-width="0.6"/>
<circle cx="689.50" cy="531.71" r="4.61" fill="rgb(229,165,100)" fill-opacity="0.45" stroke="#8b4d00" stroke-width="0.6"/>
<circle cx="714.06" cy="531.71" r="4.61" fill="rgb(229,165,100)" fill-opacity="0.45" stroke="#8b4d00" stroke-width="0.6"/>
<circle cx="271.94" cy="611.14" r="4.61" fill="rgb(229,165,100)" fill-opacity="0.45" stroke="#8b4d00" stroke-width="0.6"/>
<circle cx="247.38" cy="571.43" r="4.78" fill="rgb(228,164,98)" fill-opacity="0.46" stroke="#8b4d00" stroke-width="0.6"/>
<circle cx="345.62" cy="492.00" r="4.78" fill="rgb(228,164,98)" fill-opacity="0.46" stroke="#8b4d00" stroke-width="0.6"/>
<circle cx="664.94" cy="531.71" r="4.93" fill="rgb(227,162,96)" fill-opacity="0.47" stroke="#8b4d00" stroke-width="0.6"/>
<circle cx="271.94" cy="531.71" r="4.93" fill="rgb(227,162,96)" fill-opacity="0.47" stroke="#8b4d00" stroke-width="0.6"/>
<circle cx="542.12" cy="492.00" r="4.93" fill="rgb(227,162,96)" fill-opacity="0.47" stroke="#8b4d00" stroke-width="0.6"/>
<circle cx="296.50" cy="611.14" r="4.93" fill="rgb(227,162,96)" fill-opacity="0.47" stroke="#8b4d00" stroke-width="0.6"/>
<circle cx="394.75" cy="611.14" r="4.93" fill="rgb(227,162,96)" fill-opacity="0.47" stroke="#8b4d00" stroke-width="0.6"/>
<circle cx="468.44" cy="611.14" r="4.93" fill="rgb(227,162,96)" fill-opacity="0.47" stroke="#8b4d00" stroke-width="0.6"/>
<circle cx="370.19" cy="611.14" r="5.18" fill="rgb(226,160,93)" fill-opacity="0.48" stroke="#8b4d00" stroke-width="0.6"/>
<circle cx="517.56" cy="650.86" r="5.18" fill="rgb(226,160,93)" fill-opacity="0.48" stroke="#8b4d00" stroke-width="0.6"/>
<circle cx="321.06" cy="650.86" r="5.28" fill="rgb(226,159,92)" fill-opacity="0.49" stroke="#8b4d00" stroke-width="0.6"/>
<circle cx="345.62" cy="611.14" r="5.28" fill="rgb(226,159,92)" fill-opacity="0.49" stroke="#8b4d00" stroke-width="0.6"/>
<circle cx="615.81" cy="531.71" r="5.28" fill="rgb(226,159,92)" fill-opacity="0.49" stroke="#8b4d00" stroke-width="0.6"/>
<circle cx="566.69" cy="531.71" r="5.28" fill="rgb(226,159,92)" fill-opacity="0.49" stroke="#8b4d00" stroke-width="0.6"/>
<circle cx="222.81" cy="770.00" r="5.38" fill="rgb(225,158,91)" fill-opacity="0.49" stroke="#8b4d00" stroke-width="0.6"/>
<circle cx="493.00" cy="650.86" r="5.38" fill="rgb(225,158,91)" fill-opacity="0.49" stroke="#8b4d00" stroke-width="0.6"/>
<circle cx="370.19" cy="492.00" r="5.56" fill="rgb(225,156,88)" fill-opacity="0.51" stroke="#8b4d00" stroke-width="0.6"/>
<circle cx="640.38" cy="531.71" r="5.56" fill="rgb(225,156,88)" fill-opacity="0.51" stroke="#8b4d00" stroke-width="0.6"/>
<circle cx="419.31" cy="611.14" r="5.56" fill="rgb(225,156,88)" fill-opacity="0.51" stroke="#8b4d00" stroke-width="0.6"/>
<circle cx="345.62" cy="650.86" r="5.56" fill="rgb(225,156,88)" fill-opacity="0.51" stroke="#8b4d00" stroke-width="0.6"/>
<circle cx="443.88" cy="611.14" r="5.64" fill="rgb(224,155,87)" fill-opacity="0.51" stroke="#8b4d00" stroke-width="0.6"/>
<circle cx="370.19" cy="650.86" r="5.64" fill="rgb(224,155,87)" fill-opacity="0.51" stroke="#8b4d00" stroke-width="0.6"/>
<circle cx="394.75" cy="492.00" r="5.72" fill="rgb(224,154,87)" fill-opacity="0.51" stroke="#8b4d00" stroke-width="0.6"/>
<circle cx="394.75" cy="650.86" r="5.72" fill="rgb(224,154,87)" fill-opacity="0.51" stroke="#8b4d00" stroke-width="0.6"/>
<circle cx="419.31" cy="492.00" r="5.79" fill="rgb(224,154,86)" fill-opacity="0.52" stroke="#8b4d00" stroke-width="0.6"/>
<circle cx="419.31" cy="650.86" r="5.79" fill="rgb(224,154,86)" fill-opacity="0.52" stroke="#8b4d00" stroke-width="0.6"/>
<circle cx="468.44" cy="650.86" r="5.92" fill="rgb(223,152,84)" fill-opacity="0.53" stroke="#8b4d00" stroke-width="0.6"/>
<circle cx="517.56" cy="770.00" r="6.04" fill="rgb(222,151,83)" fill-opacity="0.53" stroke="#8b4d00" stroke-width="0.6"/>
<circle cx="271.94" cy="571.43" r="6.09" fill="rgb(222,151,82)" fill-opacity="0.54" stroke="#8b4d00" stroke-width="0.6"/>
<circle cx="443.88" cy="650.86" r="6.19" fill="rgb(222,150,81)" fill-opacity="0.54" stroke="#8b4d00" stroke-width="0.6"/>
<circle cx="247.38" cy="770.00" r="6.24" fill="rgb(222,149,80)" fill-opacity="0.55" stroke="#8b4d00" stroke-width="0.6"/>
<circle cx="296.50" cy="531.71" r="6.29" fill="rgb(221,149,80)" fill-opacity="0.55" stroke="#8b4d00" stroke-width="0.6"/>
<circle cx="591.25" cy="531.71" r="6.46" fill="rgb(221,147,77)" fill-opacity="0.56" stroke="#8b4d00" stroke-width="0.6"/>
<circle cx="443.88" cy="492.00" r="6.61" fill="rgb(220,145,76)" fill-opacity="0.57" stroke="#8b4d00" stroke-width="0.6"/>
<circle cx="468.44" cy="492.00" r="6.84" fill="rgb(219,143,73)" fill-opacity="0.58" stroke="#8b4d00" stroke-width="0.6"/>
<circle cx="271.94" cy="770.00" r="7.00" fill="rgb(218,141,71)" fill-opacity="0.59" stroke="#8b4d00" stroke-width="0.6"/>
<circle cx="493.00" cy="492.00" r="7.05" fill="rgb(218,141,70)" fill-opacity="0.60" stroke="#8b4d00" stroke-width="0.6"/>
<circle cx="493.00" cy="770.00" r="7.10" fill="rgb(218,140,70)" fill-opacity="0.60" stroke="#8b4d00" stroke-width="0.6"/>
<circle cx="296.50" cy="571.43" r="7.15" fill="rgb(217,140,69)" fill-opacity="0.60" stroke="#8b4d00" stroke-width="0.6"/>
<circle cx="517.56" cy="492.00" r="7.42" fill="rgb(216,137,66)" fill-opacity="0.62" stroke="#8b4d00" stroke-width="0.6"/>
<circle cx="321.06" cy="531.71" r="7.47" fill="rgb(216,137,65)" fill-opacity="0.62" stroke="#8b4d00" stroke-width="0.6"/>
<circle cx="321.06" cy="571.43" r="7.52" fill="rgb(216,136,64)" fill-opacity="0.63" stroke="#8b4d00" stroke-width="0.6"/>
<circle cx="296.50" cy="770.00" r="7.64" fill="rgb(215,135,63)" fill-opacity="0.63" stroke="#8b4d00" stroke-width="0.6"/>
<circle cx="321.06" cy="770.00" r="7.85" fill="rgb(214,133,60)" fill-opacity="0.65" stroke="#8b4d00" stroke-width="0.6"/>
<circle cx="345.62" cy="571.43" r="8.14" fill="rgb(213,130,57)" fill-opacity="0.66" stroke="#8b4d00" stroke-width="0.6"/>
<circle cx="468.44" cy="770.00" r="8.22" fill="rgb(213,129,56)" fill-opacity="0.67" stroke="#8b4d00" stroke-width="0.6"/>
<circle cx="345.62" cy="770.00" r="8.24" fill="rgb(213,129,56)" fill-opacity="0.67" stroke="#8b4d00" stroke-width="0.6"/>
<circle cx="345.62" cy="531.71" r="8.27" fill="rgb(213,129,55)" fill-opacity="0.67" stroke="#8b4d00" stroke-width="0.6"/>
<circle cx="517.56" cy="571.43" r="8.34" fill="rgb(212,128,54)" fill-opacity="0.68" stroke="#8b4d00" stroke-width="0.6"/>
<circle cx="394.75" cy="770.00" r="8.36" fill="rgb(212,128,54)" fill-opacity="0.68" stroke="#8b4d00" stroke-width="0.6"/>
<circle cx="370.19" cy="770.00" r="8.37" fill="rgb(212,128,54)" fill-opacity="0.68" stroke="#8b4d00" stroke-width="0.6"/>
<circle cx="370.19" cy="571.43" r="8.38" fill="rgb(212,128,54)" fill-opacity="0.68" stroke="#8b4d00" stroke-width="0.6"/>
<circle cx="443.88" cy="770.00" r="8.39" fill="rgb(212,128,54)" fill-opacity="0.68" stroke="#8b4d00" stroke-width="0.6"/>
<circle cx="419.31" cy="770.00" r="8.53" fill="rgb(211,126,52)" fill-opacity="0.69" stroke="#8b4d00" stroke-width="0.6"/>
<circle cx="542.12" cy="531.71" r="8.67" fill="rgb(211,125,50)" fill-opacity="0.70" stroke="#8b4d00" stroke-width="0.6"/>
<circle cx="394.75" cy="571.43" r="8.72" fill="rgb(211,124,50)" fill-opacity="0.70" stroke="#8b4d00" stroke-width="0.6"/>
<circle cx="493.00" cy="571.43" r="8.89" fill="rgb(210,123,48)" fill-opacity="0.71" stroke="#8b4d00" stroke-width="0.6"/>
<circle cx="419.31" cy="571.43" r="8.94" fill="rgb(210,122,47)" fill-opacity="0.71" stroke="#8b4d00" stroke-width="0.6"/>
<circle cx="468.44" cy="571.43" r="8.99" fill="rgb(209,122,47)" fill-opacity="0.71" stroke="#8b4d00" stroke-width="0.6"/>
<circle cx="370.19" cy="531.71" r="9.12" fill="rgb(209,120,45)" fill-opacity="0.72" stroke="#8b4d00" stroke-width="0.6"/>
<circle cx="443.88" cy="571.43" r="9.27" fill="rgb(208,119,43)" fill-opacity="0.73" stroke="#8b4d00" stroke-width="0.6"/>
<circle cx="394.75" cy="531.71" r="9.77" fill="rgb(206,114,37)" fill-opacity="0.76" stroke="#8b4d00" stroke-width="0.6"/>
<circle cx="419.31" cy="531.71" r="10.17" fill="rgb(204,110,32)" fill-opacity="0.79" stroke="#8b4d00" stroke-width="0.6"/>
<circle cx="443.88" cy="531.71" r="10.67" fill="rgb(202,105,26)" fill-opacity="0.82" stroke="#8b4d00" stroke-width="0.6"/>
<circle cx="468.44" cy="531.71" r="10.94" fill="rgb(201,102,23)" fill-opacity="0.83" stroke="#8b4d00" stroke-width="0.6"/>
<circle cx="517.56" cy="531.71" r="11.03" fill="rgb(200,101,22)" fill-opacity="0.84" stroke="#8b4d00" stroke-width="0.6"/>
<circle cx="493.00" cy="531.71" r="11.20" fill="rgb(200,100,20)" fill-opacity="0.85" stroke="#8b4d00" stroke-width="0.6"/>
<text x="493.0" y="828" text-anchor="middle" font-size="16" font-family="Arial">Number of heavy atoms per molecule</text>
<text x="34" y="492.0" text-anchor="middle" font-size="16" font-family="Arial" transform="rotate(-90 34 492.0)">Max ring size per molecule (0 = acyclic)</text>
<text x="493.0" y="62" text-anchor="middle" font-size="13" font-family="Arial">Heavy-atom marginal distribution</text>
<text x="985.0" y="206" text-anchor="middle" font-size="13" font-family="Arial">Max-ring-size marginal distribution</text>
<text x="110" y="236" text-anchor="start" font-size="12" font-family="Arial" fill="#555">Dashed lines: means (14.16, 5.09)</text>
<text x="110" y="254" text-anchor="start" font-size="12" font-family="Arial" fill="#555">Bubble size/color: frequency of each pair</text>
</svg>